<svg xmlns="http://www.w3.org/2000/svg" xmlns:xlink="http://www.w3.org/1999/xlink" xmlns:v="https://vecta.io/nano" width="1399" height="1580" fill="none"><style><![CDATA[.B{fill:#fff}.C{fill:#fec72f}.D{color-interpolation-filters:sRGB}.E{flood-opacity:0}.F{fill:#ffbe9d}.G{opacity:.64}.H{fill:#eb996e}.I{fill:#263238}.J{fill:#e0e0e0}]]></style><path d="M302.528 1157.77c-6.743-7.08-16.689-9.77-25.86-13.15a138.78 138.78 0 0 1-53.239-35.25 138.9 138.9 0 0 1-31.85-55.34 138.94 138.94 0 0 1-3.736-63.743 138.93 138.93 0 0 1 25.169-58.682l-1.383-7.115c-3.135-33.244-43.258-57.048-73.94-43.831s-41.066 58.565-19.15 83.785c-35.976 2.967-59.779 43.836-54.688 79.736 5.091 35.91 31.221 65.08 60.352 86.42 48.223 35.15 106.244 54.32 165.918 54.82a22.96 22.96 0 0 0 11.8-2.12c8.43-4.96 7.351-18.41.607-25.53z" fill="#ececec"></path><g class="J"><path d="M1305.08 1012.35c8.26-13.484 9.44-31.523 1.04-44.874-8.39-13.352-26.8-20.062-41.13-13.487 4.23-6.778 5.58-14.957 3.78-22.737-1.81-7.781-6.63-14.526-13.41-18.751-6.77-4.225-14.95-5.584-22.73-3.779a30.1 30.1 0 0 0-18.75 13.405c-9.58 14.802-4.52 34.661 3.7 50.271 8.23 15.611 19.53 30.342 22.22 47.642 2.7 17.3-4.04 36.01-14.7 50.57-10.65 14.57-24.85 25.97-38.91 37.09l-2.66 2.56a96.55 96.55 0 0 0 39.48 4.79 96.63 96.63 0 0 0 38.07-11.53c13.22-7.32 25.45-19.42 26.33-34.49.47-8.43-2.66-16.86-1.38-25.22 1.72-11.94 12.51-20.84 19.05-31.46zm-725.067 551.2c-13.116-1.62-26.265-7.35-33.986-18.07-4.923-6.75-7.317-15.24-11.599-22.53-4.282-7.28-11.733-13.85-20.229-13.04-13.015 1.28-21.815 19.28-34.526 16.11-7.62-1.92-11.261-10.89-11.295-18.74-.034-7.86 2.225-15.72 1.248-23.61-2.731-21.94-30.918-32.73-51.957-25.86-21.039 6.88-52.935 32.2-66.657 49.57 14.43 23.97 44 33.27 71.107 40.09a1877.72 1877.72 0 0 0 137.731 29.03c10.857 1.85 21.95 3.64 32.806 1.92s21.68-7.49 26.704-17.27c-12.88 2.06-26.366 4.05-39.347 2.4zm522.097-169.06c-3.37-18.74-22.05-35.27-40.46-30.95 15.37-12.68 15.47-38.17 3.37-53.95-12.1-15.77-33.31-22.62-53.24-22.01-19.924.6-39.041 7.58-57.518 15 9.07-11.53-4.214-29.53-18.847-30.34s-27.749 8.32-39.651 16.85-25.59 17.4-40.088 15.14l13.486 5.47c32.537 4.92 65.343 12.5 93.496 29.5 28.153 16.99 51.382 44.7 56.242 77.24 4.85 32.54-12.28 68.95-43.127 80.35 20.875 1.09 41.707-2.83 60.757-11.44s35.75-21.66 48.72-38.06c11.6-15.04 20.23-34.09 16.86-52.8zM33.068 908.302a285.42 285.42 0 0 1-.877-31.39c-.284-10.483.008-20.973.877-31.424a276.24 276.24 0 0 1 .877 31.424 275.76 275.76 0 0 1-.877 31.39z"></path><path d="M65.535 876.779a305.11 305.11 0 0 1-32.469.876c-10.82.284-21.647-.008-32.435-.876a294.03 294.03 0 0 1 32.435-.877 294.64 294.64 0 0 1 32.469.877zM1285.59 1231.1c-.88-10.43-1.18-20.91-.87-31.39a276.88 276.88 0 0 1 .87-31.42 284.03 284.03 0 0 1 .88 31.42 283.42 283.42 0 0 1-.88 31.39z"></path><path d="M1318.06 1199.68c-10.79.91-21.63 1.21-32.46.91-10.84.31-21.68 0-32.47-.91a305.86 305.86 0 0 1 32.47-.88c10.83-.28 21.66.01 32.46.88zm-223-1046.283c-.89-10.449-1.18-20.94-.87-31.423a274.03 274.03 0 0 1 .87-31.39c.87 10.439 1.16 20.918.88 31.39.28 10.483-.01 20.973-.88 31.423z"></path><path d="M1127.53 121.971c-10.8.889-21.64 1.181-32.47.877-10.83.304-21.67.012-32.47-.877a305.4 305.4 0 0 1 32.47-.877 305.4 305.4 0 0 1 32.47.877zM69.212 632.471a19.19 19.19 0 0 0 19.185-19.185c0-10.596-8.589-19.184-19.185-19.184s-19.185 8.589-19.185 19.184a19.19 19.19 0 0 0 19.185 19.185zm765.725 798.059c.006 3.81-1.115 7.53-3.223 10.69-2.108 3.17-5.107 5.63-8.618 7.09s-7.376 1.85-11.106 1.11-7.158-2.56-9.849-5.25-4.525-6.11-5.269-9.84a19.21 19.21 0 0 1 8.166-19.74 19.24 19.24 0 0 1 10.68-3.24c2.522 0 5.021.49 7.352 1.45a19.03 19.03 0 0 1 6.236 4.16c1.785 1.78 3.201 3.89 4.167 6.22a19.2 19.2 0 0 1 1.464 7.35zm178.573-362.65a19.23 19.23 0 0 1-3.21 10.66 19.17 19.17 0 0 1-8.59 7.08c-3.5 1.46-7.353 1.85-11.074 1.12a19.13 19.13 0 0 1-9.833-5.21 19.18 19.18 0 0 1-5.283-9.8c-.754-3.71-.391-7.57 1.045-11.08a19.16 19.16 0 0 1 7.021-8.63c3.142-2.12 6.843-3.27 10.634-3.29 2.525-.01 5.028.47 7.37 1.43 2.33.96 4.46 2.36 6.25 4.14s3.21 3.9 4.19 6.23a19.33 19.33 0 0 1 1.48 7.35zM443.328 112.297c0 3.794-1.125 7.503-3.233 10.658a19.18 19.18 0 0 1-8.61 7.066c-3.505 1.452-7.363 1.832-11.084 1.092a19.18 19.18 0 0 1-13.982-26.158c1.452-3.505 3.911-6.501 7.066-8.609s6.864-3.233 10.659-3.233c5.088 0 9.967 2.021 13.565 5.619s5.619 8.478 5.619 13.566zm81.32 1144.873c5.307 0 9.609-4.31 9.609-9.61a9.61 9.61 0 0 0-9.609-9.61 9.61 9.61 0 0 0-9.609 9.61c0 5.3 4.302 9.61 9.609 9.61zm-221.92-57.49c.007 1.9-.551 3.77-1.603 5.35a9.55 9.55 0 0 1-4.305 3.55 9.61 9.61 0 0 1-5.555.57 9.59 9.59 0 0 1-4.929-2.63 9.58 9.58 0 0 1-2.639-4.92 9.59 9.59 0 0 1 .541-5.55c.726-1.76 1.958-3.26 3.539-4.32s3.44-1.62 5.342-1.62c1.26-.01 2.509.24 3.675.72a9.58 9.58 0 0 1 3.118 2.07c.892.89 1.601 1.95 2.084 3.11s.732 2.41.732 3.67zM539.279 131.648a9.61 9.61 0 0 1-1.62 5.339 9.6 9.6 0 0 1-4.312 3.539 9.62 9.62 0 0 1-5.552.547 9.61 9.61 0 0 1-3.464-17.415c1.58-1.055 3.438-1.619 5.339-1.619 2.545.009 4.984 1.024 6.785 2.824a9.64 9.64 0 0 1 2.824 6.785zm422.672 519.03a9.61 9.61 0 0 1-1.62 5.338c-1.056 1.58-2.556 2.812-4.312 3.539a9.6 9.6 0 0 1-5.552.547A9.61 9.61 0 0 1 943.464 647c.727-1.756 1.959-3.256 3.539-4.312A9.61 9.61 0 0 1 961.219 647a9.61 9.61 0 0 1 .732 3.678z"></path></g><path d="M40.48 102.99s-21.376 11.025 8.564 55.801 49.563 66.353 49.563 66.353 5.63 10.554-3.372 13.487-29.974 1.989-32.772 13.857 6.979 22.455 25.557 30.345l62.071 27.512c3.642 1.686 7.452 6.373 1.551 9.306s-51.417 13.183-45.247 34.526 61.398 34.323 67.433 35.874 7.687 3.81 7.586 7.013-15.746 5.226-28.558 8.665-26.973 9.71-22.522 21.713 39.009 34.256 116.051 32.705l35.638-3.035 15.78-32.3c29.569-71.141 21.409-111.264 11.901-119.996s-20.533 2.36-28.422 13.048-15.476 24.512-18.511 23.602-4.518-3.372-3.742-9.643 8.8-62.308-8.8-75.828-43.831 25.118-48.653 29.569-7.856-.978-8.092-4.889l-3.203-68.107c-.404-19.96-6.237-33.143-18.746-34.93s-18.948 18.072-24.883 25.456-13.722-1.619-13.722-1.619-12.947-26.163-43.831-70.365-49.057-27.85-49.057-27.85" fill="#bababa"></path><g class="J"><path d="M284.822 465.205l-95.08-141.17-86.482-128.122-26.434-38.571-7.181-10.486-1.854-2.765s-.573-.978-.573-.978l.674.911 1.956 2.697 7.283 10.385 26.704 38.47 86.853 127.852 94.81 141.339"></path><path d="M91.498 254.714c.867.038 1.726.173 2.563.404l6.743 1.551c5.765 1.349 13.722 3.372 22.421 5.934l22.32 6.44 6.744 1.922c.855.147 1.685.42 2.461.809a12.08 12.08 0 0 1-2.563-.404c-1.618-.304-3.978-.843-6.743-1.551-5.765-1.45-13.689-3.642-22.421-6.137l-22.287-6.271-6.743-1.888a12.29 12.29 0 0 1-2.495-.809zm65.543 14.496c-.269 0 3.372-16.622 8.092-37.088s8.901-36.818 9.171-36.751-3.371 16.656-8.092 37.088-8.867 36.818-9.171 36.751zm48.217 79.234a10.08 10.08 0 0 1 1.18-2.36l3.372-6.271 11.261-20.837c4.214-8.227 7.755-15.813 10.115-21.309l3-6.541a11.91 11.91 0 0 1 1.214-2.326c-.168.861-.439 1.699-.809 2.495-.607 1.618-1.517 3.877-2.697 6.743-2.327 5.597-5.799 13.251-10.115 21.511s-8.396 15.543-11.531 20.736c-1.585 2.596-2.9 4.652-3.844 6.069-.32.729-.703 1.428-1.146 2.09zm-62.112-.066c.796-.182 1.612-.261 2.428-.236l6.743-.27c5.631 0 13.487-.303 21.916-.405h21.882 6.743a10.6 10.6 0 0 1 2.428 0 10.11 10.11 0 0 1-2.428.237l-6.743.269-21.916.439h-21.882-6.743c-.808.074-1.622.062-2.428-.034zm33.723 75.354c1.024-.185 2.062-.276 3.102-.27l8.497-.371 28.051-.775 28.052-.438h8.531a20.59 20.59 0 0 1 3.102 0c-1.017.232-2.06.334-3.102.303l-8.497.337-28.052.776-28.085.438h-8.497c-1.032.092-2.07.092-3.102 0zm77.445-2.122c.384-1.051.858-2.066 1.417-3.035l4.18-8.091c3.541-6.744 8.362-16.285 13.487-26.974a789.56 789.56 0 0 0 12.441-27.31l3.675-8.361a20.73 20.73 0 0 1 1.45-3.001 19.73 19.73 0 0 1-1.045 3.169l-3.372 8.497c-2.899 7.114-7.114 16.858-12.205 27.512s-10.115 20.028-13.689 26.771l-4.518 7.923a18.95 18.95 0 0 1-1.821 2.9z"></path></g><path d="M1198.2 745.287c-38-33.143-41.61-87.426-34.8-135.168 1.12-7.991 1.15-16.521 5.74-23.13 4.58-6.608 13.95-10.452 20.73-6.305 5.63 3.372 7.49 10.621 10.12 16.858 3.63 8.095 9.47 15.001 16.85 19.927 4.83 3.203 10.96 5.495 16.29 3.371 7.32-3.034 9.14-12.475 9.95-20.465l4.51-44.506c.38-8.005 2.06-15.896 4.96-23.365a24.75 24.75 0 0 1 6.81-9.62 24.77 24.77 0 0 1 10.49-5.384c7.78-1.315 16.69 4.08 17.43 12.037-.05 3.32-.33 6.632-.85 9.912-.23 1.643.04 3.317.76 4.811a8.38 8.38 0 0 0 3.29 3.585 9.63 9.63 0 0 0 4.93-.137c1.6-.473 3.05-1.356 4.21-2.561a105.99 105.99 0 0 0 22.08-26.636c5.86-10.005 12.88-19.285 20.91-27.647 8.39-7.957 19.45-13.79 30.91-13.217 11.47.573 22.83 8.935 24.52 20.23 1.68 11.295-6.11 22.219-14.2 30.513-12.01 12.333-25.74 22.861-40.76 31.255a14.85 14.85 0 0 0-6.91 6.002c-2.3 5.125 2.15 10.924 7.21 13.217 5.7 2.629 12.21 2.697 18.34 4.113 6.14 1.416 12.55 4.855 14.26 10.958 2.4 8.496-5.32 16.285-12.64 21.14-14.6 9.743-30.77 16.895-47.81 21.14-6.2 1.025-12.17 3.173-17.6 6.339-5.16 3.574-8.8 10.418-6.54 16.352s9.37 8.497 15.65 8.024c6.18-1.087 12.25-2.689 18.17-4.787 11.36-2.967 25.39-.675 31.39 9.508a25.43 25.43 0 0 1 2.78 11.246 25.57 25.57 0 0 1-2.51 11.31c-3.45 7.008-8.26 13.256-14.16 18.375-19.59 18.921-43.83 32.322-70.27 38.842-26.3 6.068-50.07 5.9-74.17-6.036" fill="#f5f5f5"></path><g class="J"><path d="M1213.81 716.524a710.78 710.78 0 0 1 36.65-73.704l10.58-18.813c3.37-6.171 6.95-12.273 10.69-18.072a364.22 364.22 0 0 1 23.6-31.963c7.96-9.778 15.85-18.814 23.3-27.176s14.6-16.015 21.38-22.725a286.5 286.5 0 0 1 34.29-29.265c4.31-3.102 7.75-5.429 10.11-6.946l2.66-1.753.95-.54c-.25.259-.54.485-.84.675l-2.6 1.854-9.91 7.182c-12.02 8.993-23.36 18.865-33.92 29.535-6.74 6.743-13.76 14.431-21.18 22.792-7.41 8.362-15.27 17.432-23.16 27.243a361.03 361.03 0 0 0-23.3 31.896c-3.71 5.732-7.14 11.8-10.62 18.004l-10.58 18.814c-13.55 23.804-25.76 48.342-36.59 73.502"></path><path d="M1272.07 605.936c-.25-1.107-.38-2.236-.4-3.371l-.47-9.542c-.27-8.024-.27-19.151-.24-31.39s0-23.365-.47-31.39l-.54-9.474c-.12-1.121-.12-2.251 0-3.372.34 1.096.55 2.228.64 3.372.34 2.225.67 5.462.98 9.474.67 8.025 1.01 19.151.94 31.458l-.2 31.39v9.508a18.64 18.64 0 0 1-.24 3.337zm104.32-8.09c-1.36.123-2.74.123-4.11 0h-11.23c-9.47 0-22.55.472-37.08 1.618-14.54 1.146-27.45 2.765-36.82 4.214-4.69.675-8.47 1.349-11.1 1.787a22.27 22.27 0 0 1-4.08.54 19.92 19.92 0 0 1 3.98-1.113 190.88 190.88 0 0 1 11.06-2.259c9.34-1.719 22.39-3.371 36.85-4.653a362.15 362.15 0 0 1 37.09-1.18c4.76 0 8.6.337 11.26.573 1.41.012 2.81.17 4.18.473zm-161.13 117.096c-.24-.414-.44-.855-.57-1.315l-1.35-3.877c-1.15-3.372-2.7-8.328-4.52-14.465-3.68-12.239-8.23-29.299-12.98-48.214l-12.54-48.349-4.08-14.566-1.08-3.978c-.15-.46-.26-.935-.31-1.416.27.415.46.871.58 1.348l1.35 3.878c1.18 3.371 2.73 8.328 4.55 14.43 3.67 12.273 8.19 29.334 12.94 48.248l12.55 48.35 4.08 14.565 1.11 3.945c.17.452.26.932.27 1.416z"></path><path d="M1355.89 685.642a8.36 8.36 0 0 1-1.42.405l-4.08.877-15.07 3.169-49.59 10.823-49.7 10.452-15.17 2.664-4.15.64c-.48.09-.97.09-1.45 0l1.42-.404 4.08-.877 15.07-3.169 49.59-10.857 49.7-10.418 15.17-2.664 4.15-.641a3.97 3.97 0 0 1 1.45 0z"></path></g><path d="M905.305 175.48c6.102-35.132 22.859-86.482 42.92-115.95s50.98-52.631 86.445-57.689 74.18 11.801 90.03 43.595c8.53 17.094 10.11 36.785 16.32 54.822 6.2 18.039 19.82 36.144 38.87 37.594 16.86 1.315 33.14-10.857 49.73-7.62 21.65 4.215 29.98 30.851 30.11 52.867.14 22.017-3.03 46.495 10.52 63.859 11.06 14.228 30.04 19.117 45.31 28.659 33.08 20.634 47.21 63.218 43.84 102.059-3.38 38.841-21.25 74.783-40.23 108.803-15.8-55.852-37.27-109.944-64.06-161.434-15.34-29.401-43.36-54.384-68.14-76.401-38.06-33.717-121.58-49.934-172.12-56.138s-59.443-7.552-109.444-16.858" fill="#d6d6d6"></path><use xlink:href="#I" class="C"></use><use xlink:href="#I" class="B G"></use><g class="C"><path d="M559.269 402.056l-1.213.202-3.541.506-13.486 1.686-21.579 2.799-28.49 4.18c-42.179 6.508-100.238 17.263-163.288 33.717-21.915 5.664-43.056 11.497-62.375 17.566l-.978.27v-.978l-18.308-121.379-6.035-35.099-1.652-9.373c0-1.011-.27-1.82-.371-2.427a2.71 2.71 0 0 1 0-.843c.112.259.192.53.236.809 0 .607.304 1.416.54 2.394l1.921 9.339 6.508 34.998c5.327 29.94 12.07 72.22 18.948 121.378l-1.112-.674c19.386-6.136 40.459-12.003 62.476-17.667 53.892-13.887 108.475-24.938 163.524-33.11 10.553-1.652 20.23-2.764 28.558-3.877s15.678-1.922 21.612-2.529l13.689-1.382 3.573-.304c.275-.093.557-.161.843-.202z"></path><path d="M563.656 350.067l-1.45-4.282c-1.61-3.964-3.778-7.676-6.439-11.026a56 56 0 0 0-15.173-13.317c-1.618-1.079-3.54-1.889-5.394-2.866-1.983-.867-4.022-1.599-6.103-2.192-4.494-1.428-9.24-1.888-13.925-1.349a29 29 0 0 0-14.161 5.564 47.97 47.97 0 0 0-11.328 12.306c-6.744 9.744-10.823 21.612-15.881 33.919a42.11 42.11 0 0 1-11.767 16.858 22.08 22.08 0 0 1-9.744 4.686 19.78 19.78 0 0 1-10.991-1.281c-14.229-5.63-20.567-22.05-34.964-26.973-7.068-2.242-14.735-1.612-21.343 1.753-3.224 1.602-6.1 3.825-8.462 6.541-2.237 2.772-4.128 5.807-5.631 9.036-3.203 6.339-5.631 13.487-11.059 18.376-2.666 2.485-6.081 4.015-9.71 4.349-3.505.21-7.001-.536-10.115-2.158a36.65 36.65 0 0 1-13.959-13.722 121.57 121.57 0 0 1-7.384-16.858 79.26 79.26 0 0 0-7.316-15.206 30.34 30.34 0 0 0-11.16-10.385c-3.929-2.08-8.283-3.228-12.726-3.357s-8.856.766-12.898 2.615a43.34 43.34 0 0 0-16.285 11.733 31.58 31.58 0 0 0-6.103 11.161c-.877 2.798-.978 4.383-1.113 4.349.082-1.509.342-3.003.776-4.451 1.118-4.211 3.131-8.133 5.9-11.497 4.434-5.307 10.06-9.489 16.42-12.205 4.178-1.962 8.753-2.931 13.368-2.831a29.93 29.93 0 0 1 13.234 3.404c4.764 2.512 8.803 6.203 11.733 10.722a79.95 79.95 0 0 1 7.519 15.442c2.047 5.694 4.515 11.227 7.384 16.555a34.83 34.83 0 0 0 13.487 13.082c2.853 1.49 6.058 2.178 9.271 1.989 3.268-.335 6.336-1.732 8.733-3.979 4.99-4.551 7.418-11.43 10.621-17.869 1.561-3.376 3.531-6.547 5.866-9.441 2.512-2.888 5.572-5.249 9.003-6.946 7.023-3.585 15.178-4.252 22.691-1.854 7.653 2.529 13.149 8.429 18.24 13.756a51.01 51.01 0 0 0 16.858 13.487 18.11 18.11 0 0 0 10.115 1.18c3.308-.683 6.399-2.164 9.002-4.316a41.06 41.06 0 0 0 11.329-16.184c5.024-12.171 9.441-24.208 16.184-34.087 3.115-4.879 7.09-9.152 11.733-12.61a30.62 30.62 0 0 1 14.802-5.698 34.75 34.75 0 0 1 14.363 1.517 48.73 48.73 0 0 1 6.237 2.327 58.12 58.12 0 0 1 20.668 16.858c2.638 3.453 4.741 7.283 6.238 11.362a31.62 31.62 0 0 1 .877 3.372c-.013.214-.036.428-.068.641zm-331.265-28.086c0 .472-1.551 1.18-3.641 1.584s-3.878.337-3.945 0 1.517-1.18 3.607-1.584 3.81-.472 3.979 0zm5.53 38.94c.202.472-1.011 1.449-2.731 2.259s-3.372 1.079-3.372.64 1.046-1.416 2.765-2.225 3.136-1.011 3.338-.674zm6.912 42.789c0 .472-1.113 1.315-2.832 1.922s-3.372.708-3.372.269 1.113-1.315 2.832-1.921 3.203-.708 3.372-.27zm8.293 41.942c0 .472-1.315 1.349-3.371 1.922s-3.574.742-3.709.27 1.281-1.315 3.169-1.922 3.743-.708 3.911-.27zm235.71-201.523a17.53 17.53 0 0 1 4.08-.945l11.632-1.753 41.336-5.361h.809v.809l4.484 48.417v.742.843h-.842l-55.868 6.743h-.776v-.742l-3.81-35.705-.978-9.879a28.36 28.36 0 0 1-.202-3.372 30.24 30.24 0 0 1 .607 3.574l1.382 10.115 4.485 35.267-.843-.674 55.868-7.114-.776.944v-.708l-4.282-48.451.877.709-57.183 6.541zm51.924 8.497c0 .54-9.609.506-21.342 1.787s-21.141 3.372-21.275 2.731a103.73 103.73 0 0 1 42.617-4.518zm.607 12.542c0 .506-8.969.843-19.926 1.922s-19.859 2.427-19.961 1.922c6.412-2.073 13.064-3.309 19.792-3.675a76.94 76.94 0 0 1 20.095-.169zm-13.383 10.923a36.87 36.87 0 0 1-11.396 2.327c-3.804.771-7.701.976-11.565.607 3.647-1.352 7.479-2.137 11.363-2.327a39.6 39.6 0 0 1 11.598-.607z"></path><use xlink:href="#J"></use></g><g class="B"><use xlink:href="#J" class="G"></use><path d="M900.653 317.326l5.394-46.225a54.11 54.11 0 0 0-37.728 10.452c-7.176 5.257-13.015 12.128-17.045 20.059s-6.137 16.697-6.152 25.593c-.058 2.249-.002 4.5.168 6.743l53.946-6.069 1.417-10.553z"></path></g><use xlink:href="#K" class="C"></use><use xlink:href="#K" opacity=".09" fill="#000"></use><path d="M901.423 334.285l-53.946 6.069c2.259 26.164 21.342 47.844 46.966 51.013s49.665-13.487 58.094-38.437l-50.98-18.611" class="B"></path><g class="C"><path d="M1130.43 321.407c-1.64-.5-3.23-1.143-4.76-1.922-3-1.382-7.38-3.372-12.84-5.563-14.17-5.926-28.67-11.014-43.43-15.24-14.78-4.241-29.8-7.619-44.98-10.115l-13.82-2.057a26.25 26.25 0 0 1-5.06-.876 32.9 32.9 0 0 1 5.16.202c3.37.236 8.06.742 13.93 1.517 30.62 4.164 60.49 12.679 88.7 25.287 5.4 2.428 9.71 4.518 12.65 6.069a30.57 30.57 0 0 1 4.45 2.698zm-3.71 22.657a31.84 31.84 0 0 1-4.76-1.955c-3-1.349-7.38-3.372-12.84-5.53a382.23 382.23 0 0 0-88.41-25.22l-13.82-2.056a35.08 35.08 0 0 1-5.06-.877c1.72-.111 3.45-.044 5.16.202 3.37.203 8.06.708 13.93 1.484 15.28 2.093 30.4 5.271 45.24 9.508 14.84 4.252 29.36 9.536 43.46 15.813 5.4 2.427 9.71 4.518 12.65 6.069 1.56.699 3.06 1.558 4.45 2.562zm-3.71 22.824c-1.64-.5-3.23-1.143-4.76-1.922-3-1.349-7.38-3.372-12.84-5.563a399.39 399.39 0 0 0-43.43-15.341c-14.79-4.225-29.8-7.603-44.98-10.115l-13.82-2.057c-1.71-.126-3.406-.419-5.059-.876 1.722-.068 3.449 0 5.159.202 3.37.236 8.06.742 13.92 1.517 15.29 2.094 30.41 5.271 45.25 9.508 14.85 4.222 29.37 9.506 43.46 15.813 5.4 2.428 9.71 4.518 12.65 6.069a26.67 26.67 0 0 1 4.45 2.765zm-7.42 22.76a33.47 33.47 0 0 1-4.62-1.922c-2.9-1.382-7.15-3.372-12.41-5.529-27.44-11.914-56.25-20.396-85.77-25.254l-13.486-2.057a25.16 25.16 0 0 1-4.923-.876c1.677-.089 3.359-.022 5.024.202 3.205.202 7.825.708 13.485 1.517a307.61 307.61 0 0 1 44 9.508c14.42 4.289 28.52 9.607 42.18 15.914 5.23 2.428 9.41 4.518 12.21 6.069 1.51.672 2.95 1.485 4.31 2.428zm-16.12 18.138a25.63 25.63 0 0 1-4.15-1.652l-11.16-4.956c-24.42-11.074-50.35-18.471-76.94-21.95l-12.102-1.686a27.23 27.23 0 0 1-4.417-.775c1.49-.176 2.995-.176 4.484 0 2.9 0 7.045.539 12.175 1.113a234.31 234.31 0 0 1 77.31 22.05c4.69 2.225 8.39 4.113 10.96 5.496 1.36.648 2.65 1.439 3.84 2.36zm-54.38 2.563c-2.94-.37-5.85-.967-8.7-1.787-5.32-1.248-12.71-2.866-20.93-4.249l-21.178-3.371c-2.96-.255-5.893-.762-8.766-1.517 2.968-.233 5.952-.143 8.901.269 5.495.472 13.043 1.282 21.343 2.731 7.06 1.201 14.05 2.799 20.94 4.788a39.04 39.04 0 0 1 8.39 3.136zm-210.423-172.93l2.833-.169 8.429-.27c7.417 0 18.207 0 31.963.709 38.063 2.532 75.722 9.318 112.275 20.229l.607.203v.64l-29.198 167.166-1.315 7.417v.944l-.944-.236a729.19 729.19 0 0 0-74.952-15.476c-24.174-3.708-47.202-6.338-68.713-7.687h-.843v-.809l14.329-125.087 4.113-35.065 1.113-9.205c0-.978.236-1.753.303-2.36s0-.776 0-.742a3.96 3.96 0 0 1 0 .843c0 .607 0 1.416-.236 2.428l-.944 9.373-3.708 35.267-13.487 124.75-.742-.843c21.545 1.282 44.674 3.878 68.883 7.553a732.12 732.12 0 0 1 75.153 15.442l-1.078.708 1.314-7.418 29.435-167.098.506.843a521.45 521.45 0 0 0-111.871-20.668c-13.689-.91-24.546-1.146-31.828-1.112h-11.329l-.068-.27z"></path><use xlink:href="#L"></use></g><use xlink:href="#L" opacity=".09" fill="#000"></use><g class="F"><path d="M882.954 436.916l150.676-20.23 23.6-6.743 59.38-13.757c5.86-2.09 8.29.236 8.9 2.428.98 3.371-2.33 7.316-7.32 9.272-1.68.674-29.23 10.115-29.23 10.115 3.16.675 6.27 1.576 9.31 2.697 6.57 2.225 12.88 10.722 16.04 20.634 3.17 9.913 3.21 12.948-.6 14.364-.73.221-1.5.281-2.26.176a5.34 5.34 0 0 1-2.13-.783 10.44 10.44 0 0 1-4.51-5.665c-5.3-15.813-15.18-17.06-15.18-17.06l-3.1.877s10.12 7.114 10.12 15.745c-.03 1.266-.3 2.515-.81 3.675a13.08 13.08 0 0 1 .51 6.681 12.99 12.99 0 0 1-2.87 6.054c-1.47 1.733-3.36 3.053-5.5 3.83-2.13.776-4.43.982-6.67.597-2.16-.405-4.52-1.686-4.82-3.844a6.78 6.78 0 0 1 .7-3.372 14.02 14.02 0 0 0 .54-1.787l-9.03 1.248s-20.47 1.686-29.27 3.372l-141.068 42.482c-4.637 1.409-9.509 1.881-14.33 1.39s-9.498-1.937-13.756-4.253a36.55 36.55 0 0 1-11.045-9.235c-3.033-3.78-5.284-8.126-6.622-12.784a36.52 36.52 0 0 1-.946-15.502 36.51 36.51 0 0 1 16.681-25.355 36.5 36.5 0 0 1 14.61-5.267z"></path><path d="M1037.17 420.464c.32 1.556 1.12 2.971 2.29 4.048a7.58 7.58 0 0 0 4.22 1.953c3.1.641 6.34.236 9.47.641 9.38 1.281 16.69 9.811 26.1 10.621 1.31 0 3 0 3.37-1.416s-.64-2.259-1.55-3.069l-23.6-20.803"></path></g><g class="H"><path d="M1057.57 412.439c.99.565 1.91 1.231 2.76 1.99l7.12 5.934 10.42 8.935 2.96 2.596c.91.91 2.46 1.686 2.73 3.843.01.53-.14 1.05-.42 1.495a2.71 2.71 0 0 1-1.19 1 5.54 5.54 0 0 1-2.53.405 18.79 18.79 0 0 1-4.52-.91c-5.2-2.184-10.23-4.73-15.07-7.62a23.08 23.08 0 0 0-6.75-2.225c-2.19-.338-4.35-.27-6.3-.405-1.62.046-3.22-.262-4.71-.903a11.09 11.09 0 0 1-3.89-2.806c-1.38-1.922-1.11-3.372-1.04-3.372.36 1.026.9 1.983 1.58 2.833a10.52 10.52 0 0 0 3.74 2.311 10.54 10.54 0 0 0 4.35.588c2.16-.043 4.32.024 6.48.203 2.5.36 4.93 1.099 7.21 2.191 4.81 2.785 9.79 5.274 14.9 7.451a19.99 19.99 0 0 0 4.08.81c1.32 0 2.43-.371 2.3-1.046-.14-.674-1.08-1.753-2.09-2.629l-2.97-2.63-10.12-9.239-6.74-6.338c-1.58-1.484-2.39-2.36-2.29-2.462zm28.86 20.598a12.7 12.7 0 0 1 5.93 0c2.04.541 3.85 1.723 5.16 3.372a24.79 24.79 0 0 1 3.71 7.047 41.13 41.13 0 0 0 3.37 7.485c1.19 1.991 2.89 3.631 4.92 4.754.72.367 1.51.558 2.31.558.81 0 1.6-.191 2.31-.558.98-.506 1.35-1.012 1.32-1.046s-.54.27-1.48.641a5.04 5.04 0 0 1-2.09.233 4.99 4.99 0 0 1-1.99-.638c-1.82-1.145-3.32-2.72-4.39-4.585-1.35-2.349-2.48-4.822-3.37-7.384-.91-2.633-2.25-5.095-3.98-7.283a10.57 10.57 0 0 0-5.76-3.675 9.65 9.65 0 0 0-4.62 0l-1.35 1.079zm33.85-25.928c-1.88.439-3.73 1.06-5.49 1.855l-13.08 4.821-13.09 4.619a28.12 28.12 0 0 0-5.39 2.057c1.93-.222 3.83-.652 5.66-1.281 3.37-.978 8.16-2.462 13.29-4.316 5.12-1.854 9.74-3.675 13.01-5.125a25.3 25.3 0 0 0 5.09-2.63zm-37.83 34.323s.41.54 1.18 1.383c.57.525 1.02 1.168 1.32 1.884s.43 1.488.4 2.263c-.07.494-.28.96-.59 1.351-.32.39-.73.691-1.19.874-1.17.478-2.4.818-3.64 1.011a6.43 6.43 0 0 0-4.08 2.158c-.49.718-.81 1.539-.93 2.399-.11.86-.03 1.736.25 2.558a6.35 6.35 0 0 0 1.31 2.168c.58.626 1.28 1.127 2.06 1.473 1.4.684 2.98.919 4.52.674 2.44-.521 4.79-1.396 6.98-2.596 1.51-.763 2.88-1.778 4.05-3.001.43-.443.76-.987.94-1.584 0 0-.44.505-1.28 1.247-1.23 1.057-2.6 1.932-4.08 2.596-2.14 1.064-4.4 1.835-6.74 2.293a6.21 6.21 0 0 1-4-.641c-1.22-.654-2.19-1.698-2.75-2.967a4.5 4.5 0 0 1-.22-2.027 4.42 4.42 0 0 1 .7-1.917c.87-.984 2.06-1.619 3.37-1.787a16.62 16.62 0 0 0 3.84-1.214c.58-.273 1.08-.688 1.46-1.207a3.77 3.77 0 0 0 .7-1.76c.01-.881-.19-1.753-.57-2.547a5.76 5.76 0 0 0-1.62-2.039l-1.39-1.045z"></path><path d="M1079.22 460.214s-.64 0-1.48.708c-.59.519-1.05 1.166-1.34 1.892a5.11 5.11 0 0 0-.35 2.288c.14 1.166.59 2.274 1.29 3.214.71.94 1.65 1.681 2.72 2.147 2.62 1.051 5.54 1.051 8.16 0a13.21 13.21 0 0 0 6.51-4.956 12.72 12.72 0 0 0 2.19-6.271c.12-1.502-.05-3.014-.5-4.451-.11-.539-.35-1.046-.68-1.483.37 1.921.49 3.881.37 5.833-.31 2.284-1.24 4.439-2.7 6.224s-3.38 3.132-5.56 3.891a10.12 10.12 0 0 1-7.35 0c-.93-.37-1.76-.973-2.4-1.752a5.9 5.9 0 0 1-1.24-2.699 4.91 4.91 0 0 1 .18-2.016 4.95 4.95 0 0 1 1-1.76c.67-.506 1.25-.708 1.18-.809zm-25.05-12.375s0-1.079-.98-2.63a11.05 11.05 0 0 0-5.5-4.484v1.012c1.17-.548 2.3-1.179 3.37-1.888a24.87 24.87 0 0 0 9.44-9.745c-3.05 3.268-6.44 6.206-10.11 8.767-1.15.708-2.26 1.348-3.37 1.888l-1.15.607 1.21.404a11.57 11.57 0 0 1 5.3 3.844c1.25 1.315 1.62 2.259 1.79 2.225zm46.89-16.115c-.2-.202-1.78 1.551-1.98 4.349-.21 2.799 1.14 4.721 1.41 4.552s-.44-2.057-.23-4.484c.2-2.428 1.11-4.215.8-4.417z"></path></g><path d="M398.046 484.152s-21.983-35.638-25.894-38.672-38.74-15.779-41.707-14.835-45.18 8.125-40.46 13.149 34.29-.438 34.29-.438l3.978 1.989s-25.456 4.046-30.817 7.148-3.371 8.867 1.45 8.395 26.737-4.754 28.052-3.844-24.04 5.968-26.771 7.553c-3.675 2.191-4.046 8.699.607 8.395 2.731-.202 26.636-6.372 26.636-6.372-7.059 2.609-13.97 5.603-20.702 8.968-2.866 2.731-.607 6.744 3.372 5.934 2.832-.606 16.218-7.013 19.994-7.822 0 0 3.371.944 6.743 8.092 1.484 3.372 8.294 24.107 20.735 23.838 11.026-.236 21.849 8.833 21.849 8.833l18.645-30.311z" class="F"></path><path d="M290.188 443.897c2.386 1.236 5.004 1.959 7.687 2.124 2.88.412 5.794.536 8.699.371 3.371-.371 6.743-.843 10.452-1.383l7.889-1.146h-.472a110.18 110.18 0 0 0 18.207 5.698 115.96 115.96 0 0 0-17.566-7.485h-.202-.27l-7.822 1.045-10.351 1.518a54.65 54.65 0 0 1-8.429 0c-4.788-.338-7.755-1.046-7.822-.742z" class="H"></path><path d="M381.559 479.937c-1.433 1.02-3.147 1.567-4.905 1.567s-3.473-.547-4.906-1.567c-3.001-1.82-5.327-4.585-8.193-6.743-8.564-6.069-20.938-4.619-29.232-11.092-1.147-.877-2.293-2.361-1.652-3.675s2.225-1.349 3.607-1.315l34.762.809" class="F"></path><path d="M371.042 458.057c-1.224-.306-2.481-.464-3.742-.472-2.428 0-5.934-.371-10.115-.54l-15.206-.607h-4.417c-.878-.166-1.78-.156-2.654.029s-1.703.542-2.437 1.05a2.97 2.97 0 0 0-.822 1.595c-.102.604-.016 1.224.248 1.777.392.884.994 1.66 1.754 2.259a23.17 23.17 0 0 0 4.349 2.663c5.885 2.14 11.912 3.863 18.038 5.159a26.53 26.53 0 0 1 7.115 3.372c2.022 1.382 3.708 3.068 5.428 4.45a12.3 12.3 0 0 0 4.517 2.763c1.689.582 3.484.79 5.261.609 2.596-.472 3.371-1.888 3.371-1.888a10.86 10.86 0 0 1-3.371 1.146c-1.642 0-3.265-.335-4.773-.985s-2.866-1.599-3.994-2.791c-1.584-1.383-3.371-3.136-5.394-4.72a26.98 26.98 0 0 0-7.519-3.642 152.94 152.94 0 0 1-17.701-5.192c-1.406-.657-2.74-1.459-3.979-2.394-1.112-.91-1.652-2.158-1.045-2.63s2.192-.573 3.675-.539h4.383 15.24 10.115a14.2 14.2 0 0 0 3.675-.472z" class="H"></path><path d="M569.396 1273.89l-7.991 88.4-26.534 68.15a9.06 9.06 0 0 0-.606 3.64 9.08 9.08 0 0 0 .895 3.59c.54 1.12 1.305 2.12 2.247 2.93a8.98 8.98 0 0 0 3.229 1.8 9.15 9.15 0 0 0 4.285.3c1.431-.25 2.783-.84 3.942-1.71 14.936-11.36 69.658-53.51 69.894-60.02.269-7.51 14.7-92.85 14.7-92.85l-64.061-14.23z" class="C"></path><path opacity=".36" d="M540.631 1442.44l78.795-67.44-.405 3.75c-.375 3.23-1.88 6.23-4.248 8.46-6.339 5.93-24.242 21.98-65.646 53.95-1.191.91-2.59 1.52-4.073 1.76s-3.003.11-4.423-.38v-.1zm63.929-97.92c-1.171.69-2.051 1.77-2.473 3.06a5.51 5.51 0 0 0 .18 3.92 5.23 5.23 0 0 0 2.917 2.48c1.249.44 2.615.38 3.826-.15 1.247-.71 2.186-1.86 2.634-3.22.448-1.37.375-2.85-.206-4.16-.786-1.19-2.003-2.03-3.392-2.33a5.5 5.5 0 0 0-4.06.67" class="B"></path><g class="I"><path d="M565.214 1406.12c-.539.21-1.989-4.65-6.979-7.75-3.082-1.64-6.444-2.7-9.913-3.1 0-.2 1.147-.78 3.372-.85 2.756.01 5.451.82 7.755 2.33 2.327 1.45 4.17 3.57 5.293 6.07.708 2.02.674 3.3.472 3.3zm-7.656 11.16c-.439.34-2.967-2.86-7.384-4.68-2.779-.86-5.605-1.56-8.463-2.09 1.453-.69 3.049-1.02 4.656-.97a10.09 10.09 0 0 1 4.582 1.27c4.957 2.06 7.114 6.31 6.609 6.47zm21.072-24.91c-3.437-2.93-7.088-5.6-10.924-7.99-6.541-3.54-12.779-3.95-12.711-4.55 4.743-.71 9.583.3 13.655 2.83 4.371 1.95 7.907 5.39 9.98 9.71zm4.689-26.7c-.303.5-4.922-2.09-11.261-3.04-6.339-.94-11.497 0-11.632-.57 3.787-1.51 7.913-1.98 11.943-1.34 4.029.63 7.812 2.34 10.95 4.95zm2.93-25.86a43.72 43.72 0 0 0-11.632-3.38c-4.065-.01-8.114.52-12.037 1.59 0-.2.944-1.18 3.136-2.13 2.853-1.19 5.954-1.68 9.036-1.41 3.088.24 6.077 1.2 8.732 2.8 2.091 1.18 3.001 2.32 2.765 2.53zm-10.824-8.4c-.171-1.13-.078-2.28.27-3.37.65-3.02 1.887-5.89 3.641-8.43 1.136-1.97 2.874-3.52 4.957-4.42.719-.22 1.489-.21 2.205.02a3.74 3.74 0 0 1 1.807 1.26c.816 1.22 1.153 2.7.944 4.15-.54 2.94-2.087 5.6-4.376 7.53a12.91 12.91 0 0 1-8.166 3.02c-2.957-.03-5.836-.95-8.273-2.62a14.99 14.99 0 0 1-5.416-6.78c-.269-.7-.387-1.44-.346-2.19a5.26 5.26 0 0 1 .582-2.13 3.63 3.63 0 0 1 1.739-1.36c.708-.26 1.479-.29 2.206-.09a12.36 12.36 0 0 1 5.462 3.68c2.194 2.18 3.976 4.73 5.259 7.55a8.34 8.34 0 0 1 1.012 3.2c-1.916-3.59-4.347-6.89-7.215-9.78a11.65 11.65 0 0 0-4.856-3.06c-.395-.12-.818-.11-1.207.03a1.93 1.93 0 0 0-.95.74 3.59 3.59 0 0 0-.293 1.42c0 .48.1.97.293 1.41 1.005 2.35 2.667 4.35 4.784 5.78 2.117 1.42 4.6 2.2 7.151 2.25a11.23 11.23 0 0 0 6.935-2.51 11.17 11.17 0 0 0 3.854-6.29 4.28 4.28 0 0 0-.539-2.9 1.94 1.94 0 0 0-.974-.73c-.395-.14-.821-.14-1.218-.01a9.15 9.15 0 0 0-4.282 3.64 34.41 34.41 0 0 0-4.99 10.99z"></path><path d="M650.784 1325.78l66.185-524.12-21.174-121.85-124.75 6.743-15.611 629.547a9.52 9.52 0 0 0 2.092 6.27c1.421 1.78 3.43 2.99 5.663 3.41l72.693 11.23c1.718.26 3.471.17 5.156-.25 1.686-.43 3.269-1.18 4.657-2.23s2.554-2.36 3.428-3.86 1.438-3.17 1.661-4.89z"></path><path d="M715.046 819.225l120.401 119.153-173.201 42.112 12.307 87.39 234.463-31.89a73.98 73.98 0 0 0 28.025-9.87c8.578-5.15 16.02-11.99 21.875-20.11a73.75 73.75 0 0 0 13.94-42.163 73.77 73.77 0 0 0-12.794-42.529L777.387 653.206l-81.593 26.602 19.252 139.417z"></path></g><g fill="#455a64"><path d="M708.402 788.913c1.961 4.814 3.364 9.837 4.181 14.97a65.62 65.62 0 0 1 2.461 15.341 71.1 71.1 0 0 1-4.18-14.97 70.22 70.22 0 0 1-2.462-15.341z"></path><path d="M690.769 991.416l2.866-.944 8.429-2.63 32.301-9.812L851.9 942.696l-.304 1.112-144.508-153.915 1.517-.472-8.901 75.188-39.751 319.431-13.487 96.63-4.518 26.13-1.45 6.74-.539 2.29s0-.81.371-2.32c.371-1.52.742-3.85 1.281-6.75 1.214-5.93 2.36-14.8 4.181-26.16l13.014-96.7 39.246-319.46 8.935-75.187.202-1.855 1.281 1.349 144.138 154.185.741.809-1.045.303-117.703 34.796-32.435 9.474-8.463 2.427c-1.821.675-2.934.675-2.934.675z"></path><path d="M651.895 1315.9c-.472 0 13.284-111.26 30.715-248.46l32.435-248.214c.472.067-13.25 111.263-30.682 248.454l-32.468 248.22zm43.626-582.448c1.208 2.603 2.134 5.327 2.765 8.126 1.484 5.057 3.372 12.171 5.058 20.061s3 15.105 3.776 20.23a39.05 39.05 0 0 1 .843 8.53c-.958-2.702-1.647-5.491-2.057-8.328l-4.282-20.23-4.518-20.23a40.47 40.47 0 0 1-1.585-8.159zm7.722-10.286s1.686-1.652 4.889-.54c.93.341 1.754.919 2.393 1.675s1.069 1.667 1.248 2.641a6.23 6.23 0 0 1-2.731 6.406c-1.065.571-2.278.809-3.48.683s-2.339-.611-3.263-1.391c-.761-.653-1.314-1.516-1.59-2.481s-.262-1.99.039-2.947a5.03 5.03 0 0 1 2.259-3.001c.776-.438 1.281-.438 1.315-.337-1.16.912-1.989 2.179-2.36 3.607a3.88 3.88 0 0 0 1.382 3.912 4.58 4.58 0 0 0 4.99.438c.734-.506 1.312-1.206 1.669-2.022a4.78 4.78 0 0 0 .354-2.597 4.54 4.54 0 0 0-.865-2.002c-.446-.588-1.029-1.058-1.697-1.37a9 9 0 0 0-4.552-.674zm167.672 235.611c-.371.371-7.148-5.866-16.859-11.463s-18.476-8.497-18.308-9.002c6.839 1.197 13.372 3.742 19.219 7.485 6.111 3.245 11.529 7.655 15.948 12.98z"></path></g><g class="C"><path d="M610.697 322.517l-69.119 33.379 29.805 207.962-11.699 93.327a36.4 36.4 0 0 0 2.091 17.518c2.122 5.58 5.584 10.552 10.08 14.479l111.635-2.192 78.087-42.853 35.908-6.069-14.7-71.04 6.743-100.778 81.694 43.595c6.293 3.37 13.623 4.248 20.534 2.461l149.664-38.875-7.79-57.722-135.603 15.341-103.273-91.236-76.873-17.297-13.622-22.623h-78.66l-5.63 4.113c-2.628 1.975-4.611 4.686-5.699 7.788l-3.573 10.722z"></path><path d="M541.581 355.895c-14.367 9.881-25.255 24.038-31.12 40.459-7.89 24.546-25.726 123.773-25.726 123.773l-78.525-48.619-45.247 47.573 104.52 92.316a53.24 53.24 0 0 0 58.296 8.058c7.921-3.821 14.772-9.543 19.944-16.655a53.28 53.28 0 0 0 9.693-24.108l12.846-94.102-24.681-128.695z"></path></g><path d="M777.386 653.206l-4.855-7.147-51.687 9.541-9.508 22.017 66.05-24.411z" class="F"></path><path d="M571.854 689.181c46.191 18.578 95.518 11.733 139.484-11.565 13.284-7.046 25.591-15.779 38.942-22.724s28.12-12.037 43.123-10.992 30.109 9.306 36.11 23.096 0 32.536-14.127 37.695l4.99 4.45c20.736-9.643 30.581-37.56 20.466-58.093-7.755-15.712-24.073-25.119-36.009-37.965-17.566-18.881-19.387-55.429-19.522-83.886" class="C"></path><path d="M673.173 362.742a21.09 21.09 0 0 1-3.372 0 13.08 13.08 0 0 0-8.193 3.776c-2.939 3.741-4.392 8.436-4.079 13.183a44.7 44.7 0 0 0 3.742 17.701l1.315 2.9-2.529-1.888a136.07 136.07 0 0 1-17.431-15.409 128.44 128.44 0 0 1-26.771-40.999 93.71 93.71 0 0 1-4.349-14.228c-.396-1.787-.655-3.602-.776-5.428a160.08 160.08 0 0 0 6.272 19.184 135.13 135.13 0 0 0 26.973 40.257c5.291 5.542 11.019 10.65 17.128 15.274l-1.248 1.045a39.98 39.98 0 0 1-2.866-9.474c-.581-2.942-.841-5.937-.775-8.935a19.89 19.89 0 0 1 4.754-13.891c2.388-2.288 5.56-3.579 8.867-3.608a14.63 14.63 0 0 1 3.338.54z" class="I"></path><path d="M677.283 362.741c5.698-2.462 14.127 1.146 18.207 5.799 2.697 3.102 4.215 7.35 7.755 9.373s14.801 3.607 18.072 1.112c0 0 1.989-9.609 3.068-13.486 3.753-15.151 6.312-30.573 7.653-46.124-10.856-5.293-7.855-12.239-27.445-10.89 2.827 8.943 3.073 18.503.708 27.58" class="C"></path><g class="I"><path d="M705.336 336.004c-.202 0 .708-2.596 1.113-7.384.448-6.758-.375-13.539-2.428-19.994l-.236-.809h.81c4.846-.632 9.771-.195 14.43 1.281a21.97 21.97 0 0 1 6.744 4.822c1.991 1.892 4.267 3.462 6.743 4.653l.539.27v.573c-.876 8.193-1.854 17.128-3.371 26.366-1.012 6.035-2.226 11.868-3.642 17.431s-2.528 10.924-3.709 15.982v.337l-.202.169c-1.763.999-3.774 1.479-5.799 1.382a35.53 35.53 0 0 1-5.395-.337 34.54 34.54 0 0 1-5.057-1.113c-1.639-.442-3.152-1.261-4.417-2.394-1.963-2.205-3.702-4.599-5.192-7.148a18.29 18.29 0 0 0-5.327-4.821c-2.902-1.875-6.258-2.924-9.711-3.035a19.47 19.47 0 0 0-3.641.54c1.105-.652 2.358-1.012 3.641-1.045a18.44 18.44 0 0 1 10.115 2.697c2.243 1.252 4.205 2.95 5.766 4.99a44.18 44.18 0 0 0 5.158 6.743 16.53 16.53 0 0 0 8.766 3.035c1.71.226 3.435.316 5.159.27 1.688.056 3.361-.328 4.855-1.113l-.303.472 3.607-16.083c1.383-5.529 2.597-11.328 3.574-17.33 1.551-9.171 2.563-18.072 3.372-26.231l.472.843a28.65 28.65 0 0 1-7.283-4.957 19.86 19.86 0 0 0-6.17-4.585 33.1 33.1 0 0 0-13.756-1.416l.573-.843a52.56 52.56 0 0 1 1.922 20.466c-.244 1.858-.627 3.695-1.146 5.495-.116.628-.309 1.24-.574 1.821zm115.175 318.247v-3.843c-.3-3.688-1.455-7.255-3.372-10.419a35.06 35.06 0 0 0-12.408-11.969c-6.833-3.634-14.387-5.707-22.117-6.069-8.564-.775-18.072-.303-28.288-1.012a106.62 106.62 0 0 1-31.896-6.743 65.81 65.81 0 0 1-28.76-21.511c-3.842-5.179-6.647-11.053-8.261-17.296-1.609-6.421-2.245-13.047-1.888-19.657.506-13.486 3.574-25.995 5.429-38.268a291.19 291.19 0 0 0 3.371-35.604 295.3 295.3 0 0 0-14.397-100.07c-1.416-4.619-2.731-8.126-3.573-10.52l-.945-2.764a4.09 4.09 0 0 1-.269-.944s.168.269.438.876.641 1.585 1.113 2.697c.944 2.361 2.36 5.833 3.911 10.453 4.472 12.941 7.987 26.194 10.519 39.65 3.708 20.008 5.324 40.347 4.822 60.689a288.53 288.53 0 0 1-3.372 35.841c-1.821 12.34-4.855 24.95-5.361 38.065-1.025 12.733 2.434 25.423 9.778 35.874 7.198 9.463 16.888 16.737 27.984 21.006 10.057 3.841 20.643 6.115 31.39 6.743 10.115.742 19.623.371 28.322 1.248a52.93 52.93 0 0 1 22.725 6.574 35.12 35.12 0 0 1 12.475 12.475 23.1 23.1 0 0 1 3.102 10.722c.047.981-.009 1.964-.169 2.933-.202.641-.27.843-.303.843z"></path><path d="M770.071 592.854a30.09 30.09 0 0 1-3.878 4.046l-4.855 4.416-6.743 5.564c-5.944 4.682-12.171 8.995-18.645 12.913-15.904 9.589-33.124 16.802-51.114 21.41-7.334 1.868-14.777 3.275-22.286 4.214-3.203.506-6.103.675-8.666.877s-4.754.337-6.574.371a32.69 32.69 0 0 1-5.597 0 38.94 38.94 0 0 1 5.563-.641c1.787 0 3.979-.303 6.507-.64s5.429-.54 8.598-1.113a209.4 209.4 0 0 0 22.05-4.586 218.67 218.67 0 0 0 26.063-8.867c8.461-3.593 16.682-7.726 24.613-12.374a209.56 209.56 0 0 0 18.746-12.475c2.596-1.854 4.822-3.742 6.743-5.327l5.024-4.181c1.396-1.307 2.883-2.513 4.451-3.607zm-21.71-110.555a6.52 6.52 0 0 1-.303 1.854l-1.18 5.26c-.584 2.783-1.327 5.529-2.226 8.227-1.011 3.169-1.989 6.743-3.574 10.722l-2.36 6.136c-.809 2.124-1.921 4.248-2.899 6.507-1.956 4.552-4.518 9.137-7.114 14.026-11.831 21.033-27.471 39.681-46.124 54.991-4.383 3.372-8.463 6.744-12.61 9.441-2.023 1.382-3.945 2.798-5.9 4.012l-5.631 3.372c-3.372 2.259-6.979 3.877-9.946 5.428a80.99 80.99 0 0 1-7.688 3.608l-4.99 2.09a10.25 10.25 0 0 1-1.787.607c.513-.377 1.067-.694 1.652-.944l4.822-2.36c2.124-.978 4.686-2.225 7.552-3.877s6.272-3.372 9.744-5.597l5.53-3.372c1.922-1.214 3.81-2.664 5.833-4.046 4.046-2.731 8.058-6.069 12.374-9.508a220.09 220.09 0 0 0 25.32-25.22c7.581-9.206 14.413-19.004 20.433-29.299 2.629-4.855 5.226-9.373 7.181-13.858 1.045-2.225 2.124-4.349 3.001-6.439l2.427-6.069c1.686-3.81 2.731-7.418 3.81-10.554s1.922-5.866 2.529-8.125l1.484-5.159c.122-.646.337-1.271.64-1.854zM606.174 706.107a20.23 20.23 0 0 1-6.17-4.585 46.63 46.63 0 0 1-10.423-15.316c-2.415-5.751-3.652-11.927-3.637-18.165a21.1 21.1 0 0 1 1.012-7.586c.303 0 0 2.933.236 7.553a52.83 52.83 0 0 0 13.722 32.671c3.136 3.405 5.563 5.192 5.26 5.428zm-2.462-26.265c.506 0-.438 4.484 0 9.778s2.091 9.44 1.619 9.676c-1.895-2.84-3.04-6.113-3.329-9.515a20.23 20.23 0 0 1 1.676-9.939h.034zm-33.278-120.704a5.4 5.4 0 0 1-.405-1.585l-.843-4.585-2.832-16.858-9.778-55.632-10.789-55.497-3.371-16.858-.877-4.552a5.07 5.07 0 0 1-.202-1.652c.245.492.427 1.013.539 1.551l1.18 4.518c1.012 3.911 2.394 9.609 4.012 16.656 3.372 14.093 7.384 33.716 11.464 55.362s7.182 41.471 9.238 55.767l2.293 16.858.506 4.653a5.41 5.41 0 0 1-.135 1.854zm215.787-.001c-.105-.545-.162-1.097-.168-1.652v-4.788-17.633c0-14.869.809-35.403 2.528-58.026s3.979-43.056 5.732-57.824l2.225-17.465.708-4.754a7.92 7.92 0 0 1 .338-1.618c.089.558.089 1.127 0 1.686 0 1.281-.236 2.866-.371 4.754l-1.652 17.532-5.226 57.824c-1.855 22.623-2.563 43.089-3.035 57.924l-.506 17.6-.168 4.788a5.42 5.42 0 0 1-.405 1.652zm-269.591 8.699c-.573.236-5.024-12.036-13.487-25.388s-18.712-21.747-18.274-22.185c2.487 1.464 4.756 3.268 6.743 5.361 4.958 4.777 9.369 10.092 13.15 15.846a109.69 109.69 0 0 1 9.44 18.275c1.143 2.585 1.958 5.304 2.428 8.091zm5.8-14.733a64.42 64.42 0 0 1-3.777-6.743c-3.086-5.132-7.032-9.694-11.665-13.487a73.85 73.85 0 0 0-15.409-9.407c-2.339-.93-4.595-2.058-6.743-3.371 2.53.361 4.995 1.088 7.316 2.158 5.8 2.205 11.217 5.312 16.049 9.204a45.31 45.31 0 0 1 11.632 14.397c1.286 2.245 2.164 4.699 2.597 7.249z"></path></g><path d="M796.537 606.341c-.829 2.821-2.216 5.447-4.08 7.721-2.663 4.012-5.125 7.047-5.529 6.743.829-2.821 2.216-5.446 4.079-7.721 2.664-3.978 5.125-7.013 5.53-6.743zm42.823 48.248c-.27 0-.742-1.181-1.922-2.934-1.532-2.254-3.572-4.118-5.955-5.442a17.44 17.44 0 0 0-7.768-2.178h-3.371c0-.168 1.18-.91 3.371-1.146 3.012-.237 6.026.421 8.665 1.891a15.34 15.34 0 0 1 6.171 6.369c.944 1.956 1.011 3.406.809 3.44zm-139.281-17.196c0 .236-4.046 2.292-10.553 6.035a91.21 91.21 0 0 0-22.927 17.701c-6.523 7.189-10.76 16.155-12.171 25.759a60.83 60.83 0 0 0 .202 12.037 10.08 10.08 0 0 1-.944-3.17 30.5 30.5 0 0 1-.472-8.968c1.068-9.992 5.296-19.382 12.07-26.805 6.746-7.254 14.74-13.238 23.602-17.667 3.371-1.719 6.136-3.001 8.058-3.843a10.6 10.6 0 0 1 3.135-1.079z" fill="#fafafa"></path><path opacity=".09" d="M650.887 648.485c-3.372 1.382-2.934 6.507-.236 8.732 2.989 1.945 6.592 2.713 10.115 2.158 19.827-1.114 39.137-6.749 56.453-16.473a130.21 130.21 0 0 0 43.448-39.631c-30.345 24.984-70.467 34.458-108.937 43.157m-6.878-32.331c-3.372-5.091-1.079-12.239 3.371-16.555a56.6 56.6 0 0 1 15.577-9.272c20.004-9.934 36.032-26.378 45.45-46.629 6.136-13.285 10.755-29.57 24.343-35.032-3.785 23.446-13.84 45.432-29.1 63.63a131.7 131.7 0 0 1-57.585 39.745m-97.747-170.707a342.16 342.16 0 0 1-7.754 110.185c-2.228 7.554-3.486 15.36-3.743 23.231.278 4.207 1.414 8.314 3.339 12.065a30.89 30.89 0 0 0 7.855 9.749c5.597-12.913 5.698-25.355 8.058-39.246 2.124-12.508 5.698-41.74 5.698-42.179.506-25.557-5.529-47.472-15.375-70.5m65.445-113.994c5.051 27.229 18.38 52.237 38.166 71.613 7.452 7.249 16.859 13.959 27.142 13.487a63.52 63.52 0 0 1-5.226-39.718c8.753 5.917 18.057 10.975 27.782 15.105a55.13 55.13 0 0 0 31.019 3.372l6.406-55.734c.461-2.099.26-4.29-.573-6.271a3.61 3.61 0 0 0-.983-1.205c-.412-.326-.889-.558-1.4-.68s-1.041-.131-1.556-.027-.999.32-1.422.631a5.37 5.37 0 0 0-1.045 2.461c-3.776 16.353-5.9 31.019-9.71 47.405-2.731 2.698-11.127 1.585-16.656-.472-4.822-1.787-6.743-5.765-9.845-9.777s-2.63-3.372-7.35-5.328c-8.699-3.675-25.389-.741-29.03 7.047s-.877 18.072 1.551 25.759a116.82 116.82 0 0 1-49.192-68.241m185.775 79.67c-.674 1.348 21.006 74.445 21.006 74.445l-28.086-16.015 7.08-58.43z" fill="#000"></path><path d="M622.027 195.709v116.355a28.15 28.15 0 0 0 6.743 18.173 84.55 84.55 0 0 0 23.399 19.353l23.601 13.25 19.421-17.363a28.29 28.29 0 0 0 6.723-9.01c1.616-3.423 2.529-7.135 2.684-10.917.337-8.496.303-16.858.303-16.858s32.907-2.36 36.009-34.795c1.45-15.307 1.922-46.596 1.99-75.424.134-15.978-5.798-31.413-16.599-43.19a63.12 63.12 0 0 0-41.596-20.264h-.91c-8.074-.194-16.104 1.235-23.615 4.203s-14.35 7.413-20.11 13.073-10.326 12.419-13.426 19.876a60.33 60.33 0 0 0-4.617 23.538z" class="F"></path><path d="M704.626 308.423a78.72 78.72 0 0 1-41.235-16.015s8.496 24.613 41.167 24.377l.068-8.362z" class="H"></path><path d="M733.018 219.076c-.087 1.21-.643 2.339-1.55 3.145s-2.093 1.226-3.305 1.17c-.593-.004-1.179-.127-1.724-.361a4.46 4.46 0 0 1-1.45-1.001 4.48 4.48 0 0 1-.947-1.486 4.46 4.46 0 0 1-.296-1.737c.087-1.21.643-2.339 1.55-3.145a4.65 4.65 0 0 1 3.305-1.171 4.41 4.41 0 0 1 1.73.352c.548.232 1.042.573 1.455 1.001a4.42 4.42 0 0 1 .946 1.491c.211.555.309 1.148.286 1.742zm1.316-7.757c-.607.539-3.911-2.36-8.901-2.765s-8.867 1.821-9.339 1.146.404-1.315 2.124-2.36c2.277-1.31 4.902-1.887 7.518-1.652a12.2 12.2 0 0 1 7.047 2.933c1.45 1.315 1.821 2.428 1.551 2.698zm-48.386 5.397c-.087 1.21-.643 2.339-1.55 3.145a4.65 4.65 0 0 1-3.306 1.171 4.49 4.49 0 0 1-1.729-.361c-.547-.234-1.042-.574-1.456-1a4.49 4.49 0 0 1-.956-1.485c-.218-.554-.323-1.145-.309-1.74.095-1.207.653-2.331 1.558-3.135a4.68 4.68 0 0 1 3.297-1.18 4.44 4.44 0 0 1 1.735.351 4.46 4.46 0 0 1 1.461.999 4.45 4.45 0 0 1 .955 1.49c.216.556.318 1.149.3 1.745zm-.741-8.531c-.64.54-3.944-2.326-8.934-2.731s-8.834 1.787-9.34 1.113.439-1.315 2.124-2.36a12.98 12.98 0 0 1 7.553-1.753c2.599.213 5.064 1.239 7.046 2.933 1.417 1.416 1.855 2.529 1.551 2.798zm15.039 38.505c2.696-.621 5.461-.893 8.227-.809 1.281 0 2.529 0 2.798-1.012.22-1.306.032-2.648-.539-3.843l-2.967-10.115c-4.08-14.262-6.743-25.928-6.339-26.097s4.35 11.262 8.429 25.524l2.799 10.114c.686 1.601.782 3.393.27 5.058a3.38 3.38 0 0 1-.945 1.09c-.39.291-.839.494-1.315.596a8.46 8.46 0 0 1-2.191 0 34.79 34.79 0 0 1-8.227-.506zm-14.973 2.225c.809 0 .371 5.462 4.687 9.676s10.114 4.114 10.114 4.855-1.348.978-3.809.843a13.48 13.48 0 0 1-8.463-3.776 11.76 11.76 0 0 1-3.574-8.092c-.034-2.259.674-3.574 1.045-3.506zm2.832-60.186c-.607 1.315-5.53.27-11.43.472s-10.789 1.416-11.464 0c-.303-.607.607-1.821 2.63-2.967 2.683-1.405 5.651-2.178 8.678-2.26s6.033.53 8.787 1.788c2.091 1.18 3.068 2.326 2.799 2.967zm45.585 7.993c-.978 1.045-4.315-.405-8.429-.81s-7.687 0-8.395-1.112c-.337-.607.337-1.72 1.955-2.664 2.152-1.097 4.579-1.535 6.978-1.259s4.663 1.254 6.509 2.81c1.45 1.281 1.821 2.495 1.382 3.035zm-73.466-33.819h-.202a25.62 25.62 0 0 0-10.856 15.947v.675c-2.057 9.137-2.597 18.577-4.721 27.715s-1.719 16.116-10.89 18.173a12.14 12.14 0 0 1-7.173-.601c-2.276-.921-4.218-2.51-5.572-4.558a8.3 8.3 0 0 1-.843-4.316c0-22.522-4.383-31.255-2.427-54.62.252-3.133 1.246-6.161 2.899-8.834s3.919-4.915 6.609-6.541c5.192-3.102 11.463-6.271 16.858-3.371s11.463 13.79 15.307 18.476" class="I"></path><path d="M631.738 211.185c-.505-.27-21.747-8.429-22.893 13.824s21.477 18.813 21.545 18.173 1.348-31.997 1.348-31.997z" class="F"></path><path d="M624.01 234.381s-.405.27-1.079.54c-.459.191-.952.289-1.45.289a3.78 3.78 0 0 1-1.45-.289 9.57 9.57 0 0 1-3.216-3.886c-.706-1.56-.981-3.28-.796-4.982a12.46 12.46 0 0 1 1.383-5.495 4.47 4.47 0 0 1 1.184-1.795c.534-.494 1.181-.85 1.884-1.037a1.98 1.98 0 0 1 1.323.193 1.99 1.99 0 0 1 .902.987c.27.64 0 1.079.202 1.112s.506-.337.371-1.247a2.36 2.36 0 0 0-.809-1.45c-.284-.249-.616-.438-.975-.554s-.739-.157-1.115-.12c-.942.14-1.83.525-2.576 1.117a5.44 5.44 0 0 0-1.673 2.254c-1.031 1.885-1.598 3.989-1.652 6.137a10.12 10.12 0 0 0 1.086 5.733c.918 1.763 2.334 3.216 4.073 4.179a4.25 4.25 0 0 0 1.832.195c.617-.07 1.212-.275 1.742-.599.742-.742.876-1.214.809-1.282z" class="H"></path><path d="M642.622 145.944c-4.754-9.339 11.295-20.836 22.522-23.399s25.254 4.013 35.875 8.531c6.743 2.832 13.284 6.743 20.533 6.743a49.71 49.71 0 0 0 14.363-2.394 36.51 36.51 0 0 1 14.464-1.652 13.48 13.48 0 0 1 6.798 2.689c1.975 1.505 3.497 3.527 4.396 5.841.37 1.158.484 2.382.335 3.588a8.39 8.39 0 0 1-1.2 3.397c-.641 1.032-1.499 1.913-2.514 2.582s-2.162 1.108-3.364 1.29a10.95 10.95 0 0 1 5.158-.933c1.769.111 3.485.649 5 1.569s2.785 2.194 3.7 3.713 1.448 3.236 1.553 5.006-.221 3.538-.95 5.154-1.839 3.031-3.235 4.124-3.037 1.83-4.781 2.149a10.96 10.96 0 0 1-5.231-.316c3.371-2.158 7.889 2.191 7.148 6.102-.585 1.902-1.654 3.62-3.102 4.985a11.51 11.51 0 0 1-5.159 2.804c-9.609 3.371-20.23 1.112-29.603-2.9s-17.802-9.778-26.973-14.026-24.613-11.801-34.424-9.204c-7.249 1.888-12.812 9.946-16.622 7.721-1.779-1.143-3.263-2.687-4.335-4.508a13.48 13.48 0 0 1-1.836-5.978 39.19 39.19 0 0 1 1.484-12.61" class="I"></path><path d="M757.63 152.788c-.169 0-1.281 1.517-3.878 3.911-3.705 3.344-8.174 5.728-13.014 6.945a28.16 28.16 0 0 1-21.107-2.629c-7.249-3.979-13.149-11.295-20.061-18.308a46.32 46.32 0 0 0-23.972-14.026c-3.838-.801-7.808-.713-11.607.257a25.68 25.68 0 0 0-10.309 5.34c-1.926 1.777-3.469 3.929-4.536 6.323a19.27 19.27 0 0 0-1.667 7.601 14.25 14.25 0 0 0 .606 4.148c.126.48.331.936.607 1.348a33.61 33.61 0 0 1-.371-5.462c.384-4.942 2.683-9.54 6.407-12.812 2.835-2.266 6.142-3.868 9.677-4.691a24.34 24.34 0 0 1 10.755-.063 44.95 44.95 0 0 1 22.792 13.486c6.743 6.744 12.846 14.33 20.634 18.511 5.748 3.028 12.315 4.131 18.736 3.148s12.358-4.001 16.936-8.61c.976-1.043 1.856-2.172 2.63-3.372.573-.573.809-1.011.742-1.045zm-131.464 56.98s1.012-.54 1.99-2.226c1.319-2.436 1.937-5.19 1.787-7.957 0-7.215-5.597-15.408-5.597-25.354a22.52 22.52 0 0 1 3.574-13.049c2.164-3.08 5.298-5.347 8.901-6.439a14.63 14.63 0 0 1 7.485-.405c1.787.438 2.697.944 2.798.775s-.741-.876-2.528-1.584c-2.628-.918-5.471-1.024-8.16-.304-4.051 1.007-7.627 3.391-10.115 6.744-2.869 4.188-4.311 9.189-4.113 14.262a40.83 40.83 0 0 0 3.136 14.329c1.519 3.533 2.562 7.252 3.101 11.059.304 3.534-.485 7.077-2.259 10.149z" fill="#455a64"></path><g class="C"><path d="M717.743 852.774h-5.024l-14.7.203c-12.947.202-32.031.708-56.576 1.888s-54.553 3.371-89.247 7.417c-17.297 2.091-35.841 4.451-55.362 7.688s-40.089 7.013-61.499 11.902-43.831 10.688-66.488 18.139c-23.74 7.523-46.805 17.031-68.95 28.423-11.615 6.06-22.672 13.134-33.042 21.14-10.802 8.051-19.959 18.101-26.973 29.603-.843 1.483-1.72 2.933-2.495 4.45l-1.888 4.754-.978 2.394c-.27.809-.405 1.652-.641 2.495l-1.18 4.99a50.02 50.02 0 0 0 1.012 20.6c3.371 13.66 12.306 25.42 22.657 35.34 21.106 19.85 48.046 33.71 75.996 45.24a625.76 625.76 0 0 0 88.573 28.02 1165.52 1165.52 0 0 0 193.296 28.46c65.103 4.4 130.419 4.65 195.554.77a1232.08 1232.08 0 0 0 180.585-23.6c27.677-5.84 55.007-13.21 81.867-22.08 25.38-8.21 49.9-18.89 73.19-31.9 10.95-6.34 21.28-13.68 30.85-21.95 9.31-7.86 16.91-17.54 22.32-28.45l1.69-4.12a23.39 23.39 0 0 0 1.42-4.18l1.01-4.25c.17-.7.4-1.41.5-2.12v-2.19a42.29 42.29 0 0 0-1.28-16.86c-1.64-5.379-4.04-10.498-7.11-15.206-3.09-4.588-6.59-8.887-10.45-12.846a157.11 157.11 0 0 0-24.68-20.23c-8.41-5.71-17.14-10.912-26.17-15.577a449.21 449.21 0 0 0-50.98-22.725c-27.97-10.424-56.52-19.227-85.501-26.366-23.838-5.934-42.55-9.71-55.261-12.138l-14.465-2.697-4.956-.944s6.743.978 19.488 3.372 31.457 5.967 55.362 11.834a758.58 758.58 0 0 1 85.673 26.096 450.51 450.51 0 0 1 51.18 22.624c9.07 4.683 17.85 9.896 26.3 15.611 8.98 5.958 17.33 12.816 24.92 20.466a94.26 94.26 0 0 1 10.58 12.98 60.59 60.59 0 0 1 7.39 15.544c1.63 5.692 2.09 11.652 1.35 17.532l-.17 2.23c0 .74-.34 1.45-.51 2.19l-1.04 4.35a23.97 23.97 0 0 1-1.45 4.28l-1.69 4.21c-5.49 11.09-13.19 20.93-22.62 28.93a202.36 202.36 0 0 1-31.09 22.19 407.26 407.26 0 0 1-73.37 32.09c-26.9 8.94-54.29 16.35-82.027 22.22a1231.16 1231.16 0 0 1-180.821 23.61c-65.213 3.91-130.609 3.66-195.79-.75-65.22-4.07-129.981-13.63-193.599-28.55a624.55 624.55 0 0 1-88.809-28.12c-28.019-11.67-55.093-25.53-76.469-45.62-10.486-10.12-19.69-22.05-23.096-36.15a51.77 51.77 0 0 1-1.011-21.203l1.248-5.159c.202-.877.37-1.719.64-2.562l.978-2.462 1.989-4.855c.776-1.551 1.686-3.068 2.529-4.585a106.94 106.94 0 0 1 27.479-30.008c10.464-8.037 21.61-15.144 33.311-21.241 22.219-11.41 45.363-20.919 69.186-28.423 22.86-7.418 45.18-13.217 66.624-18.072s42.078-8.699 61.633-11.767a1420.59 1420.59 0 0 1 55.43-7.586c34.727-3.877 64.769-5.934 89.314-7.114a1384.5 1384.5 0 0 1 56.61-1.585h19.724v-.034z"></path><path d="M442.217 597.305l-5.665 1.18-16.655 3.372c-14.633 3.034-36.178 7.721-63.522 15.206-33.249 8.888-65.741 20.399-97.17 34.424-9.137 4.181-18.511 8.8-27.85 14.094a265.34 265.34 0 0 0-27.951 17.937c-9.453 6.877-18.105 14.794-25.793 23.601a81.44 81.44 0 0 0-17.499 32.098c-3.248 12.541-2.265 25.804 2.799 37.729a96.97 96.97 0 0 0 23.332 32.671c19.96 19.117 45.281 33.716 72.22 46.09 54.317 24.68 116.321 41.235 182.068 53.575a1522.62 1522.62 0 0 0 209.041 23.062 1802.83 1802.83 0 0 0 225.899-4.012c77.076-6.44 152.099-17.769 222.699-36.313 34.68-8.855 68.6-20.491 101.42-34.795a349.99 349.99 0 0 0 45.48-24.276c14.38-8.932 27.38-19.903 38.6-32.57 10.76-12.576 18.68-27.984 19.16-44.235a45.06 45.06 0 0 0-.21-6.036 42.7 42.7 0 0 0-.64-5.967l-1.31-5.867c-.51-1.93-1.15-3.823-1.92-5.664-2.88-7.392-6.78-14.347-11.57-20.668-9.79-12.155-21.32-22.8-34.22-31.593-12.48-8.566-25.56-16.218-39.15-22.893-25.87-12.546-52.67-23.064-80.17-31.457-26.44-8.261-52.2-14.836-76.94-20.23a1481.66 1481.66 0 0 0-238.074-30.345c-28.322-1.45-50.373-1.517-65.309-1.888l-16.858-.371-5.766-.202h5.766l16.858.202c14.936.27 37.088.203 65.342 1.585 80.118 3.41 159.822 13.39 238.311 29.839 24.78 5.462 50.57 11.969 77.07 20.23 27.59 8.379 54.47 18.909 80.42 31.491a311.33 311.33 0 0 1 39.38 22.724c13.01 8.872 24.66 19.607 34.55 31.862 4.9 6.44 8.87 13.533 11.81 21.073.8 1.879 1.45 3.818 1.95 5.799l1.38 6.002c.37 2.026.58 4.077.64 6.136.23 2.048.31 4.11.24 6.17-.33 8.357-2.32 16.564-5.87 24.141-3.48 7.632-8.02 14.737-13.48 21.106-11.32 12.809-24.45 23.895-38.98 32.908-14.7 9.348-30.08 17.575-46.02 24.612a671 671 0 0 1-101.66 34.964c-70.8 18.578-145.819 29.94-222.996 36.38-75.142 6.057-150.591 7.385-225.899 3.979-70.131-2.905-139.977-10.644-209.041-23.163-65.916-12.442-128.122-29.064-182.473-53.947-26.973-12.576-52.429-27.141-72.558-46.494-10.083-9.276-18.121-20.553-23.601-33.11-5.14-12.203-6.111-25.76-2.765-38.571 3.373-12.045 9.45-23.161 17.769-32.503a155.96 155.96 0 0 1 26.062-23.871c8.975-6.565 18.355-12.556 28.086-17.937 9.373-5.293 18.78-9.912 27.951-14.093 31.553-13.964 64.17-25.385 97.541-34.155a974.62 974.62 0 0 1 63.657-14.903l22.084-4.113zm118.214 508.745l-16.858 2.66c-11.025 1.76-27.243 4.56-47.978 9.07-25.139 5.43-49.913 12.42-74.176 20.94-15.146 5.39-29.904 11.81-44.169 19.22-7.771 4.04-15.251 8.61-22.387 13.69a115.8 115.8 0 0 0-20.601 18.34c-3.131 3.61-5.867 7.54-8.159 11.73a46.88 46.88 0 0 0-5.024 13.49c-.169 1.21-.472 2.43-.573 3.68l-.236 3.7c0 2.47.337 4.96.539 7.46.521 2.47 1.174 4.91 1.956 7.31l1.416 3.54.708 1.79.944 1.65a83.13 83.13 0 0 0 20.23 23.84 166.09 166.09 0 0 0 27.175 18.24 361.09 361.09 0 0 0 63.555 26.53c23.246 7.36 46.884 13.4 70.805 18.11a1051.17 1051.17 0 0 0 155.971 18.65c56.197 2.77 112.516 1.79 168.582-2.94 57.587-4.99 113.624-13.79 166.12-28.62 25.809-7.09 50.869-16.65 74.849-28.53 11.54-5.86 22.44-12.9 32.54-21 2.56-1.92 4.75-4.28 7.11-6.41 2.36-2.12 4.28-4.65 6.44-6.94a61.42 61.42 0 0 0 9.58-16.02 42.89 42.89 0 0 0 3.11-17.95 42.81 42.81 0 0 0-4.6-17.62c-5.75-10.52-13.65-19.71-23.19-26.97-18.58-14.77-39.69-24.72-60.29-32.98-20.01-7.84-40.49-14.4-61.328-19.65-20.028-5.16-39.482-9.24-58.127-12.51-59.05-10.09-118.797-15.56-178.697-16.36l-65.848-.33h65.848c59.894.64 119.644 6 178.697 16.01 18.712 3.37 38.167 7.32 58.228 12.48 20.947 5.28 41.527 11.89 61.637 19.79 20.63 8.26 41.8 18.21 60.52 33.07 9.7 7.36 17.74 16.67 23.6 27.35a43.89 43.89 0 0 1 4.7 17.99 44.01 44.01 0 0 1-3.18 18.32c-2.4 5.89-5.67 11.38-9.71 16.29-2.2 2.32-4.19 4.85-6.55 7.04s-4.55 4.52-7.14 6.44a188.88 188.88 0 0 1-32.74 21.18c-24.04 11.92-49.16 21.5-75.021 28.62a899.62 899.62 0 0 1-166.289 28.66 1266.03 1266.03 0 0 1-168.783 2.93c-52.417-2.35-104.585-8.61-156.073-18.71-23.919-4.76-47.557-10.84-70.804-18.21a357.79 357.79 0 0 1-63.724-26.63c-9.67-5.22-18.805-11.38-27.277-18.38a83.42 83.42 0 0 1-20.432-24.1l-.978-1.69-.708-1.82-1.449-3.57c-.911-2.43-1.282-4.99-1.956-7.46-.674-2.46-.539-5.09-.539-7.62l.236-3.77c0-1.25.404-2.46.606-3.71a47.25 47.25 0 0 1 5.092-13.86c2.326-4.22 5.095-8.19 8.26-11.83 6.147-6.96 13.109-13.15 20.736-18.45a194.02 194.02 0 0 1 22.522-13.72c14.17-7.42 28.838-13.85 43.899-19.25a608.94 608.94 0 0 1 74.412-20.8c20.735-4.45 37.088-7.18 48.012-8.87l16.959-2.53z"></path><path d="M1000.7 1414.46c-.18-4.24-1.131-8.41-2.803-12.31-3.136-7.72-11.531-17.33-24.714-26.03-26.468-17.43-70.805-32.06-126.504-41.03a766.34 766.34 0 0 0-91.843-9 884.91 884.91 0 0 0-106.038 1.95c-18.645 1.45-37.695 3.61-57.014 6.74-19.725 3.04-39.265 7.17-58.532 12.38-9.811 2.63-19.623 5.7-29.299 9.24a234.93 234.93 0 0 0-28.625 12.47c-9.422 4.78-18.146 10.83-25.928 17.97-7.654 7.15-13.891 16.86-14.06 27.65s6.372 20.5 14.026 27.68a115.62 115.62 0 0 0 25.624 17.9 231.15 231.15 0 0 0 28.626 12.48c9.676 3.57 19.488 6.74 29.299 9.27 19.278 5.21 38.83 9.34 58.565 12.37 19.32 3.07 38.37 5.23 57.015 6.75a877.2 877.2 0 0 0 106.071 1.95c30.86-1.18 61.62-4.22 92.113-9.1 55.767-8.97 100.036-23.6 126.537-41.03 13.183-8.7 21.545-18.31 24.681-26.03 1.67-3.89 2.623-8.05 2.803-12.27 0 .5 0 1.34-.24 3.2-.08 1.33-.32 2.64-.709 3.91a24.81 24.81 0 0 1-1.753 5.19c-3.102 7.79-11.464 17.47-24.647 26.23-26.501 17.54-70.804 32.27-126.604 41.31-30.474 4.86-61.21 7.9-92.046 9.1-35.386 1.49-70.829.86-106.139-1.89-18.645-1.48-37.695-3.61-57.048-6.74a532.67 532.67 0 0 1-58.633-12.34c-9.845-2.63-19.656-5.7-29.366-9.27-9.839-3.54-19.435-7.72-28.727-12.51-9.475-4.82-18.254-10.9-26.096-18.07a52.39 52.39 0 0 1-9.913-12.65 30.34 30.34 0 0 1 0-31.08c2.701-4.71 6.113-8.96 10.115-12.61 7.842-7.18 16.621-13.26 26.096-18.08 9.284-4.78 18.868-8.96 28.693-12.51 9.744-3.57 19.556-6.74 29.401-9.27 19.29-5.19 38.853-9.31 58.599-12.34 19.353-3.07 38.402-5.22 57.048-6.74 35.309-2.77 70.753-3.4 106.139-1.89 30.836 1.17 61.573 4.2 92.045 9.07 55.767 9.04 100.104 23.77 126.605 41.3 13.183 8.77 21.545 18.45 24.646 26.23.77 1.67 1.358 3.41 1.754 5.2a16.73 16.73 0 0 1 .71 3.91c-.04 1.95.03 2.83.07 3.34zM255.831 891.515c-.006 2.126-.643 4.202-1.829 5.966a10.76 10.76 0 0 1-11.045 4.545c-2.084-.419-3.998-1.446-5.498-2.951a10.76 10.76 0 0 1-2.934-5.508 10.75 10.75 0 0 1 .617-6.21c.815-1.963 2.194-3.641 3.962-4.821a10.76 10.76 0 0 1 5.972-1.81c1.415 0 2.816.279 4.123.822a10.75 10.75 0 0 1 3.494 2.34c.999 1.003 1.791 2.192 2.329 3.501s.814 2.711.809 4.126zm962.669 18.039c5.94 0 10.76-4.815 10.76-10.756a10.76 10.76 0 0 0-10.76-10.755c-5.94 0-10.75 4.815-10.75 10.755s4.81 10.756 10.75 10.756zM790.237 1295.44a10.79 10.79 0 0 1-1.805 6 10.78 10.78 0 0 1-4.84 3.99c-1.973.82-4.145 1.04-6.241.62-2.096-.41-4.022-1.44-5.533-2.95a10.8 10.8 0 0 1-2.954-5.53 10.82 10.82 0 0 1 .622-6.25c.821-1.97 2.209-3.65 3.988-4.84 1.78-1.18 3.87-1.81 6.007-1.8a10.74 10.74 0 0 1 7.605 3.15 10.76 10.76 0 0 1 3.151 7.61zm-326.881-276.61c0 1.07-.317 2.11-.91 3a5.43 5.43 0 0 1-2.421 1.98c-.985.41-2.07.52-3.116.31a5.38 5.38 0 0 1-2.763-1.48 5.36 5.36 0 0 1-1.476-2.76 5.41 5.41 0 0 1 .307-3.12 5.46 5.46 0 0 1 1.987-2.42c.887-.59 1.93-.91 2.997-.91 1.431 0 2.803.57 3.815 1.58 1.011 1.02 1.58 2.39 1.58 3.82zm669.304 130.41a5.46 5.46 0 0 1-.91 3.01c-.59.88-1.44 1.57-2.43 1.98-.98.41-2.07.51-3.12.3a5.45 5.45 0 0 1-2.76-1.48c-.75-.76-1.26-1.73-1.47-2.77-.2-1.05-.09-2.14.32-3.12.42-.99 1.11-1.83 2.01-2.42a5.33 5.33 0 0 1 3-.89c1.43.01 2.79.58 3.79 1.59 1.01 1.01 1.57 2.38 1.57 3.8zm-425.027 248.93c0 1.07-.317 2.11-.911 3a5.41 5.41 0 0 1-2.427 1.99c-.988.4-2.074.51-3.122.3a5.38 5.38 0 0 1-2.761-1.49 5.4 5.4 0 0 1-1.469-2.77c-.204-1.05-.092-2.13.321-3.12a5.42 5.42 0 0 1 2.002-2.41c.891-.59 1.938-.9 3.006-.89 1.425 0 2.789.58 3.793 1.59s1.568 2.38 1.568 3.8zM426.844 458.598a2.7 2.7 0 0 0 2.697-2.698 2.7 2.7 0 0 0-2.697-2.697 2.7 2.7 0 0 0-2.698 2.697 2.7 2.7 0 0 0 2.698 2.698z"></path></g><g filter="url(#A)" class="B"><path d="M596.916 608.537h25.062v21.693h-25.062z"></path></g><use xlink:href="#M" class="C"></use><use xlink:href="#M" class="B G"></use><path d="M891.86 831.767a3.39 3.39 0 0 1-.843.404l-2.462 1.045c-2.191.877-5.36 2.293-9.575 3.81a361.66 361.66 0 0 1-36.178 11.329 472.94 472.94 0 0 1-124.008 14.161 724.17 724.17 0 0 1-124.278-13.284c-15.746-3.001-28.39-5.766-37.088-7.789l-10.115-2.394-2.596-.674c-.574-.169-.877-.27-.843-.303h.91l2.63.505 10.115 2.057 37.088 7.215a762.94 762.94 0 0 0 124.076 12.779c41.641.792 83.213-3.74 123.705-13.487 15.476-3.911 27.816-7.822 36.245-10.823 4.248-1.382 7.451-2.697 9.676-3.371l2.529-.877a2.52 2.52 0 0 1 1.012-.303z" class="C"></path><path d="M699.777 841.985a85.6 85.6 0 0 1-50.304-1.685v-89.349c16.598-3.371 33.706-3.371 50.304 0v91.034z" class="B"></path><path d="M781.03 836.691a3.49 3.49 0 0 1 0-.708v-1.922l-.236-7.485c0-6.575-.304-15.982-.54-27.749l-1.416-95.349.674.809c-17.201-3.357-34.89-3.357-52.091 0l.708-.843v1.753l1.382 134.562-.506-.607c7.219 1.57 14.566 2.473 21.95 2.697a82.42 82.42 0 0 0 16.554-1.382c3.428-.659 6.807-1.549 10.115-2.664l2.529-.876c.301-.133.619-.223.944-.27l-.809.371-2.563 1.113c-3.293 1.248-6.673 2.251-10.114 3a79.03 79.03 0 0 1-16.69 1.652 115.2 115.2 0 0 1-22.185-2.427h-.472v-.674l-1.922-134.529v-2.528h.742c17.408-3.443 35.323-3.443 52.732 0l.674.168v.675l.742 95.788v27.613 7.317 1.888c0 .506-.169.607-.202.607z" class="C"></path><path d="M858.379 826.205c-13.486 7.283-31.187 8.261-50.338 7.148v-147.61a107.63 107.63 0 0 1 50.338 0v140.462z" class="B"></path><g class="C"><path d="M619.967 834.702l-.169-3.81c-.168-2.428 0-6.035-.202-10.317l-.371-36.212.472.708a112.48 112.48 0 0 0-48.45-8.058l.809-.876v50.338l-.438-.674c6.256 2.535 12.767 4.388 19.42 5.529 5.968 1.079 11.194 1.686 15.544 2.124l10.115.843a31.5 31.5 0 0 1 3.573.405c-1.19.08-2.384.08-3.573 0-2.361 0-5.766 0-10.115-.439s-9.643-.809-15.645-1.787a90.23 90.23 0 0 1-19.825-5.36l-.438-.203v-.505-50.339-.809h.876c16.81-.942 33.615 1.928 49.159 8.395l.505.169v.539l-.404 36.717c0 4.215 0 7.587-.202 10.115-.11 1.186-.325 2.359-.641 3.507zm23.605-130.582a50.62 50.62 0 0 1-9.845.607c-6.103 0-14.532 0-23.804-.573s-17.634-1.416-23.601-2.226a49.8 49.8 0 0 1-9.711-1.753c3.28-.081 6.561.1 9.812.54l23.601 1.685 23.602 1.079a65.52 65.52 0 0 1 9.946.641zm-7.518 10.991a43.37 43.37 0 0 1-8.631 0l-20.803-1.349-20.769-1.854c-2.88-.138-5.738-.568-8.531-1.282a43.38 43.38 0 0 1 8.632 0c5.361.27 12.677.742 20.803 1.349l20.735 1.854c2.89.145 5.758.575 8.564 1.282zm18.411 14.396v-3.135l.337-8.699 1.483-31.525.641.708c-31.132.284-62.25-1.45-93.158-5.192l.978-.809v1.348 1.416l-.169 2.833c0 1.888-.202 3.776-.337 5.63l-.641 11.025-1.247 20.972-.708-.877c26.973 3.372 50.203 4.721 66.691 5.361l19.319.573 5.058.169h1.854c-.561.049-1.125.049-1.686 0-1.146 0-2.967 0-5.226.169h-19.353c-16.521-.338-39.853-1.551-66.86-4.754h-.775v-.81l1.18-20.971.641-11.025.303-5.631v-2.832-1.416-1.349l.978-.809a795.7 795.7 0 0 0 93.293 5.698h.674v.674l-2.191 31.828-.675 8.531c-.04.977-.175 1.948-.404 2.899z"></path><path d="M665.96 748.422c-2.578-2.683-4.768-5.713-6.507-9.003-2.223-2.991-3.912-6.345-4.99-9.912 2.578 2.682 4.769 5.713 6.507 9.002a32.24 32.24 0 0 1 4.99 9.913z"></path><use xlink:href="#N"></use></g><use xlink:href="#N" class="B G"></use><path d="M378.664 811.302l-1.079-.269-3.372-.911-12.205-3.742c-5.293-1.686-11.868-3.372-19.184-6.406l-11.767-4.485c-4.215-1.584-8.632-3.371-13.116-5.394-9.002-4.114-19.016-8.362-29.198-14.094s-21.039-11.902-32.098-18.948a321.3 321.3 0 0 1-64.398-55.801 190.97 190.97 0 0 1-23.231-32.401L149.46 542.415l-5.596-37.291-1.416-10.115-.338-2.596c-.037-.302-.037-.608 0-.91a3.35 3.35 0 0 1 .203.877l.505 2.596 1.72 10.115 6.103 37.088 20.229 126.335v-.236a193.1 193.1 0 0 0 22.995 32.03 323.64 323.64 0 0 0 64.061 55.598c10.991 7.081 21.477 13.723 31.862 19.016l29.03 14.229c4.45 2.191 8.867 3.911 13.014 5.495l11.666 4.586c7.249 3.068 13.79 4.889 19.016 6.743l12.104 4.046 3.136 1.079c.309.036.614.104.91.202z" class="C"></path><path d="M363.42 736.25s0 .203-.573.54l-1.854 1.483-7.182 5.597-27.175 20.871-.405.337-.337-.472-33.278-46.057 1.012.169-25.524 18.207-.843.607-.37-1.012-32.908-89.247-4.72-12.846h1.585l-20.769 41.269-.911 1.787-.64-1.888-43.427-125.189h.91l-6.372 26.973-1.753 7.081-.472 1.82a2.1 2.1 0 0 1-.236.607v-.641c0-.472.202-1.078.337-1.82l1.517-7.148 5.934-26.973.371-1.618.573 1.584 44.101 124.919h-1.551l20.736-41.269.91-1.82.708 1.888 4.72 12.846 32.739 89.314-1.214-.371 25.625-18.072.573-.404.438.573 32.941 46.124h-.776l27.547-20.466 7.35-5.395 1.922-1.348.741-.54z" fill="#000"></path><g class="C"><path d="M357.451 612.273c-1.242-.125-2.464-.397-3.641-.809-2.293-.641-5.631-1.652-9.677-3.001-10.535-3.523-20.878-7.597-30.985-12.205a330.97 330.97 0 0 1-29.772-15.274c-3.675-2.158-6.743-3.978-8.631-5.293a15.27 15.27 0 0 1-3.001-2.192c1.185.403 2.317.946 3.372 1.618l8.901 4.788c7.519 4.012 18.004 9.407 29.872 14.768s22.826 9.643 30.817 12.644c3.743 1.348 6.743 2.528 9.474 3.371a13.46 13.46 0 0 1 3.271 1.585zm6.882 10.724a34.88 34.88 0 0 1-8.362-1.484c-6.651-1.606-13.213-3.565-19.657-5.866-6.438-2.31-12.752-4.955-18.915-7.924-2.614-1.089-5.093-2.481-7.383-4.147 2.728.766 5.381 1.782 7.923 3.035 4.821 1.989 11.497 4.686 18.982 7.384s14.363 4.821 19.387 6.338c2.751.64 5.437 1.531 8.025 2.664zm-68.279 95.621c0 2.157-1.315 3.877-2.934 3.877s-2.899-1.72-2.899-3.877 1.315-3.878 2.899-3.878 2.934 1.753 2.934 3.878zm-66.316-77.852c1.601 0 2.899-1.736 2.899-3.878s-1.298-3.877-2.899-3.877-2.9 1.736-2.9 3.877 1.298 3.878 2.9 3.878zm-61.13-89.146c0 2.124-1.315 3.877-2.9 3.877s-2.899-1.753-2.899-3.877 1.281-3.878 2.899-3.878 2.9 1.753 2.9 3.878z"></path><use xlink:href="#O"></use><path d="M1247.09 453.91c-5.6-18.173-19.22-44.101-51.59-49.496l-38.16 353.28s71.85-14.33 73.77-53.711c.17-3.371 14.53-178.999 18.14-222.527a71.15 71.15 0 0 0-2.16-27.546z"></path></g><g class="B"><use xlink:href="#O" class="G"></use><path d="M1245.24 534.559a155.57 155.57 0 0 0-27.42 84.931c-.16 8.733.34 17.735-3 25.793-3.33 8.058-11.97 14.801-20.23 12.509s-12.71-12.813-20.39-17.668a22.79 22.79 0 0 0-11.62-2.895c-4.06.089-8.03 1.263-11.48 3.401a38.82 38.82 0 0 0-15.17 18.443c-6.24 14.397-6.75 30.648-11.26 45.652-4.52 15.004-15.92 30.142-31.63 30.817-5.73.236-11.4-1.484-17.13-1.315-12.1.37-22.62 9.373-28.25 20.229s-7.35 23.029-8.97 35.032c0 0 91.78 8.766 194.78-112.883l11.77-142.046z"></path></g><g class="C"><path d="M1099.35 693.87c0 3.372-1.62 5.9-3.61 5.9s-3.57-2.629-3.57-5.9 1.58-5.9 3.57-5.9 3.61 2.663 3.61 5.9zm43.22-109.174c0 3.372-1.62 5.901-3.61 5.901s-3.57-2.664-3.57-5.901 1.58-5.9 3.57-5.9 3.61 2.63 3.61 5.9z"></path><path d="M1243.18 547.235a7.92 7.92 0 0 1-.57 1.484l-1.96 4.282-7.55 16.015-27.38 57.014-.37.776-.74-.472-64.9-41.067 1.28-.404-2.7 6.743-41.91 102.531-.3.708-.64-.371-38.58-21.409-10.65-5.665-2.8-1.348-.98-.439a77.92 77.92 0 0 1 14.77 6.744c9.31 4.787 22.59 11.935 38.88 20.904l-.95.337 41.54-102.801 2.7-6.743.4-.978.88.573 64.8 41.269-1.11.303 27.95-56.711 8.06-15.745 2.16-4.147a8.95 8.95 0 0 1 .67-1.383z"></path></g><g filter="url(#B)" class="B"><path d="M560.662 367.561h25.062v21.693h-25.062z"></path></g><g filter="url(#C)" class="B"><path d="M606.004 398.367h25.062v21.693h-25.062z"></path></g><g filter="url(#D)" class="B"><path d="M580.16 449.767h25.062v21.693H580.16z"></path></g><g filter="url(#E)" class="B"><path d="M641.732 453.831h25.062v21.693h-25.062z"></path></g><g filter="url(#F)" class="B"><path d="M614.219 499.202h25.062v21.693h-25.062z"></path></g><g filter="url(#G)" class="B"><path d="M586.705 544.574h25.062v21.693h-25.062z"></path></g><g filter="url(#H)" class="B"><path d="M634.969 552.961h25.062v21.693h-25.062z"></path></g><defs><filter id="A" x="590.132" y="601.753" width="38.63" height="35.261" filterUnits="userSpaceOnUse" class="D"><feGaussianBlur stdDeviation="3.392"></feGaussianBlur></filter><filter id="B" x="553.878" y="360.777" width="38.63" height="35.261" filterUnits="userSpaceOnUse" class="D"><feGaussianBlur stdDeviation="3.392"></feGaussianBlur></filter><filter id="C" x="599.22" y="391.583" width="38.63" height="35.261" filterUnits="userSpaceOnUse" class="D"><feGaussianBlur stdDeviation="3.392"></feGaussianBlur></filter><filter id="D" x="573.376" y="442.983" width="38.63" height="35.261" filterUnits="userSpaceOnUse" class="D"><feGaussianBlur stdDeviation="3.392"></feGaussianBlur></filter><filter id="E" x="634.948" y="447.047" width="38.63" height="35.261" filterUnits="userSpaceOnUse" class="D"><feGaussianBlur stdDeviation="3.392"></feGaussianBlur></filter><filter id="F" x="607.435" y="492.418" width="38.63" height="35.261" filterUnits="userSpaceOnUse" class="D"><feGaussianBlur stdDeviation="3.392"></feGaussianBlur></filter><filter id="G" x="579.921" y="537.79" width="38.63" height="35.261" filterUnits="userSpaceOnUse" class="D"><feGaussianBlur stdDeviation="3.392"></feGaussianBlur></filter><filter id="H" x="628.185" y="546.177" width="38.63" height="35.261" filterUnits="userSpaceOnUse" class="D"><feGaussianBlur stdDeviation="3.392"></feGaussianBlur></filter><path id="I" d="M568.409 216.953c-124.986 9.07-261.47 25.625-361.54 64.061l31.626 213.863s193.936-69.422 351.762-64.601l-21.848-213.323z"></path><path id="J" d="M1177.73 280.003c-122.39-37.29-225.667-69.152-364.14-68.275l-21.174 217.908c144.002 12.745 192.183 22.185 325.094 70.299l60.22-219.932z"></path><path id="K" d="M956.447 309.776c-2.574-8.964-7.498-17.077-14.262-23.497s-15.122-10.915-24.208-13.018l-1.619-.337-1.045-.236-3.169-.472h-.27l-5.327 46.023-1.281 10.856 50.979 18.612c1.284-3.843 2.166-7.809 2.629-11.835 1.011-8.773.184-17.66-2.427-26.096z"></path><path id="L" d="M701.018 682.708l119.356 26.433 18.24-26.433-2.933-34.02-18.14-16.588h-62.51l-58.396 52.597"></path><path id="M" d="M912.122 870.037c-130.718 34.593-256.716 31.963-394.043 0l-16.116-251.119c141.912 27.614 284.363 24.108 410.091-5.934l.068 257.053z"></path><path id="N" d="M119.754 421.609l42.718 258.537s65.241 122.12 238.543 149.633l-27.951-230.754s-160.287-49.631-253.31-177.416z"></path><path id="O" d="M1250.47 467.6l-21.41 262.65s-62.61 112.309-234.837 116.591l21.277-264.437s150.27-6.103 234.97-114.804z"></path></defs></svg>