<svg xmlns="http://www.w3.org/2000/svg" xmlns:xlink="http://www.w3.org/1999/xlink" xmlns:v="https://vecta.io/nano" width="1413" height="1596" fill="none"><style><![CDATA[.B{fill:#fec72f}.C{fill:#455a64}.D{fill:#263238}.E{fill:#fff}.F{fill:#ffa8a7}.G{fill:#000}.H{fill:#37474f}.I{opacity:.4}.J{fill:#fafafa}.K{fill:#f28f8f}.L{fill:#e0e0e0}.M{opacity:.1}.N{fill:#ebebeb}.O{fill:#b16668}.P{fill:#f0f0f0}]]></style><path d="M673.683 1595.81C301.956 1595.81.612 1445.38.612 1259.8c0-185.57 301.344-336.006 673.071-336.006S1346.75 1074.23 1346.75 1259.8c0 185.58-301.34 336.01-673.067 336.01z" fill="#f5f5f5"></path><path d="M108.61 1348.23c55.187 29.75 144.634 29.75 199.787 0s55.188-78.01 0-107.8c-55.187-29.78-144.6-29.78-199.787 0-55.188 29.79-55.154 78.02 0 107.8z" fill="#e6e6e6"></path><path d="M281.834 216.565l-30.29 17.502c0-1.356.237-2.713.237-4.002v-8.785c0-15.637-10.956-21.946-24.49-14.145a46.94 46.94 0 0 0-14.585 14.043c-2.239-19.64-17.639-27.136-36.362-16.146-20.352 11.669-36.634 40.093-36.634 63.464v13.127a34.8 34.8 0 0 0 3.087 15.196l-25.134 14.552c-3.955 2.571-7.246 6.041-9.603 10.126a29.91 29.91 0 0 0-3.965 13.38c0 8.684 6.071 12.177 13.568 7.87l164.171-94.806a30.01 30.01 0 0 0 9.6-10.148c2.358-4.09 3.717-8.678 3.968-13.393 0-8.649-6.071-12.177-13.568-7.835zm129.644 88.293l-22.862 13.195c0-1.018.203-2.035.203-3.053v-6.784c0-11.77-8.276-16.553-18.486-10.651-4.401 2.685-8.163 6.296-11.024 10.583-1.662-14.823-13.297-20.351-27.441-12.177-15.264 8.819-27.645 30.257-27.645 47.895v9.905c-.097 3.949.703 7.869 2.341 11.464l-18.996 10.991c-2.971 1.948-5.442 4.57-7.21 7.652a22.59 22.59 0 0 0-2.965 10.088c0 6.546 4.579 9.192 10.175 5.936l123.91-71.537a22.71 22.71 0 0 0 7.207-7.674c1.767-3.088 2.784-6.547 2.969-10.1.067-6.343-4.512-9.023-10.176-5.733z" class="N"></path><use xlink:href="#B" class="B"></use><use xlink:href="#B" opacity=".15" class="G"></use><path d="M1280.44 1262.96c.39 0 .76-.16 1.04-.43a1.48 1.48 0 0 0 .45-1.03c.78-52.07 48.37-81.41 61.06-86.63.18-.07.35-.18.49-.32.14-.13.25-.29.33-.47a1.63 1.63 0 0 0 .13-.57c0-.2-.03-.39-.1-.58-.16-.36-.44-.65-.8-.8a1.5 1.5 0 0 0-1.14-.01c-13.09 5.19-62.14 35.62-62.95 89.34 0 .39.15.77.42 1.05s.65.44 1.04.45h.03z" class="E"></path><path d="M1289.36 1247.45c.48-12.72 11.74-22.55 33.04-20.99s18.15 1.32 43.28-7.63c25.14-8.96 44.1 0 46.74 9.66 3.06 10.59-17.53 17.27-32.53 25.71-14.99 8.45-24.96 18.36-19.91 32.13 4.31 11.8 3.39 22.21-14.99 28.35-16.18 5.43-34.73-2.51-40.09 13.98-3.06 9.39-17.61 20.69-32.63 13.57-40.91-34.7 17.09-94.78 17.09-94.78z" class="B"></path><g class="E"><path d="M1274.57 1316.04c.31 0 .61-.1.86-.29.25-.18.44-.43.53-.73 15.71-45.04 90.06-84.25 117.26-88.73.39-.07.73-.28.96-.6s.32-.71.27-1.1c-.06-.39-.27-.74-.59-.97-.32-.24-.72-.34-1.11-.28-27.71 4.58-103.52 44.64-119.6 90.7-.13.37-.11.78.06 1.14a1.51 1.51 0 0 0 .85.76l.51.1z"></path><path d="M1341.5 1291.32a1.34 1.34 0 0 0 .65-.17c.2-.1.37-.26.5-.45a1.26 1.26 0 0 0 .27-.51c.06-.19.07-.38.05-.58-.03-.19-.09-.38-.2-.55-.1-.17-.23-.31-.39-.42-12.16-8.39-26.52-13-41.28-13.27-.39 0-.77.16-1.04.43a1.48 1.48 0 0 0-.45 1.03c-.01.2.03.39.1.57a1.42 1.42 0 0 0 .31.48 1.58 1.58 0 0 0 .48.33 1.38 1.38 0 0 0 .57.11 73.65 73.65 0 0 1 39.55 12.66c.24.21.55.33.88.34z"></path></g><path d="M1057.82 602.698l12.59-7.259a7.48 7.48 0 0 0 2.63-2.927c.59-1.193.86-2.526.76-3.857V341.481c-.2-3.688-1.26-7.278-3.11-10.478a23.39 23.39 0 0 0-7.51-7.94L504.389 1.469a7.53 7.53 0 0 0-7.361-.814l-12.55 7.225 9.43 246.699a23.55 23.55 0 0 0 3.133 10.462 23.54 23.54 0 0 0 7.518 7.922l553.261 329.735z" class="J"></path><path d="M1061.01 348.741v247.038c0 6.784-4.75 9.531-10.61 6.139L491.805 280.324a23.5 23.5 0 0 1-10.617-18.418V14.834c0-6.784 4.783-9.531 10.651-6.139L1050.5 330.288a23.65 23.65 0 0 1 7.46 7.973c1.82 3.206 2.87 6.795 3.05 10.48z" class="N"></path><path d="M1070.44 595.404l-12.18 7.021c.98-.818 1.75-1.865 2.22-3.048a7.82 7.82 0 0 0 .53-3.736V348.705c-.12-3.467-1.07-6.854-2.78-9.871l12.62-7.259c1.72 3.026 2.67 6.426 2.78 9.905v247.038a7.42 7.42 0 0 1-.67 3.828 7.36 7.36 0 0 1-2.52 2.956v.102z" class="L"></path><path d="M993.51 502.027l11.64-6.717a7.05 7.05 0 0 0 2.26-2.396c.56-.965.88-2.047.95-3.159v-96.863a7.06 7.06 0 0 0-.94-3.162c-.56-.965-1.33-1.785-2.27-2.393l-114.007-65.829a7.17 7.17 0 0 0-6.414 0l-11.641 6.717c-.932.616-1.708 1.441-2.265 2.41s-.879 2.054-.942 3.17v96.863c.063 1.112.386 2.194.943 3.159a7.12 7.12 0 0 0 2.264 2.396l113.983 65.804a7.07 7.07 0 0 0 6.439 0z" class="H"></path><path d="M987.626 502.282a7.07 7.07 0 0 0 2.957.509 7.06 7.06 0 0 0 2.902-.762l11.665-6.717a7.05 7.05 0 0 0 2.26-2.396c.56-.965.88-2.047.95-3.159v-96.888a6.53 6.53 0 0 0-.94-3.156l-18.077 10.429c.596.956.928 2.054.96 3.181v96.863c0 1.843-1.263 2.676-2.677 2.096z" class="D"></path><path d="M990.287 403.319v96.863c0 2.045-1.414 2.879-3.207 1.843l-113.983-65.804a7.12 7.12 0 0 1-2.264-2.396 7.11 7.11 0 0 1-.942-3.159v-96.862c0-2.046 1.439-2.879 3.206-1.869l113.983 65.829c.938.605 1.718 1.424 2.275 2.39a7.02 7.02 0 0 1 .932 3.165z" class="C"></path><path d="M990.281 434.355l-120.396-69.516v3.485l120.422 69.515-.026-3.484z" class="D"></path><g class="B"><path d="M935.316 401.351l-14.254-10.429v13.888l14.254 10.429v-13.888z"></path><path d="M920.71 390.705l3.127-1.813 15.052 10.929-3.128 1.814-15.051-10.93z"></path></g><path d="M921.07 390.925l3.005-1.742 14.464 10.415-3.005 1.743-14.464-10.416z" class="E I"></path><path d="M938.326 399.61v13.888l-3.005 1.743v-13.888l3.005-1.743z" class="B"></path><path d="M938.047 400.319v12.63l-2.733 1.585v-12.63l2.733-1.585z" class="G M"></path><path d="M963.015 373.575c2.045 0 3.712-.177 3.712-2.222v-16.716a17.84 17.84 0 0 0-2.364-8.188 17.82 17.82 0 0 0-5.894-6.155l-32.548-18.913a7.58 7.58 0 0 0-4.051-1.423c-1.459-.074-2.909.276-4.174 1.007a7.58 7.58 0 0 0-2.956 3.114c-.664 1.302-.938 2.767-.788 4.221v16.918c0 2.045 1.641 2.222 3.687 2.222s3.712-.177 3.712-2.222V328.3a3.06 3.06 0 0 1 0-.833c.263.082.517.192.757.328l32.65 18.837a10.64 10.64 0 0 1 3.179 3.449 10.65 10.65 0 0 1 1.391 4.48v16.792c0 2.045 1.641 2.222 3.687 2.222z" class="B"></path><path d="M828.017 227.649l-128.896-74.352c-.43-.286-.926-.461-1.441-.508s-1.034.034-1.51.236l-6.784 3.053 5.597 163.562c.074 1.448.49 2.859 1.216 4.115s1.738 2.322 2.956 3.11l124.757 77.676 6.954-3.121c.432-.307.776-.723.996-1.205a3.02 3.02 0 0 0 .259-1.542V234.908a9.3 9.3 0 0 0-1.192-4.116c-.713-1.26-1.71-2.336-2.912-3.143z" class="L"></path><path d="M821.099 230.767l-128.896-74.352c-2.306-1.323-4.172-.238-4.172 2.408v163.934a9.22 9.22 0 0 0 4.172 7.225l128.896 74.217c2.306 1.323 4.206.237 4.206-2.408V237.992a9.26 9.26 0 0 0-1.242-4.114c-.73-1.255-1.746-2.321-2.964-3.111z" class="E"></path><path d="M743.82 249.948s-7.322-2.27-13.351 7.322c-4.124 6.492-18.549 31.192-18.549 31.192s-28.019-14.863-29.606-16.792-1.489-5.906-1.708-8.03a23.69 23.69 0 0 1 1.074-7.883c.341-2.221-2.88-2.441-4.467.757-1.147 2.245-1.245 4.881-2.245 4.881-1.409-.993-2.724-2.112-3.93-3.344-1.733-1.903-4.881-5.076-7.322-4.637a2.03 2.03 0 0 0-1.064.603c-.284.306-.466.692-.522 1.105-.078 1.305-.384 2.585-.903 3.783-.374.462-.686.971-.928 1.514a13.81 13.81 0 0 0 0 2.44c0 1.172-1.245 1.66-1.391 2.807a19.98 19.98 0 0 0 .293 2.661c0 .561-.195 1.074-.195 1.635.138 1.167.642 2.261 1.44 3.124a33.94 33.94 0 0 0 8.322 6.956c2.563 1.66 5.931 3.149 8.836 4.735s35.927 26.848 40.32 23.919 26.457-35.122 26.457-35.122c5.15-14.278-.561-23.626-.561-23.626z" class="F"></path><path d="M756.611 250.164a39.08 39.08 0 0 0-13.253-2.929c-2.672-.002-5.292.741-7.564 2.147s-4.108 3.418-5.298 5.81l-13.546 22.357c3.578 7.359 9.295 13.467 16.401 17.524l15.548-23.455 7.712-21.454z" class="C"></path><path d="M782.064 264.346c2.685 2.153 4.666 5.06 5.687 8.347a40.74 40.74 0 0 1 1.732 12.204v26.677l.318 50.449c-16.914 5.76-38.417.684-56.454-19.379l1.001-75.125v-1.464c.659-14.962 13.57-21.967 26.286-14.645l10.691 6.053 10.714 6.956.025-.073z" class="B"></path><path d="M770.494 209.481c0 11.374-7.981 18.452-17.841 15.816s-17.842-14.01-17.842-25.383 8.518-11.374 18.354-8.738 17.329 6.932 17.329 18.305zm9.303 18.085a155.99 155.99 0 0 1-3.686 15.621c-.315.598-.775 1.108-1.337 1.484a4.06 4.06 0 0 1-1.884.664l.171-9.983 6.736-7.786zm-3.295-21.405c1.031.174 2.014.566 2.881 1.151s1.599 1.35 2.146 2.242c2.173 3.148.952 10.812-1.732 17.915l-4.882-.659 1.587-20.649z" class="D"></path><path d="M773.473 226.417c.976.952 2.441-.878 3.612-2.026s5.224-2.099 7.323 3.271-1.758 11.008-4.882 11.3a5.22 5.22 0 0 1-6.248-3.709l-.171 23.138c-9.104 9.762-25.042-1.733-17.866-6.005v-6.858c-2.493-.218-4.952-.734-7.322-1.538-3.978-1.781-6.492-6.077-7.713-11.373-1.928-8.543-2.66-15.206-1.025-30.485 1.806-16.767 19.184-12.203 28.581-2.953s5.711 27.238 5.711 27.238z" class="F"></path><g class="D"><path d="M773.469 228.346c.488.147 2.44-3.002 3.612-3.953 1.733-1.343-.488-18.233-.488-18.233 1.977-4.344-1.66-10.909-5.492-13.594-2.73-1.755-5.813-2.889-9.03-3.32a87.17 87.17 0 0 0-8.201-1.122c-3.326-.185-6.636-.584-9.909-1.196a22.27 22.27 0 0 1-7.835-3.368c-.805-.562-1.611 0-1.342 1.049a12.89 12.89 0 0 0 .927 2.612c.705 1.638 1.589 3.193 2.636 4.637a35.39 35.39 0 0 0 3.832 4.247c7.322 6.931 16.621 8.835 24.773 9.763 1.855.195 2.245 2.44 3.222 8.249.854 5.174 1.513 13.741 3.295 14.229z"></path><path d="M776.499 207.429l5.98-2.099c-.245-.974-.848-1.82-1.69-2.368s-1.86-.757-2.85-.585c-1.66.561-2.294 2.831-1.44 5.052z"></path></g><path d="M755.046 245.527c4.018.203 8.047-.051 12.008-.757a7.71 7.71 0 0 0 4.296-3.783 13.23 13.23 0 0 1-2.441 5.15c-2.294 2.758-13.863 2.124-13.863 2.124v-2.734z" class="K"></path><path d="M757.167 219.509a2.78 2.78 0 0 0 .484 1.583c.318.467.771.825 1.298 1.029 1 .244 1.781-.489 1.781-1.685.007-.585-.174-1.157-.517-1.631a2.73 2.73 0 0 0-1.386-1.004c-.855-.22-1.66.512-1.66 1.708zm2.852-7.759l3.832 3.441a3.32 3.32 0 0 0-.903-3.734 1.75 1.75 0 0 0-.69-.519c-.269-.113-.563-.157-.854-.128a1.77 1.77 0 0 0-.811.295c-.242.164-.439.386-.574.645z" class="D"></path><path d="M755.846 233.376l-4.076.659c.114.649.454 1.236.958 1.66a2.81 2.81 0 0 0 1.8.659c1.123-.196 1.708-1.465 1.318-2.978z" class="K"></path><path d="M740.815 208.407l3.466-2.172c-.708-1.342-2.05-1.928-3.002-1.342a2.68 2.68 0 0 0-.894 1.67c-.086.646.068 1.302.43 1.844zm1.515 6.541c-.005.568.166 1.124.49 1.592s.783.823 1.316 1.02c.976.244 1.782-.489 1.782-1.684.003-.565-.166-1.117-.484-1.584s-.771-.825-1.298-1.028c-1.001-.342-1.806.488-1.806 1.684z" class="D"></path><path d="M751.166 215.655l-.22 12.423-6.394-3.343 6.614-9.08z" class="K"></path><path d="M807.23 340.621c-3.734-51.401-11.349-69.829-23.87-75.223-4.32 3.222-5.37 18.33-.854 29.801 0 0 9.763 34.17 10.275 45.91.274 10.833-.387 21.669-1.977 32.388-.082.647-.3 1.269-.641 1.824a4.58 4.58 0 0 1-1.336 1.398c-2.733 1.782-2.441 4.369-4.515 6.809-1.538 1.929-2.978 2.27-2.685 2.978a3.45 3.45 0 0 0 1.551 1.707c.698.373 1.504.494 2.281.343a10.33 10.33 0 0 0 3.344-1.83 28.21 28.21 0 0 1-3.515 7.664c-3.563 5.418-3.392 9.103 4.882 10.324 5.247.781 9.055-2.441 11.69-15.596.757-3.783 2.441-10.569 3.271-15.474 1.916-10.897 2.62-21.972 2.099-33.023z" class="F"></path><path d="M779.795 262.857a29.47 29.47 0 0 1 13.742 10.666c4.588 7.469 8.981 19.526 12.057 40.809 0 0-5.76 7.908-20.819 1.342 0 0-6.542-27.214-7.127-37.977-.635-11.74 2.147-14.84 2.147-14.84zm38.149 157.387l-122.756-70.893c-4.07-2.34-7.36-.678-7.36 3.731a15.78 15.78 0 0 0 2.221 6.985c1.279 2.122 3.04 3.912 5.139 5.227l122.756 70.858c4.07 2.341 7.361.678 7.361-3.697a15.74 15.74 0 0 0-2.219-6.987c-1.279-2.122-3.04-3.912-5.142-5.224zM666.558 141.932L543.768 71.04c-4.036-2.34-7.326-.678-7.326 3.697a15.78 15.78 0 0 0 7.326 12.211l122.79 70.893c4.037 2.34 7.327.678 7.327-3.732-.183-2.461-.942-4.845-2.214-6.96a15.78 15.78 0 0 0-5.113-5.217z" class="C"></path><path d="M670.393 175.952l-157.999-91.21c-2.035-1.187-3.697-.339-3.697 1.832a7.86 7.86 0 0 0 3.697 6.105l157.829 91.21c2.035 1.188 3.697.373 3.765-1.831a7.8 7.8 0 0 0-1.064-3.485c-.625-1.061-1.493-1.959-2.531-2.621zm0 15.875l-157.999-91.21c-2.035-1.187-3.697-.34-3.697 1.865a7.9 7.9 0 0 0 1.12 3.494c.642 1.061 1.525 1.956 2.577 2.612l157.829 91.21c2.035 1.154 3.697.339 3.765-1.865a7.8 7.8 0 0 0-1.064-3.485c-.625-1.061-1.493-1.959-2.531-2.621zm0 15.907l-157.999-91.142c-2.035-1.153-3.697-.339-3.697 1.866a7.9 7.9 0 0 0 1.12 3.493c.642 1.061 1.525 1.956 2.577 2.612l157.829 91.21c2.035 1.188 3.697.34 3.765-1.865-.058-1.242-.416-2.452-1.042-3.527s-1.502-1.982-2.553-2.647zm0 15.874l-157.999-91.21c-2.035-1.187-3.697-.339-3.697 1.832a7.86 7.86 0 0 0 3.697 6.105l157.829 91.211c2.035 1.187 3.697.339 3.765-1.832a7.73 7.73 0 0 0-1.057-3.489 7.75 7.75 0 0 0-2.538-2.617zm0 15.876l-157.999-91.21c-2.035-1.187-3.697-.339-3.697 1.866.094 1.231.478 2.424 1.12 3.479s1.526 1.943 2.577 2.592l157.829 91.244c2.035 1.154 3.697.34 3.765-1.865-.075-1.229-.439-2.423-1.064-3.485s-1.493-1.959-2.531-2.621z" class="E"></path><path d="M666.561 268.654l-12.72-7.326c-4.07-2.375-7.36-.475-7.36 4.24v14.857c.138 2.55.877 5.031 2.156 7.241a16.21 16.21 0 0 0 5.204 5.479l12.856 7.428c4.07 2.34 7.326.441 7.326-4.24v-14.959a16.3 16.3 0 0 0-2.212-7.251c-1.296-2.21-3.095-4.083-5.25-5.469z" class="B"></path><g class="C"><path d="M641.691 258.275c0 2.205-1.628 3.019-3.663 1.865l-33.92-19.639c-1.042-.659-1.918-1.55-2.559-2.603s-1.031-2.24-1.138-3.469c0-2.205 1.628-3.019 3.663-1.865l33.92 19.605a7.88 7.88 0 0 1 2.581 2.61 7.87 7.87 0 0 1 1.116 3.496zm0 11.942c0 2.205-1.628 3.019-3.663 1.866l-33.92-19.64c-1.046-.655-1.924-1.545-2.566-2.599s-1.029-2.243-1.131-3.472c0-2.205 1.628-3.019 3.663-1.866l33.92 19.606a7.87 7.87 0 0 1 3.697 6.105z"></path><use xlink:href="#C"></use></g><path d="M666.561 316.382l-12.72-7.326c-4.07-2.341-7.36-.441-7.36 4.24v14.857c.138 2.55.877 5.031 2.156 7.241a16.21 16.21 0 0 0 5.204 5.479l12.856 7.428c4.07 2.34 7.326.441 7.326-4.24v-14.959a16.3 16.3 0 0 0-2.212-7.251c-1.296-2.21-3.095-4.083-5.25-5.469z" class="B"></path><path d="M641.691 306.002c0 2.205-1.628 3.019-3.663 1.866l-33.92-19.64c-1.046-.655-1.924-1.544-2.566-2.598s-1.029-2.243-1.131-3.473c0-2.205 1.628-3.019 3.663-1.866l33.92 19.606a7.87 7.87 0 0 1 3.697 6.105zm0 11.941c0 2.205-1.628 3.053-3.663 1.866l-33.92-19.64a7.91 7.91 0 0 1-2.57-2.596c-.642-1.055-1.028-2.245-1.127-3.475 0-2.205 1.628-3.019 3.663-1.832l33.92 19.606c1.053.647 1.938 1.534 2.581 2.59a7.81 7.81 0 0 1 1.116 3.481zm0 11.971c0 2.171-1.628 3.019-3.663 1.832l-33.92-19.606a8.02 8.02 0 0 1-2.567-2.618 8.01 8.01 0 0 1-1.13-3.488c0-2.171 1.628-3.019 3.663-1.831l33.92 19.605a7.83 7.83 0 0 1 2.584 2.608 7.82 7.82 0 0 1 1.113 3.498z" class="C"></path><path d="M574.911 216.757l-12.72-7.36c-4.071-2.341-7.327-.441-7.327 4.24v14.89c.127 2.549.857 5.032 2.131 7.243a16.09 16.09 0 0 0 5.196 5.477l12.855 7.463c4.071 2.34 7.327.441 7.327-4.24v-14.959a16.41 16.41 0 0 0-2.215-7.264 16.42 16.42 0 0 0-5.247-5.49z" class="B"></path><path d="M550.076 206.378c0 2.171-1.662 3.019-3.697 1.831l-33.92-19.605c-1.046-.663-1.925-1.559-2.567-2.618s-1.028-2.253-1.13-3.488c0-2.171 1.628-3.019 3.663-1.831l33.92 19.605c1.06.651 1.951 1.543 2.6 2.604a7.88 7.88 0 0 1 1.131 3.502zm0 11.973c0 2.205-1.662 3.019-3.697 1.865l-33.92-19.639c-1.045-.637-1.929-1.508-2.583-2.544a7.94 7.94 0 0 1-1.182-3.426c0-2.205 1.628-3.019 3.663-1.866l33.92 19.606c1.058.635 1.953 1.508 2.612 2.551a7.9 7.9 0 0 1 1.187 3.453zm0 11.908c0 2.205-1.662 3.053-3.697 1.866l-33.92-19.64a7.9 7.9 0 0 1-2.57-2.596c-.642-1.055-1.028-2.245-1.127-3.475 0-2.205 1.628-3.019 3.663-1.866l33.92 19.64c1.059.642 1.95 1.529 2.599 2.584a7.8 7.8 0 0 1 1.132 3.487z" class="C"></path><path d="M574.911 264.484l-12.72-7.327c-4.071-2.375-7.327-.475-7.327 4.24v14.857a16.18 16.18 0 0 0 2.138 7.238c1.273 2.211 3.051 4.089 5.189 5.482l12.855 7.394c4.071 2.341 7.327.441 7.327-4.24V277.17c-.171-2.55-.934-5.024-2.23-7.227s-3.087-4.072-5.232-5.459z" class="B"></path><g class="C"><path d="M550.076 254.106c0 2.205-1.662 3.019-3.697 1.865l-33.92-19.639c-1.042-.659-1.918-1.55-2.559-2.603s-1.031-2.24-1.138-3.469c0-2.205 1.628-3.019 3.663-1.865L546.345 248a7.91 7.91 0 0 1 2.596 2.607c.648 1.061 1.037 2.259 1.135 3.499z"></path><use xlink:href="#D"></use><path d="M550.076 277.983c0 2.205-1.662 3.053-3.697 1.866l-33.92-19.606a8.01 8.01 0 0 1-3.697-6.105c0-2.171 1.628-3.019 3.663-1.832l33.92 19.606a7.83 7.83 0 0 1 2.596 2.587c.648 1.055 1.037 2.25 1.135 3.484z"></path></g><path d="M1057.82 915.067l12.59-7.259c1.12-.722 2.03-1.733 2.63-2.926.59-1.194.86-2.527.76-3.858V653.816c-.24-3.677-1.35-7.246-3.23-10.416a23.46 23.46 0 0 0-7.59-7.832L504.389 313.804c-1.056-.752-2.286-1.222-3.574-1.364a7.6 7.6 0 0 0-3.787.55l-12.55 7.225 9.43 246.665c.204 3.691 1.275 7.281 3.126 10.481a23.53 23.53 0 0 0 7.525 7.937l553.261 329.769z" class="J"></path><path d="M1061.01 661.107v247.038c0 6.784-4.75 9.532-10.61 6.14L491.805 592.657c-3.092-2.02-5.665-4.741-7.509-7.941s-2.91-6.789-3.108-10.478V327.2c0-6.784 4.783-9.531 10.651-6.139L1050.5 642.689c3.07 2.033 5.62 4.759 7.45 7.957 1.82 3.199 2.87 6.782 3.06 10.461z" class="N"></path><path d="M1070.44 907.775l-12.18 6.987a7.77 7.77 0 0 0 2.23-3.046 7.7 7.7 0 0 0 .52-3.738V661.076c-.11-3.468-1.07-6.856-2.78-9.871l12.62-7.259a21.27 21.27 0 0 1 2.78 9.871v247.072a7.42 7.42 0 0 1-.67 3.828 7.35 7.35 0 0 1-2.52 2.956v.102zM828.017 540.016l-128.895-74.352a3.05 3.05 0 0 0-1.436-.535c-.517-.054-1.038.025-1.515.229l-6.784 3.087 5.664 163.731c.079 1.447.498 2.856 1.223 4.111a9.23 9.23 0 0 0 2.949 3.114l124.757 77.575 6.954-3.121c.435-.297.781-.706 1.002-1.184s.308-1.006.253-1.53V547.377c-.058-1.471-.467-2.907-1.193-4.187a9.23 9.23 0 0 0-2.979-3.174z" class="L"></path><path d="M821.099 543.134l-128.896-74.352c-2.306-1.323-4.172-.271-4.172 2.408v163.935c.079 1.447.498 2.856 1.223 4.111a9.23 9.23 0 0 0 2.949 3.114l128.896 74.216c2.306 1.323 4.206.238 4.206-2.408V550.359a9.19 9.19 0 0 0-1.234-4.118c-.732-1.256-1.75-2.321-2.972-3.107z" class="E"></path><path d="M817.944 732.61l-122.756-70.893c-4.07-2.34-7.36-.678-7.36 3.732.184 2.465.946 4.852 2.225 6.967a15.74 15.74 0 0 0 5.135 5.21l122.756 70.892c4.07 2.341 7.361.679 7.361-3.731a15.75 15.75 0 0 0-2.226-6.968c-1.279-2.115-3.038-3.9-5.135-5.209zM666.558 454.265l-122.79-70.858c-4.036-2.341-7.326-.679-7.326 3.697.178 2.467.934 4.858 2.206 6.98s3.027 3.913 5.12 5.231l122.79 70.859c4.037 2.34 7.327.678 7.327-3.698-.178-2.467-.934-4.858-2.207-6.979a15.79 15.79 0 0 0-5.12-5.232z" class="C"></path><path d="M670.393 488.32l-157.999-91.245c-2.035-1.153-3.697-.339-3.697 1.866a7.91 7.91 0 0 0 1.12 3.494 7.89 7.89 0 0 0 2.577 2.611l157.829 91.211c2.035 1.187 3.697.339 3.765-1.866a7.72 7.72 0 0 0-1.065-3.47 7.73 7.73 0 0 0-2.53-2.601zm0 15.876l-157.999-91.21c-2.035-1.187-3.697-.339-3.697 1.831a7.86 7.86 0 0 0 3.697 6.106l157.829 91.21c2.035 1.188 3.697.374 3.765-1.831a7.73 7.73 0 0 0-1.057-3.489 7.75 7.75 0 0 0-2.538-2.617zm0 16.044l-157.999-91.21c-2.035-1.187-3.697-.339-3.697 1.865a7.9 7.9 0 0 0 1.12 3.494c.642 1.061 1.525 1.956 2.577 2.612l157.829 91.041c2.035 1.153 3.697.339 3.765-1.866a7.79 7.79 0 0 0-1.101-3.39 7.81 7.81 0 0 0-2.494-2.546zm0 15.737l-157.999-91.244c-2.035-1.154-3.697-.34-3.697 1.865a7.91 7.91 0 0 0 1.12 3.494c.642 1.061 1.525 1.955 2.577 2.612l157.829 91.278c2.035 1.187 3.697.339 3.765-1.866-.064-1.236-.424-2.439-1.05-3.507a7.72 7.72 0 0 0-2.545-2.632zm0 15.875l-157.999-91.211c-2.035-1.187-3.697-.339-3.697 1.832a7.86 7.86 0 0 0 3.697 6.105l157.829 91.211c2.035 1.187 3.697.339 3.765-1.832-.069-1.23-.432-2.427-1.057-3.489s-1.496-1.959-2.538-2.616z" class="E"></path><path d="M666.561 581.024l-12.72-7.361c-4.07-2.34-7.36-.441-7.36 4.24v14.857a16.21 16.21 0 0 0 2.156 7.242 16.22 16.22 0 0 0 5.204 5.478l12.856 7.428c4.07 2.341 7.326.441 7.326-4.24v-14.924a16.24 16.24 0 0 0-2.204-7.256 16.25 16.25 0 0 0-5.258-5.464z" class="B"></path><g class="C"><use xlink:href="#C" y="288.454"></use><path d="M641.691 582.584c0 2.205-1.628 3.019-3.663 1.866l-33.92-19.64c-1.042-.659-1.918-1.549-2.559-2.602a8.01 8.01 0 0 1-1.138-3.469c0-2.205 1.628-3.019 3.663-1.866l33.92 19.606a7.87 7.87 0 0 1 3.697 6.105zm0 11.938c0 2.205-1.628 3.019-3.663 1.865l-33.92-19.639c-1.046-.655-1.924-1.545-2.566-2.599s-1.029-2.243-1.131-3.473c0-2.205 1.628-3.019 3.663-1.865l33.92 19.605a7.88 7.88 0 0 1 2.581 2.61 7.87 7.87 0 0 1 1.116 3.496z"></path></g><path d="M666.561 628.784l-12.72-7.361c-4.07-2.341-7.36-.441-7.36 4.24v14.857c.133 2.551.869 5.034 2.149 7.246a16.14 16.14 0 0 0 5.211 5.474l12.856 7.462c4.07 2.341 7.326.441 7.326-4.24v-14.959a16.3 16.3 0 0 0-2.212-7.251c-1.296-2.21-3.095-4.083-5.25-5.468z" class="B"></path><path d="M641.691 618.369c0 2.171-1.628 3.019-3.663 1.832l-33.92-19.606a8.01 8.01 0 0 1-3.697-6.106c0-2.17 1.628-3.018 3.663-1.831l33.92 19.605a7.83 7.83 0 0 1 2.584 2.608 7.82 7.82 0 0 1 1.113 3.498z" class="C"></path><path d="M728.003 648.662c11.784-51.673 25.256-60.857 12.67-71.562-12.946-4.952-19.64 2.102-21.881 17.261-1.107 7.386-3.513 38.395-6.528 49.958-2.628 10.179-6.197 22.793-10.152 30.068-.318.61-.778 1.135-1.342 1.53s-1.213.648-1.895.739c-3.679.525-4.785 2.6-7.773 4.121-2.351 1.19-4.094.886-3.983 1.715a4.59 4.59 0 0 0 3.707 3.679c1.472.151 2.96.048 4.398-.304-1.764 2.337-3.939 4.334-6.418 5.892-5.753 3.735-6.694 7.386 2.435 12.254 5.753 3.043 11.064 1.577 18.229-10.069a94.02 94.02 0 0 0 7.164-13.471c4.468-10.349 8.266-20.975 11.369-31.811z" class="O"></path><path d="M761.506 583.327c12.808 4.454 13.693 11.839 16.902 20.498 2.327 6.164 2.541 12.926.608 19.225l-8.935 27.441a180.86 180.86 0 0 1 9.046 25.089c-22.406 8.437-50.373-6.639-57.122-18.976-.277-2.324 1.466-19.364 2.517-30.428-3.928-12.476-4.979-20-3.319-27.109 3.098-13.195 15.075-23.624 20.386-21.715l19.917 5.975z" class="C"></path><g class="D"><path d="M746.266 565.675l9.461 2.573c13.139 3.596 23.872-5.81 23.927-20.996 0-18.174-12.669-36.431-28.436-40.719-15.768-4.315-28.603 6.944-28.686 25.145-.055 15.187 10.567 30.401 23.734 33.997z"></path><path d="M758.599 500.7c-4.066 5.864.249 11.756 6.252 18.063s11.424 10.65 15.49 4.813 1.854-14.163-4.149-20.47-13.499-8.188-17.593-2.406z"></path><path d="M773.322 526.148l6.031 6.777c.616-.955.889-2.092.773-3.224s-.613-2.189-1.41-3c-.287-.431-.666-.794-1.109-1.062s-.942-.434-1.457-.487a3.51 3.51 0 0 0-1.525.181 3.52 3.52 0 0 0-1.303.815z"></path></g><path d="M733.539 516.495c-3.015 1.217-6.777 8.963-6.473 27.386.249 15.656 4.592 20.663 6.777 22.378s6.445 2.185 10.539 2.517l-.221 9.405s-6.943 4.675-6.584 9.046 9.599 8.852 14.938 6.113c3.496-1.884 6.725-4.229 9.599-6.971.073-.077.131-.168.169-.268a.79.79 0 0 0 .052-.312v-23.568c.384.483.866.88 1.415 1.164a4.37 4.37 0 0 0 3.579.198c.576-.222 1.099-.564 1.534-1.003a8.82 8.82 0 0 0 3.252-5.502 8.83 8.83 0 0 0-1.315-6.254c-2.628-3.818-7.497-4.316-9.406-.415a38.45 38.45 0 0 1-15.269-9.433c-6.991-6.39-11.457-15.077-12.586-24.481z" class="O"></path><path d="M742.138 544.102a2.6 2.6 0 0 0 1.604 2.544c.941.305 1.743-.332 1.771-1.438a2.77 2.77 0 0 0-1.577-2.573c-.941-.304-1.743.36-1.798 1.467z" class="D"></path><path d="M741.645 557.156l-3.928.36a2.76 2.76 0 0 0 .866 1.606c.462.422 1.054.675 1.678.717 1.079-.083 1.577-1.3 1.384-2.683z" fill="#9a4a4d"></path><path d="M728.279 534.308l3.43-1.825c-.636-1.3-1.909-1.937-2.766-1.439a2.46 2.46 0 0 0-.664 3.264zm.782 4.785c-.015.536.127 1.064.407 1.521a2.76 2.76 0 0 0 1.17 1.052c.94.304 1.742-.36 1.798-1.466.029-.538-.11-1.072-.397-1.528a2.6 2.6 0 0 0-1.208-1.017c-.94-.304-1.743.332-1.77 1.438z" class="D"></path><path d="M736.662 539.096l.055 12.78-5.339-3.403 5.284-9.377zm7.745 29.678c4.343.525 13.278 0 14.689-3.679-.509 1.773-1.625 3.31-3.154 4.343-2.766 1.908-11.59 2.462-11.59 2.462l.055-3.126z" fill="#9a4a4d"></path><path d="M755.669 672.205c7.359 0 12.006-7.386 10.069-16.321 0-.359-.138-.636-.221-.885-1.438-4.398-4.536-4.702-4.536-4.702a11.27 11.27 0 0 0 3.48-3.739c.859-1.497 1.362-3.17 1.471-4.892l3.568-17.538a25.96 25.96 0 0 0-.691-9.239l8.99-9.626 1.66 1.798c1.386 5.257 1.261 10.799-.36 15.988l-8.935 27.441c3.678 8.109 6.703 16.499 9.046 25.09-16.597 6.224-35.961-.332-47.855-9.156a60.42 60.42 0 0 0 24.314 5.781z" class="H"></path><path d="M802.061 668.412c-9.958-49.792-16.238-71.091-27.164-78.643-2.314-1.503-4.792-2.737-7.386-3.679-1.521.581-1.66 3.845-1.964 5.975-.813 9.823 1.152 19.677 5.671 28.436 0 0 14.55 39.281 16.874 52.558 2.336 11.7 3.733 23.568 4.177 35.491a5.75 5.75 0 0 1-1.605 4.177c-2.766 2.6-2.766 5.283-4.37 8.492-1.356 2.517-2.767 3.209-2.407 3.956.392.761 1.059 1.344 1.866 1.632s1.692.258 2.477-.083c1.265-.714 2.389-1.651 3.319-2.766a35.16 35.16 0 0 1-2.627 9.488c-2.988 6.943-2.241 11.064 6.832 10.788 5.699-.221 9.267-4.73 10.124-20.304.353-5.804.353-11.624 0-17.427-1.078-15.353-1.964-28.769-3.817-38.091z" class="O"></path><g class="C"><use xlink:href="#E"></use><path d="M641.691 642.351c0 2.204-1.628 3.052-3.663 1.865l-33.92-19.639c-1.047-.653-1.928-1.543-2.57-2.597a7.9 7.9 0 0 1-1.127-3.475c0-2.205 1.628-3.019 3.663-1.832l33.92 19.606c1.053.647 1.938 1.535 2.581 2.59a7.81 7.81 0 0 1 1.116 3.482z"></path></g><path d="M574.911 529.094l-12.72-7.326c-4.071-2.341-7.327-.441-7.327 4.24v14.857a16.18 16.18 0 0 0 2.138 7.238c1.273 2.211 3.051 4.089 5.189 5.481l12.855 7.361c4.071 2.341 7.327.441 7.327-4.24v-14.959a16.42 16.42 0 0 0-7.462-12.652z" class="B"></path><g class="C"><path d="M550.076 518.712c0 2.205-1.662 3.053-3.697 1.866l-33.92-19.606a8.02 8.02 0 0 1-2.567-2.618 8.01 8.01 0 0 1-1.13-3.488c0-2.205 1.628-3.019 3.663-1.831l33.92 19.605a7.84 7.84 0 0 1 2.596 2.587 7.85 7.85 0 0 1 1.135 3.485zm0 11.975c0 2.171-1.662 3.019-3.697 1.832l-33.92-19.606a8.01 8.01 0 0 1-3.697-6.105c0-2.171 1.628-3.019 3.663-1.832l33.92 19.606c1.06.65 1.951 1.543 2.6 2.604a7.87 7.87 0 0 1 1.131 3.501z"></path><use xlink:href="#D" y="276.583"></use></g><path d="M574.908 576.85l-12.72-7.361c-4.071-2.34-7.327-.441-7.327 4.24v14.857c.117 2.536.829 5.008 2.078 7.218s3.001 4.095 5.113 5.502l12.856 7.429c4.07 2.34 7.326.441 7.326-4.24V589.57a16.41 16.41 0 0 0-2.162-7.225c-1.272-2.207-3.04-4.089-5.164-5.495z" class="B"></path><path d="M550.076 566.471c0 2.171-1.662 3.019-3.697 1.832l-33.92-19.606c-1.046-.662-1.925-1.558-2.567-2.617a8.02 8.02 0 0 1-1.13-3.488c0-2.171 1.628-3.019 3.663-1.832l33.92 19.606c1.06.65 1.951 1.543 2.6 2.604a7.87 7.87 0 0 1 1.131 3.501zm0 11.94c0 2.204-1.662 3.018-3.697 1.865l-33.92-19.639c-1.046-.655-1.924-1.545-2.566-2.599s-1.029-2.243-1.131-3.473c0-2.205 1.628-3.019 3.663-1.866l33.92 19.606c1.058.652 1.948 1.545 2.596 2.606a7.91 7.91 0 0 1 1.135 3.5zm0 11.942c0 2.205-1.662 3.019-3.697 1.866l-33.92-19.64c-1.046-.655-1.924-1.545-2.566-2.599s-1.029-2.243-1.131-3.473c0-2.204 1.628-3.019 3.663-1.865l33.92 19.605a7.91 7.91 0 0 1 3.731 6.106z" class="C"></path><path opacity=".3" d="M936.7 653.375l-.272.17.34-.204.644-.339-.712.373z" class="G"></path><use xlink:href="#F" class="B"></use><use xlink:href="#F" class="E I"></use><path opacity=".3" d="M924.725 630.274l.271.306-.271-.306zM1032.52 786.17l-.38.237.48-.271.85-.509-.95.543z" class="G"></path><use xlink:href="#G" class="B"></use><use xlink:href="#G" class="E I"></use><path opacity=".3" d="M1016.07 754.285l.37.407-.37-.407z" class="G"></path><path d="M1057.82 1227.6l12.59-7.25c1.12-.73 2.03-1.74 2.63-2.93a7.48 7.48 0 0 0 .76-3.86V966.387c-.2-3.688-1.26-7.278-3.11-10.478a23.39 23.39 0 0 0-7.51-7.94L504.389 626.375a7.53 7.53 0 0 0-3.573-1.374c-1.29-.143-2.595.05-3.788.56l-12.55 7.225 9.43 246.699c.199 3.687 1.268 7.275 3.119 10.47s4.432 5.907 7.532 7.914L1057.82 1227.6z" class="J"></path><path d="M1061.01 973.645v247.075c0 6.78-4.75 9.49-10.61 6.14L491.771 905.229a23.5 23.5 0 0 1-10.617-18.418V639.773c0-6.784 4.783-9.532 10.651-6.14L1050.5 955.261c3.07 2.022 5.63 4.74 7.45 7.935 1.83 3.194 2.88 6.774 3.06 10.449z" class="N"></path><path d="M1070.44 1220.31l-12.18 7.02c.98-.82 1.75-1.86 2.22-3.05a7.79 7.79 0 0 0 .53-3.73V973.612c-.12-3.467-1.07-6.854-2.78-9.871l12.62-7.259c1.72 3.026 2.67 6.426 2.78 9.905v247.043a7.39 7.39 0 0 1-.67 3.82 7.31 7.31 0 0 1-2.52 2.96v.1z" class="L"></path><path d="M1015.79 1163.36l15.64-9.02c1.25-.82 2.29-1.93 3.04-3.22a9.64 9.64 0 0 0 1.27-4.25v-130.11a9.5 9.5 0 0 0-1.26-4.25c-.75-1.3-1.79-2.4-3.05-3.22l-153.148-88.425a9.64 9.64 0 0 0-8.615 0l-15.637 9.057c-1.256.816-2.3 1.918-3.049 3.215s-1.18 2.752-1.259 4.248V1067.5c.084 1.5.518 2.95 1.266 4.24a9.53 9.53 0 0 0 3.042 3.22l153.11 88.4c1.34.68 2.82 1.04 4.33 1.04 1.5 0 2.98-.36 4.32-1.04zm-31.407-369.259l9.904-5.715a6.05 6.05 0 0 0 1.927-2.038c.474-.821.748-1.742.802-2.688v-82.411c-.05-.947-.324-1.869-.798-2.69a6.01 6.01 0 0 0-1.931-2.036l-96.998-56.008c-.847-.423-1.781-.644-2.728-.644a6.11 6.11 0 0 0-2.729.644l-9.904 5.736a6.02 6.02 0 0 0-1.931 2.036c-.474.822-.747 1.744-.797 2.691v82.41a6.05 6.05 0 0 0 .802 2.688 6.07 6.07 0 0 0 1.926 2.039l96.977 55.986a6.01 6.01 0 0 0 5.478 0z" class="H"></path><path d="M1007.89 1163.7c1.26.51 2.61.74 3.97.68a9.61 9.61 0 0 0 3.9-1.02l15.67-9.03c1.25-.82 2.29-1.92 3.04-3.21a9.64 9.64 0 0 0 1.27-4.25v-130.11c-.04-1.5-.48-2.96-1.26-4.24l-24.28 13.97c.8 1.29 1.24 2.76 1.29 4.27v130.12c0 2.48-1.7 3.6-3.6 2.82zm-28.512-369.385c.797.322 1.655.47 2.515.433a6.02 6.02 0 0 0 2.469-.648l9.925-5.715a6.06 6.06 0 0 0 1.927-2.038c.474-.821.748-1.742.802-2.688v-82.411a5.46 5.46 0 0 0-.795-2.686l-15.382 8.852a5.42 5.42 0 0 1 .816 2.707v82.41c0 1.569-1.074 2.278-2.277 1.784z" class="D"></path><path d="M1011.46 1030.77v130.11c0 2.75-1.9 3.87-4.31 2.48l-153.113-88.4a9.6 9.6 0 0 1-3.042-3.21c-.748-1.3-1.181-2.75-1.266-4.25V937.454c0-2.748 1.934-3.867 4.308-2.51l153.113 88.426a9.53 9.53 0 0 1 3.04 3.18c.75 1.29 1.18 2.73 1.27 4.22zm-29.821-320.648v82.411c0 1.74-1.203 2.449-2.729 1.569l-96.976-55.987a6.05 6.05 0 0 1-1.927-2.038c-.474-.821-.748-1.742-.802-2.688v-82.368c0-1.74 1.225-2.449 2.729-1.59l96.976 56.008c.792.51 1.452 1.2 1.926 2.014a5.99 5.99 0 0 1 .803 2.669z" class="C"></path><path d="M1011.46 1072.49l-161.731-93.418v4.681l161.761 93.377-.03-4.64zm-29.821-335.942l-102.434-59.165v2.965l102.455 59.144-.021-2.944z" class="D"></path><g class="B"><path d="M942.732 1028.12l-24.252-14.01v18.69l24.252 13.98v-18.66zm-4.627-319.675l-15.36-8.873v11.838l15.36 8.851v-11.816z"></path><path d="M918.484 1014.11l4.037-2.34 24.252 14.01-4.036 2.34-24.253-14.01z"></path></g><path d="M918.484 1014.11l4.037-2.34 24.252 14.01-4.036 2.34-24.253-14.01zm4.263-314.536l2.556-1.482 15.361 8.873-2.556 1.482-15.361-8.873z" class="I E"></path><path d="M946.773 1025.78v18.69l-4.036 2.31v-18.66l4.036-2.34z" class="B"></path><path d="M946.773 1025.78v18.69l-4.036 2.31v-18.66l4.036-2.34zm-6.109-318.817V718.8l-2.556 1.461v-11.816l2.556-1.482z" class="M G"></path><path d="M974.824 990.81c2.748 0 4.987-.238 4.987-2.985v-22.557c-.154-3.869-1.243-7.643-3.175-10.998a23.96 23.96 0 0 0-7.917-8.269l-43.723-25.304c-1.591-1.148-3.481-1.812-5.441-1.912a10.18 10.18 0 0 0-5.607 1.353 10.19 10.19 0 0 0-3.971 4.184 10.18 10.18 0 0 0-1.059 5.669v22.727c0 2.747 2.205 2.985 4.952 2.985s4.987-.238 4.987-2.985v-22.727a4.11 4.11 0 0 1 0-1.119 5.33 5.33 0 0 1 1.017.441l43.859 25.338a14.21 14.21 0 0 1 4.273 4.612c1.063 1.837 1.7 3.889 1.866 6.005v22.557c0 2.747 2.205 2.985 4.952 2.985zm-16.39-305.996c1.74 0 3.158-.15 3.158-1.89v-14.287a15.16 15.16 0 0 0-2.011-6.966 15.17 15.17 0 0 0-5.014-5.237l-27.693-16.026c-1.008-.728-2.205-1.148-3.446-1.211s-2.475.234-3.551.857a6.45 6.45 0 0 0-3.186 6.24v14.394c0 1.74 1.397 1.891 3.137 1.891s3.158-.151 3.158-1.891v-14.394a2.63 2.63 0 0 1 0-.709c.224.071.44.164.644.279l27.779 16.049c1.109.759 2.034 1.757 2.707 2.921a9.01 9.01 0 0 1 1.181 3.803v14.287c0 1.74 1.397 1.89 3.137 1.89z" class="B"></path><path d="M828.017 852.654l-128.896-74.318a3.05 3.05 0 0 0-1.436-.536 3.06 3.06 0 0 0-1.515.23l-6.784 3.053 5.597 163.561a9.16 9.16 0 0 0 1.216 4.116c.725 1.256 1.738 2.322 2.956 3.109l124.757 77.681 6.954-3.12c.432-.31.776-.73.996-1.21a3 3 0 0 0 .259-1.54V859.811a9.31 9.31 0 0 0-1.214-4.059c-.712-1.241-1.701-2.302-2.89-3.098z" class="L"></path><path d="M821.099 855.671l-128.896-74.352c-2.306-1.323-4.172-.238-4.172 2.408v163.901c.074 1.448.49 2.859 1.216 4.115s1.738 2.322 2.956 3.11l128.896 74.217c2.306 1.32 4.206.24 4.206-2.41V862.828a9.26 9.26 0 0 0-1.256-4.076c-.731-1.243-1.741-2.297-2.95-3.081z" class="E"></path><path d="M736.254 922.928c8.884-38.932 19.573-45.993 10.087-54.102-11.057-1.687-15.325 1.785-17.012 13.191-.835 5.587-2.639 28.923-4.908 37.652-1.94 7.663-4.675 17.168-7.663 22.638a3.2 3.2 0 0 1-1.011 1.156c-.426.297-.917.487-1.433.551-2.774.408-3.588 1.94-5.819 3.124-1.766.892-3.065.659-2.988 1.299.134.687.472 1.318.971 1.81s1.134.821 1.823.945a9.95 9.95 0 0 0 3.317-.214 18.64 18.64 0 0 1-4.83 4.423c-4.346 2.813-5.063 5.568 1.823 9.234 4.326 2.308 8.38 1.183 13.734-7.565a71.82 71.82 0 0 0 5.393-10.165c3.686-9.486 7.1-17.692 8.516-23.977z" class="F"></path><use xlink:href="#H" class="B"></use><use xlink:href="#H" opacity=".25" class="G"></use><use xlink:href="#I" class="B"></use><use xlink:href="#I" opacity=".5" class="G"></use><path d="M759.632 872.823s12.104 2.851 13.578 4.015c-8.768 9.409-1.61 29.253-1.61 29.253l-4.869 16.954a97.86 97.86 0 0 1 9.952 22.871c2.929 9.699 4.772 16.877 7.003 45.896-11.504 9.158-49.854-.872-59.612-18.234 0 0 2.988-19.03 6.887-36.682 2.832-12.9 5.625-19.864 4.927-24.52-5.141-19.65-5.529-24.539-4.636-28.38 2.58-10.766 12.706-15.809 15.208-15.15l13.172 3.977z" class="H"></path><path d="M738.522 824.018c-2.192.911-4.907 6.537-4.636 19.961.214 11.386 3.395 15.014 4.986 16.255s4.675 1.572 7.759 1.785v6.789s-4.132 4.443-3.88 7.624 5.956 5.451 9.835 3.453a23.82 23.82 0 0 0 7.119-7.061v-15.635c.282.35.635.637 1.035.841s.84.321 1.289.343.898-.051 1.317-.215a3.19 3.19 0 0 0 1.112-.736 6.44 6.44 0 0 0 1.377-8.575c-1.94-2.754-5.47-3.084-6.828-.252-1.625-4.27-4.638-7.87-8.555-10.223-6.382-4.015-9.757-7.623-11.93-14.354z" class="F"></path><path d="M744.833 844.075c-.013.388.091.771.299 1.1s.509.587.865.742c.679.233 1.261-.252 1.3-1.047a1.94 1.94 0 0 0-1.183-1.94c-.679-.194-1.261.33-1.281 1.145z" class="D"></path><path d="M744.497 853.581l-2.871.272c.061.469.292.9.65 1.211a1.94 1.94 0 0 0 1.289.476c.718-.077 1.164-.95.932-1.959z" class="K"></path><path d="M734.722 836.919l2.483-1.319c-.446-.951-1.377-1.417-2.056-1.048-.357.268-.6.66-.679 1.099a1.77 1.77 0 0 0 .252 1.268zm13.677 4.791l-2.483-2.658c.446-.698 1.378-.659 2.076 0a2.25 2.25 0 0 1 .644 1.262c.074.478-.01.968-.237 1.396zm-13.113-1.222c-.032.407.065.813.278 1.162a1.94 1.94 0 0 0 .905.778c.679.214 1.261-.252 1.28-1.067.034-.404-.061-.809-.27-1.157a1.94 1.94 0 0 0-.894-.783c-.64-.213-1.26.272-1.299 1.067z" class="D"></path><path d="M741.107 841.222l-.194 8.516-3.899-2.445 4.093-6.071zm5.431 20.798c3.162.369 9.699 0 10.65-2.735a5.59 5.59 0 0 1-2.27 3.182c-1.94 1.396-8.38 1.823-8.38 1.823v-2.27z" class="K"></path><path d="M769.098 914.859l-8.865 11.271 6.498-3.085 2.367-8.186z" class="D"></path><path d="M794.14 937.652c-7.507-37.42-12.686-55.092-20.892-60.814-4.132.407-5.373 5.819-5.819 9.001-.64 7.016.819 14.065 4.19 20.252 0 0 10.223 25.062 11.969 34.917a171.11 171.11 0 0 1 3.181 26.731c.022 1.173-.416 2.308-1.222 3.162-1.94 1.939-1.94 3.976-3.317 6.401-1.009 1.94-2.115 2.425-1.804 2.987.303.573.81 1.011 1.421 1.226s1.281.194 1.876-.062a8.88 8.88 0 0 0 2.483-2.095 26.25 26.25 0 0 1-1.939 7.139c-2.251 5.257-1.688 8.38 5.14 8.128 4.287-.155 6.984-3.55 7.624-15.267.316-4.377.354-8.77.116-13.152-.518-9.563-1.521-19.093-3.007-28.554z" class="F"></path><path d="M817.944 1045.15l-122.756-70.858c-4.07-2.341-7.36-.679-7.36 3.697a15.74 15.74 0 0 0 2.218 6.987c1.279 2.122 3.041 3.912 5.142 5.224l122.756 70.86c4.07 2.34 7.361.68 7.361-3.7-.179-2.47-.94-4.86-2.219-6.99-1.279-2.12-3.04-3.91-5.142-5.22zM666.558 766.834l-122.79-70.892c-4.036-2.34-7.326-.678-7.326 3.731.183 2.462.941 4.846 2.214 6.961s3.023 3.902 5.112 5.216l122.79 70.893c4.037 2.34 7.327.678 7.327-3.731-.183-2.462-.942-4.846-2.214-6.961a15.78 15.78 0 0 0-5.113-5.217z" class="C"></path><path d="M670.393 800.856l-157.999-91.21c-2.035-1.187-3.697-.339-3.697 1.866.094 1.231.478 2.424 1.12 3.479s1.526 1.943 2.577 2.592l157.829 91.245c2.035 1.153 3.697.339 3.765-1.866-.075-1.229-.439-2.423-1.064-3.485s-1.493-1.959-2.531-2.621zm0 15.876l-157.999-91.21c-2.035-1.154-3.697-.34-3.697 1.865.094 1.237.478 2.433 1.12 3.494s1.525 1.955 2.577 2.612l157.829 91.21c2.035 1.153 3.697.339 3.765-1.865a7.8 7.8 0 0 0-1.064-3.485c-.625-1.061-1.493-1.959-2.531-2.621zm0 15.907l-157.999-91.244c-2.035-1.154-3.697-.34-3.697 1.865a7.9 7.9 0 0 0 1.12 3.494c.642 1.061 1.525 1.955 2.577 2.612l157.829 91.21c2.035 1.187 3.697.339 3.765-1.865-.074-1.225-.439-2.414-1.065-3.47s-1.492-1.948-2.53-2.602zm0 15.877l-157.999-91.211c-2.035-1.187-3.697-.339-3.697 1.832a7.86 7.86 0 0 0 3.697 6.105l157.829 91.211c2.035 1.187 3.697.339 3.765-1.832a7.73 7.73 0 0 0-1.057-3.489c-.626-1.062-1.496-1.959-2.538-2.616zm0 15.875L512.394 773.18c-2.035-1.187-3.697-.339-3.697 1.866a7.91 7.91 0 0 0 1.12 3.494 7.9 7.9 0 0 0 2.577 2.611l157.829 91.211c2.035 1.153 3.697.339 3.765-1.866a7.8 7.8 0 0 0-1.064-3.484c-.625-1.062-1.493-1.96-2.531-2.621z" class="E"></path><path d="M666.561 893.559l-12.72-7.326c-4.07-2.341-7.36-.441-7.36 4.239v14.857a16.21 16.21 0 0 0 2.156 7.242 16.2 16.2 0 0 0 5.204 5.478l12.856 7.429c4.07 2.34 7.326.441 7.326-4.24v-14.959a16.3 16.3 0 0 0-2.212-7.251c-1.296-2.21-3.095-4.083-5.25-5.469z" class="B"></path><g class="C"><use xlink:href="#E" y="252.875"></use><path d="M641.691 895.12c0 2.205-1.628 3.019-3.663 1.866l-33.92-19.639c-1.047-.653-1.928-1.543-2.57-2.597a7.9 7.9 0 0 1-1.127-3.475c0-2.205 1.628-3.019 3.663-1.866l33.92 19.64a7.77 7.77 0 0 1 2.584 2.588 7.76 7.76 0 0 1 1.113 3.483zm0 11.974c0 2.171-1.628 3.019-3.663 1.832l-33.92-19.605c-1.046-.663-1.925-1.559-2.567-2.618a8.02 8.02 0 0 1-1.13-3.488c0-2.171 1.628-3.019 3.663-1.832l33.92 19.606c1.056.652 1.942 1.546 2.584 2.607s1.025 2.261 1.113 3.498z"></path></g><path d="M666.561 941.286l-12.72-7.327c-4.07-2.34-7.36-.441-7.36 4.24v14.857a16.21 16.21 0 0 0 2.156 7.242 16.22 16.22 0 0 0 5.204 5.478l12.856 7.428c4.07 2.341 7.326.441 7.326-4.24v-14.958a16.3 16.3 0 0 0-2.212-7.252c-1.296-2.209-3.095-4.083-5.25-5.468z" class="B"></path><path d="M641.691 930.905c0 2.205-1.628 3.019-3.663 1.865l-33.92-19.639c-1.046-.655-1.924-1.545-2.566-2.599s-1.029-2.243-1.131-3.473c0-2.205 1.628-3.019 3.663-1.866l33.92 19.606c1.054.654 1.938 1.549 2.581 2.61a7.87 7.87 0 0 1 1.116 3.496zm0 11.94c0 2.205-1.628 3.053-3.663 1.865l-33.92-19.605c-1.046-.663-1.925-1.559-2.567-2.618s-1.028-2.253-1.13-3.488c0-2.171 1.628-3.019 3.663-1.832l33.92 19.606c1.053.647 1.938 1.535 2.581 2.59a7.81 7.81 0 0 1 1.116 3.482zm0 11.976c0 2.171-1.628 3.019-3.663 1.832l-33.92-19.606a8.01 8.01 0 0 1-3.697-6.106c0-2.17 1.628-3.018 3.663-1.831l33.92 19.606c1.056.652 1.942 1.545 2.584 2.607a7.82 7.82 0 0 1 1.113 3.498z" class="C"></path><path d="M574.908 841.662l-12.72-7.36c-4.071-2.341-7.327-.441-7.327 4.24v14.891a16.17 16.17 0 0 0 2.063 7.255 16.18 16.18 0 0 0 5.128 5.532l12.856 7.429c4.07 2.34 7.326.441 7.326-4.24V854.45c-.14-2.555-.875-5.042-2.147-7.262s-3.046-4.112-5.179-5.526z" class="B"></path><path d="M550.076 831.285c0 2.171-1.662 3.019-3.697 1.832l-33.92-19.606a8.01 8.01 0 0 1-3.697-6.106c0-2.17 1.628-3.018 3.663-1.831l33.92 19.605a7.91 7.91 0 0 1 3.731 6.106zm0 11.939c0 2.205-1.662 3.019-3.697 1.866l-33.92-19.64c-1.046-.655-1.924-1.545-2.566-2.599s-1.029-2.243-1.131-3.473c0-2.204 1.628-3.018 3.663-1.865l33.92 19.605a7.91 7.91 0 0 1 3.731 6.106zm0 11.94c0 2.205-1.662 3.053-3.697 1.866l-33.92-19.606a8.01 8.01 0 0 1-3.697-6.106c0-2.17 1.628-3.018 3.663-1.831l33.92 19.605c1.058.646 1.947 1.532 2.596 2.588a7.84 7.84 0 0 1 1.135 3.484z" class="C"></path><path d="M574.911 889.389l-12.72-7.326c-4.071-2.341-7.327-.441-7.327 4.24v14.856c.132 2.548.865 5.028 2.138 7.239s3.051 4.089 5.189 5.481l12.855 7.429c4.071 2.34 7.327.441 7.327-4.24v-14.959a16.42 16.42 0 0 0-2.223-7.245c-1.295-2.209-3.09-4.083-5.239-5.475z" class="B"></path><path d="M550.076 879.008c0 2.205-1.662 3.019-3.697 1.866l-33.92-19.64c-1.046-.655-1.924-1.545-2.566-2.599a7.93 7.93 0 0 1-1.131-3.472c0-2.205 1.628-3.019 3.663-1.866l33.92 19.606c1.058.652 1.948 1.545 2.596 2.606a7.91 7.91 0 0 1 1.135 3.499zm0 11.942c0 2.204-1.662 3.052-3.697 1.865l-33.92-19.639c-1.048-.653-1.928-1.543-2.57-2.597s-1.028-2.244-1.127-3.475c0-2.205 1.628-3.019 3.663-1.866l33.92 19.64c1.059.643 1.95 1.529 2.599 2.585a7.8 7.8 0 0 1 1.132 3.487zm0 11.971c0 2.171-1.662 3.019-3.697 1.831l-33.92-19.605c-1.046-.663-1.925-1.559-2.567-2.618s-1.028-2.253-1.13-3.488c0-2.171 1.628-3.019 3.663-1.832l33.92 19.606c1.06.651 1.951 1.543 2.6 2.604a7.88 7.88 0 0 1 1.131 3.502z" class="C"></path><g class="B"><path d="M1114.35 936.027a20.33 20.33 0 0 1 2.69-8.983c1.58-2.745 3.79-5.081 6.43-6.824l7.43-4.274a20.13 20.13 0 0 1 9.13-2.188 20.12 20.12 0 0 1 9.12 2.188l58.75 33.92c2.69 1.677 4.91 4.012 6.44 6.784a18.44 18.44 0 0 1 2.68 8.989v67.841a20.16 20.16 0 0 1-2.67 8.98c-1.59 2.74-3.8 5.06-6.45 6.79l-7.43 4.31a16.99 16.99 0 0 1-1.93.91l-.78.24c-.44 0-.85.31-1.33.41a9.78 9.78 0 0 1-1.08.2c-.37 0-.75.17-1.12.21h-1.32-3.16c-.54 0-1.12 0-1.66-.21h-.48a15.42 15.42 0 0 1-1.76-.4h-.24a15.31 15.31 0 0 1-3.39-1.36l-58.75-33.92a20.37 20.37 0 0 1-6.43-6.82c-1.58-2.75-2.51-5.82-2.69-8.99v-67.803z"></path><path d="M1114.35 935.958v67.842a20.14 20.14 0 0 0 2.66 9c1.59 2.74 3.8 5.08 6.46 6.8l58.75 33.92c.7.4 1.44.71 2.2.95h.62.57c3.39.38 5.7-2.03 5.7-6.44v-67.841a18.55 18.55 0 0 0-2.68-8.989 18.66 18.66 0 0 0-6.44-6.783l-58.75-33.92c-4.58-2.646-8.35-.95-8.99 3.731 0-.475 0-.95.24-1.425a14.56 14.56 0 0 0-.34 3.155z"></path></g><path d="M1180.86 1033.92c0 .91-.64 1.25-1.42.81l-49.46-28.69a3.31 3.31 0 0 1-.98-1.06c-.24-.43-.38-.9-.41-1.39v-29.303l52.27 30.323v29.31zm-50.88-76.798l13.2 7.801v-5.054a3.37 3.37 0 0 1 .35-1.846c.28-.57.73-1.047 1.27-1.376a3.4 3.4 0 0 1 1.83-.415c.64.036 1.25.25 1.77.618l14.25 8.209a7.74 7.74 0 0 1 2.57 2.674c.62 1.088.98 2.313 1.02 3.567v6.954l13.33 7.699a3.11 3.11 0 0 1 1 1.034 3.05 3.05 0 0 1 .43 1.375v10.176l-52.55-30.223v-10.176c0-1.085.61-1.458 1.53-1.017zm33.17 14.076a4.39 4.39 0 0 0-.61-1.924c-.35-.587-.82-1.088-1.39-1.468l-14.24-8.242h-.31c-.02.123-.02.25 0 .373v6.784l16.62 9.599-.07-5.122z" class="J"></path><path d="M1114.48 934.397c.64-4.647 4.44-6.343 8.99-3.697l58.78 33.92a18.25 18.25 0 0 1 6.41 6.784l25.68-14.823a18.96 18.96 0 0 0-6.44-6.784l-58.75-33.92a20.15 20.15 0 0 0-9.13-2.189c-3.17 0-6.3.75-9.12 2.189l-7.43 4.274c-2.43 1.595-4.49 3.692-6.04 6.149s-2.56 5.219-2.95 8.097z" class="E I"></path><path d="M1183.88 1054.34c.17.09.36.16.54.2l1.36.44a19.71 19.71 0 0 0 3.56.72h.17 1.83a18.72 18.72 0 0 0 9.13-2.17l7.53-4.21a20.37 20.37 0 0 0 6.43-6.82c1.59-2.75 2.51-5.82 2.69-8.99v-67.837c-.03-1.936-.4-3.852-1.08-5.664l-.99-2.239-.61-1.085-25.67 14.823a18.54 18.54 0 0 1 2.68 8.988v67.844c0 4.41-2.34 6.78-5.7 6.44h-.55l-1.32-.44z" class="G M"></path><path d="M1114.35 1079.27c.18-3.16 1.11-6.24 2.69-8.98 1.58-2.75 3.79-5.08 6.43-6.83l7.43-4.27c2.83-1.44 5.95-2.19 9.13-2.19 3.17 0 6.29.75 9.12 2.19l58.75 33.92a20.44 20.44 0 0 1 6.43 6.81c1.58 2.73 2.5 5.8 2.69 8.96v67.84c-.15 3.16-1.05 6.23-2.62 8.98s-3.76 5.09-6.4 6.83l-7.43 4.31c-.62.34-1.26.64-1.93.88l-.78.27-1.32.41-1.09.2-1.12.2h-1.32-.92-2.24-1.66-.47c-.61 0-1.19-.23-1.77-.4h-.23c-1.19-.32-2.33-.77-3.4-1.36l-58.75-33.92a20.37 20.37 0 0 1-6.43-6.82c-1.58-2.75-2.5-5.82-2.69-8.99l-.1-68.04z" class="H"></path><g class="P"><path d="M1144.33 1133a8.8 8.8 0 0 1 1.69 3.39 4.46 4.46 0 0 1-1.96-2c0-.24-.44-1.02 0-1.39.04-.03.08-.04.13-.04a.23.23 0 0 1 .14.04zm7.43-1.7a.74.74 0 0 1 .34.29c.08.12.13.27.14.42a3.68 3.68 0 0 1-.48 2.41 6.33 6.33 0 0 1-.44-2.95c.03-.34.14-.34.44-.17zm7.42 10.28a.93.93 0 0 1 .34.51.91.91 0 0 1 .14.62c-.03.22-.14.42-.31.57-.37.34-1.08.34-1.93-.24.75-1.19 1.36-1.73 1.76-1.46zm-7.42-27.41c8.24 4.72 14.89 17.47 14.89 28.43 0 15.74-9.74 12.72-9.74 19.06.04.46-.09.91-.38 1.27-.28.36-.69.6-1.14.66-1.46-.07-2.88-.49-4.14-1.22a9.17 9.17 0 0 1-3.12-2.98c-.85-1.05-1.37-2.32-1.5-3.66 0-6.35-9.73-14.59-9.73-30.33-.14-11.23 6.65-16.11 14.86-11.23zm-8.59 21c.68 1.51 1.89 2.71 3.4 3.39.3 1.22.64 2.65.91 4.34.8 4.65 1.21 9.36 1.22 14.08.01.23.07.46.17.66.11.21.26.39.44.53.34.17.61 0 .61-.44.01-4.87-.41-9.73-1.25-14.52-.27-1.58-.58-3.04-.92-4.38.53.1 1.07.1 1.6 0 .89-.21 1.71-.67 2.37-1.32.69 1.42 1.5 2.78 2.41 4.07.47.68.99 1.33 1.56 1.93-.3.95-.61 2.07-.88 3.4-.87 4.29-1.29 8.67-1.26 13.06a1.47 1.47 0 0 0 .18.64c.1.2.25.37.43.51.34.2.61 0 .61-.48 0-4.24.41-8.48 1.23-12.65a22.02 22.02 0 0 1 .91-3.39c1.49 1.15 2.72 1.25 3.39.64a2.87 2.87 0 0 0 .69-1.65c.04-.61-.1-1.22-.42-1.74-.13-.41-.35-.8-.65-1.12a3.2 3.2 0 0 0-1.04-.78c-.95-.27-1.9.51-2.71 2.17-.53-.53-1-1.11-1.43-1.73a23.61 23.61 0 0 1-2.27-3.93 5.58 5.58 0 0 0 .88-4.07 3.62 3.62 0 0 0-.54-1.49c-.29-.45-.67-.84-1.12-1.12-.82-.44-1.43-.21-1.63.67-.18 1.76.13 3.53.88 5.13-.62.64-1.4 1.1-2.27 1.32a4.29 4.29 0 0 1-1.43 0c-.45-1.97-1.39-3.79-2.74-5.29-.65-.54-1.26-.58-1.67 0a3.62 3.62 0 0 0-.26 1.75 3.66 3.66 0 0 0 .6 1.67v.14zm8.59-24.87c.57.34 1.02 0 1.02-.74v-7.77a2.37 2.37 0 0 0-.28-1.07 2.28 2.28 0 0 0-.74-.83c-.54-.34-.99 0-.99.75v7.77a2.45 2.45 0 0 0 .27 1.06c.17.33.41.62.72.83zm9.19 8.59c.48.67 1.09.81 1.39.3l2.89-5.02c.13-.35.16-.72.1-1.09-.07-.36-.23-.7-.48-.98-.47-.64-1.08-.78-1.35-.3l-2.92 5.05c-.11.34-.14.71-.08 1.07.07.35.22.69.45.97zm6.72 12.85c.27.78.88 1.39 1.39 1.29l5.02-.98c.48 0 .65-.82.37-1.63-.27-.81-.88-1.36-1.39-1.29l-5.02.98c-.47.11-.74.82-.37 1.63zm2.48 13.64c0 .38.09.75.26 1.08.17.34.42.63.72.85l5.83 3.4c.55.34 1.02 0 1.02-.75a2.45 2.45 0 0 0-.28-1.09c-.17-.33-.43-.62-.74-.84l-5.83-3.4c-.44-.33-.98.07-.98.75z"></path><path d="M1167.67 1156.2c-.12.35-.14.72-.08 1.08a2.29 2.29 0 0 0 .45.99l5.02 6.78c.51.65 1.12.78 1.39.31.12-.35.14-.72.08-1.08a2.24 2.24 0 0 0-.45-.99l-5.02-6.79c-.51-.64-1.12-.78-1.39-.3zm-31.79-18.29c-.27-.81-.91-1.39-1.39-1.28l-5.02.98c-.51 0-.64.81-.37 1.63.27.81.88 1.35 1.36 1.29l5.05-.99c.48-.17.65-.88.37-1.63zm-2.5-13.56a2.43 2.43 0 0 0-.26-1.09c-.18-.33-.42-.62-.73-.85l-5.83-3.39c-.54-.34-1.02 0-1.02.75a2.51 2.51 0 0 0 .28 1.08c.18.34.43.63.74.85l5.83 3.39c.58.21.99-.17.99-.74zm2.5-10.96c.12-.35.14-.72.08-1.08a2.29 2.29 0 0 0-.45-.99l-5.05-6.78c-.48-.64-1.09-.78-1.36-.31a2.03 2.03 0 0 0-.09 1.09 2.02 2.02 0 0 0 .46.98l5.02 6.79c.48.64 1.12.78 1.39.3zm6.72-5.09c.47 0 .64-.81.37-1.62l-2.92-8.38c-.27-.82-.88-1.39-1.39-1.29-.5.1-.64.81-.33 1.59l2.88 8.42c.27.81.91 1.39 1.39 1.28zm3.87 49.29v5.05c.13 1.39.67 2.7 1.56 3.77a9.46 9.46 0 0 0 3.22 3.07c1.3.75 2.77 1.19 4.27 1.27.49-.08.92-.35 1.2-.75a1.86 1.86 0 0 0 .33-1.39v-4.54c-.05.4-.22.77-.49 1.07-.28.29-.64.49-1.04.56a9.58 9.58 0 0 1-4.27-1.26 9.43 9.43 0 0 1-3.22-3.09 6.71 6.71 0 0 1-1.56-3.76z"></path></g><path d="M1114.48 1077.71c.64-4.68 4.44-6.38 8.99-3.73l58.78 33.92c2.68 1.67 4.89 4.01 6.41 6.78l25.68-14.79c-1.54-2.77-3.76-5.1-6.44-6.78l-58.75-33.92c-2.83-1.44-5.96-2.19-9.13-2.19s-6.3.75-9.12 2.19l-7.43 4.27a20.36 20.36 0 0 0-6.04 6.15 20.31 20.31 0 0 0-2.95 8.1z" class="C"></path><path d="M1183.88 1197.58l.54.2 1.36.41c1.16.38 2.35.62 3.56.71h.17a13.97 13.97 0 0 0 1.83 0 18.61 18.61 0 0 0 9.13-2.17l7.53-4.17a20.37 20.37 0 0 0 6.43-6.82c1.59-2.75 2.51-5.82 2.69-8.99v-67.84c-.03-1.93-.4-3.85-1.08-5.66l-.99-2.24-.61-1.08-25.67 14.78c1.64 2.72 2.57 5.82 2.68 8.99v67.84c0 4.38-2.34 6.79-5.7 6.45h-.55a6.95 6.95 0 0 1-1.32-.41z" class="D"></path><path d="M1114.35 1222.48c.19-3.16 1.11-6.23 2.69-8.97a20.5 20.5 0 0 1 6.43-6.8l7.43-4.35a20.36 20.36 0 0 1 9.12-2.16 20.37 20.37 0 0 1 9.13 2.16l58.85 33.92c2.64 1.75 4.85 4.08 6.43 6.83 1.59 2.74 2.51 5.82 2.69 8.98v67.84c-.18 3.16-1.1 6.24-2.69 8.98-1.58 2.75-3.79 5.08-6.43 6.83l-7.43 4.27a10.67 10.67 0 0 1-1.93.92l-.78.27-1.33.4-1.08.21-1.12.2h-1.32-.92-2.24-1.66-.48c-.59-.09-1.18-.21-1.76-.37h-.24c-1.18-.33-2.32-.79-3.39-1.39l-58.75-33.92c-2.65-1.73-4.86-4.06-6.45-6.8a20.12 20.12 0 0 1-2.67-8.97l-.1-68.08z" class="B"></path><path d="M1114.48 1220.95c.64-4.68 4.44-6.38 8.99-3.73l58.78 33.92c2.68 1.67 4.89 4.01 6.41 6.78l25.68-14.85c-1.54-2.78-3.76-5.11-6.44-6.79l-58.75-33.92c-2.83-1.44-5.96-2.19-9.13-2.19s-6.3.75-9.12 2.19l-7.43 4.28c-2.44 1.6-4.5 3.71-6.05 6.18s-2.55 5.24-2.94 8.13z" class="E I"></path><path d="M1114.35 1222.45v67.83c.16 3.17 1.08 6.26 2.66 9 1.59 2.75 3.8 5.08 6.46 6.81l58.75 33.92c.7.39 1.44.71 2.2.95l.62.17h.57c3.39.37 5.7-2.03 5.7-6.44v-67.88c-.11-3.17-1.03-6.27-2.68-8.99-1.54-2.77-3.75-5.1-6.44-6.78l-58.75-33.92c-4.58-2.65-8.35-.95-8.99 3.73 0-.47 0-.95.24-1.42a14.56 14.56 0 0 0-.34 3.02z" class="B"></path><path d="M1125.91 1272.1a.77.77 0 0 1 .37 0l5.02-.27c.22 0 .43-.08.59-.23.16-.16.25-.36.26-.58v-2.38c-.05-.82-.05-1.65 0-2.47a2.32 2.32 0 0 0-.57-1.49l-5.6-6.79c-.17-.18-.29-.41-.35-.65s-.05-.5.01-.74l2.65-5.9.17-.17c.23 0 .54 0 .88.27l5.97 5.5a1.11 1.11 0 0 0 .62.33c.24.03.49-.01.7-.13.77-.63 1.64-1.14 2.58-1.49.2-.09.37-.23.47-.43.11-.19.14-.41.1-.62l-1.83-8.38c-.03-.12-.02-.24.02-.35a.51.51 0 0 1 .22-.26c.19-.04.39-.04.58 0l5.86.61c.28.02.54.12.76.27.23.15.41.36.53.61l3.16 8.51a2.81 2.81 0 0 0 1.29 1.26c1.26.6 2.47 1.31 3.63 2.1.51.34 1.05.34 1.25 0l3.02-4.58c.2-.34.68-.27 1.09 0l6.41 6.79a1.59 1.59 0 0 1 .42.63 1.63 1.63 0 0 1 .09.76l-1.8 6.07a2.21 2.21 0 0 0 .34 1.46c1.08 1.66 2.06 3.38 2.95 5.15.32.52.83.9 1.42 1.05l5.5 1.33c.27.06.52.19.74.36a1.89 1.89 0 0 1 .51.65l2.78 9.37a.65.65 0 0 1 0 .31.72.72 0 0 1-.15.27.64.64 0 0 1-.25.18c-.1.04-.2.06-.31.05l-5.02.31c-.11-.01-.22.01-.32.05a1 1 0 0 0-.28.17.8.8 0 0 0-.18.27c-.04.1-.07.21-.07.32.16 1.61.16 3.24 0 4.85.02.54.21 1.07.55 1.49l5.63 6.79c.16.18.28.41.34.65s.06.5 0 .74l-2.68 5.9a.34.34 0 0 1 0 .2h-.21a1.11 1.11 0 0 1-.68-.3l-5.97-5.5a1.11 1.11 0 0 0-.62-.33 1.13 1.13 0 0 0-.7.1c-.77.63-1.64 1.14-2.58 1.49a.98.98 0 0 0-.48.42 1.06 1.06 0 0 0-.13.63l1.87 8.41a.53.53 0 0 1-.24.58c-.08.04-.18.05-.27.05s-.19-.01-.27-.05l-5.87-.58a1.56 1.56 0 0 1-.75-.28 1.64 1.64 0 0 1-.54-.6l-3.19-8.55a2.44 2.44 0 0 0-1.25-1.22l-1.87-.98-1.76-1.12c-.58-.41-1.05-.38-1.26 0l-3.01 4.58a1.02 1.02 0 0 1-.52.01.9.9 0 0 1-.43-.28l-6.45-6.79a1.84 1.84 0 0 1-.41-.65c-.08-.25-.1-.52-.06-.77l1.79-6.04a2.18 2.18 0 0 0-.34-1.49 44.86 44.86 0 0 1-2.95-5.13c-.32-.51-.83-.89-1.42-1.05l-5.5-1.32c-.27-.07-.53-.19-.75-.38a1.74 1.74 0 0 1-.5-.67l-2.78-9.33c-.04-.09-.06-.19-.05-.29a.74.74 0 0 1 .08-.29zm29.41 22.83h.3.24.55.61.54a5.86 5.86 0 0 0 3.34-1.01c.99-.66 1.75-1.61 2.19-2.72.42-.98.69-2.02.78-3.09a9.54 9.54 0 0 0 0-1.69 26.18 26.18 0 0 0-7.26-16.66c-1.3-1.41-2.8-2.63-4.44-3.63l-1.5-.74c-1.29-.61-2.71-.91-4.14-.88h-.71c-1.02.15-1.98.57-2.79 1.21s-1.44 1.49-1.82 2.45c-2.48 5.49.37 15.09 6.38 21.44a16.94 16.94 0 0 0 7.73 5.32z" class="J"></path><path d="M1183.88 1340.83l.54.2 1.36.41a16.05 16.05 0 0 0 3.56.71h.17 1.83a18.72 18.72 0 0 0 9.13-2.17l7.53-4.21a20.31 20.31 0 0 0 6.42-6.81c1.59-2.74 2.51-5.8 2.7-8.96v-67.84c-.04-1.93-.4-3.83-1.08-5.63l-.99-2.24-.61-1.12-25.67 14.82c1.64 2.72 2.57 5.82 2.68 8.99v67.84c0 4.41-2.34 6.79-5.7 6.48h-.55a7.17 7.17 0 0 1-1.32-.47z" class="G M"></path><path d="M1114.35 506.295a20.14 20.14 0 0 1 2.67-8.977c1.59-2.741 3.8-5.069 6.45-6.796l7.43-4.308a20.11 20.11 0 0 1 9.12-2.189 20.15 20.15 0 0 1 9.13 2.189l58.85 33.92a20.36 20.36 0 0 1 6.43 6.823 20.2 20.2 0 0 1 2.69 8.983v67.84a20.21 20.21 0 0 1-2.69 8.984 20.37 20.37 0 0 1-6.43 6.823l-7.43 4.274c-.62.359-1.26.665-1.93.915l-.78.272-1.33.373-1.08.237h-1.12-1.32-.92-2.24-1.66-.48l-1.76-.373h-.24c-1.18-.324-2.32-.791-3.39-1.39l-58.75-33.92a20.37 20.37 0 0 1-6.43-6.823 20.21 20.21 0 0 1-2.69-8.984l-.1-67.873z" class="C"></path><path d="M1114.35 506.261V574.1c.16 3.168 1.08 6.251 2.66 8.998a20.16 20.16 0 0 0 6.46 6.809l58.75 33.92a11.81 11.81 0 0 0 2.2.949h.62.57c3.39.374 5.7-2.035 5.7-6.444v-67.84c-.11-3.177-1.03-6.273-2.68-8.989-1.54-2.772-3.75-5.107-6.44-6.784l-58.75-33.92c-4.58-2.645-8.35-.949-8.99 3.732 0-.475 0-.984.24-1.459a14.87 14.87 0 0 0-.34 3.189z" class="H"></path><path d="M1154.34 532.72c-7.33-4.24-13.26-.814-13.26 7.632a29.23 29.23 0 0 0 3.89 13.065c2.3 3.99 5.51 7.381 9.37 9.898 7.33 4.206 13.26.78 13.26-7.666-.25-4.596-1.58-9.07-3.88-13.055a29.27 29.27 0 0 0-9.38-9.874zm-26.12 45.181c0-13.873 9.73-20.046 21.77-13.093l7.53 4.342c6.34 4.129 11.61 9.694 15.38 16.241a48.11 48.11 0 0 1 6.37 21.444v3.765l-50.88-29.476-.17-3.223z" class="P"></path><path d="M1183.88 624.641l.54.204 1.36.407c1.16.344 2.36.583 3.56.712h.17a16.43 16.43 0 0 0 1.83 0c3.18.067 6.32-.681 9.13-2.171l7.53-4.206a20.36 20.36 0 0 0 6.43-6.823 20.2 20.2 0 0 0 2.69-8.983v-67.84a17.4 17.4 0 0 0-1.08-5.665l-.99-2.205-.61-1.119-25.67 14.823c1.65 2.716 2.57 5.812 2.68 8.989v67.84c0 4.409-2.34 6.783-5.7 6.478h-.55l-1.32-.441z" class="D"></path><path d="M1114.35 649.47a20.2 20.2 0 0 1 2.69-8.983 20.26 20.26 0 0 1 6.43-6.823l7.43-4.274a20.11 20.11 0 0 1 9.12-2.189 20.15 20.15 0 0 1 9.13 2.189l58.85 33.987a18.59 18.59 0 0 1 6.44 6.784 18.44 18.44 0 0 1 2.68 8.989v67.84a20.2 20.2 0 0 1-2.69 8.983 20.36 20.36 0 0 1-6.43 6.823l-7.43 4.274c-.62.346-1.27.652-1.93.916l-.78.238a8.76 8.76 0 0 1-1.33.407l-1.08.237-1.12.17h-1.32-3.16c-.56-.035-1.11-.103-1.66-.204h-.48a14.84 14.84 0 0 1-1.76-.407h-.24c-1.18-.313-2.32-.768-3.39-1.357l-58.75-33.919c-2.64-1.743-4.85-4.079-6.43-6.824a20.2 20.2 0 0 1-2.69-8.983l-.1-67.874z" class="B"></path><g class="J"><path d="M1123.03 666.802l57.6 33.241-28.8 4.919-28.8-38.16z"></path><path d="M1151.83 713.374l28.8-13.331v44.944l-57.6-33.241v-44.944l28.8 46.572z"></path></g><path d="M1114.48 648.013c.64-4.681 4.44-6.377 8.99-3.731l58.78 33.92c2.68 1.679 4.89 4.014 6.41 6.784l25.68-14.823a18.96 18.96 0 0 0-6.44-6.784l-58.75-33.92a20.15 20.15 0 0 0-9.13-2.188c-3.17 0-6.3.749-9.12 2.188l-7.43 4.274c-2.43 1.599-4.49 3.701-6.05 6.165-1.55 2.463-2.55 5.231-2.94 8.115z" class="E I"></path><path d="M1183.88 767.85c.17.102.35.171.54.203l1.36.441c1.16.345 2.36.583 3.56.712h.17a16.43 16.43 0 0 0 1.83 0c3.18.067 6.32-.68 9.13-2.171l7.53-4.206a20.36 20.36 0 0 0 6.43-6.823 20.2 20.2 0 0 0 2.69-8.983v-67.84c-.03-1.936-.4-3.852-1.08-5.665l-.99-2.204c-.34-.713-.4-.747-.61-1.12l-25.67 14.823c1.65 2.716 2.57 5.812 2.68 8.989v67.84c0 4.409-2.34 6.784-5.7 6.444h-.55a7.52 7.52 0 0 1-1.32-.44z" class="G M"></path><path d="M1114.35 792.782a20.34 20.34 0 0 1 2.69-8.984 20.37 20.37 0 0 1 6.43-6.823l7.43-4.274a20.13 20.13 0 0 1 9.13-2.188 20.12 20.12 0 0 1 9.12 2.188l58.75 33.92c2.69 1.677 4.91 4.012 6.44 6.784a18.44 18.44 0 0 1 2.68 8.989v67.839a20.14 20.14 0 0 1-2.67 8.977c-1.59 2.741-3.8 5.069-6.45 6.796l-7.43 4.308c-.62.346-1.27.652-1.93.916l-.78.237c-.44 0-.85.306-1.33.407a9.79 9.79 0 0 1-1.08.204l-1.12.203h-1.32-.92-1.53-.71c-.54 0-1.12 0-1.66-.203h-.48a15.24 15.24 0 0 1-1.76-.407h-.24a15.06 15.06 0 0 1-3.39-1.357l-58.75-33.92a20.36 20.36 0 0 1-6.43-6.823 20.33 20.33 0 0 1-2.69-8.983v-67.806z" class="B"></path><path d="M1114.48 791.255c.64-4.68 4.44-6.376 8.99-3.731l58.78 33.92c2.68 1.679 4.89 4.014 6.41 6.784l25.68-14.823a18.96 18.96 0 0 0-6.44-6.784l-58.75-33.92a20.16 20.16 0 0 0-9.13-2.188 20.09 20.09 0 0 0-9.12 2.188l-7.43 4.274c-2.43 1.599-4.49 3.701-6.05 6.165-1.55 2.463-2.55 5.231-2.94 8.115z" class="C"></path><path d="M1114.35 792.747v67.84c.16 3.167 1.08 6.25 2.66 8.997a20.16 20.16 0 0 0 6.46 6.809l58.75 33.92c.7.391 1.44.71 2.2.95h.62.57c3.39.373 5.7-2.035 5.7-6.445v-67.84a18.54 18.54 0 0 0-2.68-8.988c-1.54-2.773-3.75-5.107-6.44-6.784l-58.75-33.92c-4.58-2.646-8.35-.95-8.99 3.731 0-.475 0-.95.24-1.459-.23 1.049-.34 2.117-.34 3.189z" class="H"></path><path d="M1154.3 818.358l28.33 36.193-27.48 3.324-28.36-36.159 27.51-3.358zm17.91 57.051c0 6.004-8 6.275-17.91.543-9.9-5.733-17.91-15.23-17.91-21.234v-12.991l17.91 22.895 17.91-2.204v12.991z" class="P"></path><path d="M1183.88 911.093c.17.103.35.172.54.203l1.36.441c1.16.345 2.36.583 3.56.713h.17 1.83c3.18.066 6.32-.681 9.13-2.171l7.53-4.206a20.37 20.37 0 0 0 6.43-6.823 20.21 20.21 0 0 0 2.69-8.984V822.46c-.03-1.936-.4-3.852-1.08-5.664l-.99-2.239-.61-1.085-25.67 14.823c1.65 2.716 2.57 5.812 2.68 8.988v67.84c0 4.41-2.34 6.784-5.7 6.445h-.55a7.66 7.66 0 0 1-1.32-.475z" class="D"></path><path d="M224.243 698.565L376.716 657.1c14.619-2.51 20.759 33.207 6.105 35.717l-156.984 14.364-1.594-8.616z" class="H"></path><path d="M353.771 663.112c14.619-2.51 20.385 29.54 5.732 32.05l-23.822 2.081c9.497-.983 3.911-30.264-3.314-28.297l21.404-5.834z" fill="#dab44b"></path><path d="M377.356 656.697c14.62-2.51 20.301 33.552 5.648 36.062l-24.547 2.532c9.497-.983 2.883-34.191-4.342-32.223l23.241-6.371z" class="B"></path><path d="M156.027 766.809c-19.47 0-29.849 5.868-37.99 23.947-7.801 17.299-31.952 67.534-30.765 79.712s50.88 63.837 50.88 63.837l14.178-17.232-30.765-51.659 30.188-43.553 4.274-55.052z" class="F"></path><path d="M203.587 1299.62a127.94 127.94 0 0 0-3.392 12.55c-.95 4.65-2.307 12.42-.679 15.91s7.971 5.77 17.842 5.7c6.377 0 16.315 4.27 23.133 8.07s21.675 5.5 29.103 4.61c8.752-1.01 17.842-6.1 19.267-9.73s2.612-8.62-21.132-16.21c-.204 0-28.73-9.37-38.703-20.36l-25.439-.54z" class="D"></path><g class="F"><path d="M203.591 1300.27l4.511-.55 20.928.41c9.973 11.02 38.499 20.35 38.703 20.35l3.799 1.29c4.138 3.39.644 8.99-9.158 9.84s-40.229-9.36-47.013-12.62c-3.574-1.63-6.593-4.28-8.684-7.6a20.15 20.15 0 0 1-3.086-11.12z"></path><path d="M203.59 1291.31v8.99c0 3.26 3.833 8.14 13.806 7.77 6.987-.24 11.906-2.14 11.634-7.9v-8.31l-25.44-.55z"></path></g><path d="M136.564 1262.07c-1.798.75-2.171 4.21-2.239 11.09 0 5.19-.949 14.32 5.19 15.98s15.027.47 18.826-4.55c4.68-6.24 7.835-11.7 14.585-19.36 5.868-6.79 12.211-12.86 14.416-22.02 1.967-8.24 0-11.77-5.631-14.01s-10.752-.4-18.588 6.14a35.56 35.56 0 0 1-6.987 3.7c-5.224 1.59-17.774 22.32-19.572 23.03z" class="D"></path><g class="F"><path d="M136.396 1255.73l.238 8.41s5.63 11.06 21.335 0c.339-.81 1.73-17.13 1.73-17.13l-23.303 8.72z"></path><path d="M156.13 1239.04a35.53 35.53 0 0 0 6.987-3.7c6.31-2.03 19.64.34 13.568 9.54-4.982 7.55-11.36 14.09-18.791 19.26-7.123 3.39-9.6-.81-9.6-.81l2.511-19.81c1.418-1.87 3.238-3.4 5.325-4.48z"></path><path d="M124.93 1138.98c1.371-14.86 4.398-29.51 9.022-43.69l-9.497-73c-9.803-83.88 2.272-85.406 14.11-114.577 0 0 102.031-13.568 106.542 31.07 5.597 55.697 3.087 163.727 2.137 183.477-.949 19.74-2.544 28.69-8.412 70.07-4.477 31.52-9.904 102-9.904 102a24.13 24.13 0 0 1-25.44 0s-14.518-87.75-14.213-110.51a194.04 194.04 0 0 1 7.293-49.9l-11.465-105.15s-2.612 28.94-3.561 48.68-6.275 38.77-10.99 75.54l-14.247 100.26c-14.11 8.11-20.012 2.51-20.012 2.51s-14.484-89.1-11.363-116.78z"></path></g><path d="M149.556 880.51s-18.656 27.916-26.661 56.883-4.24 60.106-1.255 91.037c5.516 57.17-15.898 151.09-15.898 151.09s42.389 24.16 78.581 33.55c44.401 11.61 64.448-2.23 64.448-2.23s4.07-213.544 0-258.726-8.819-65.668-8.819-65.668l-90.396-5.936z" class="H"></path><path d="M201.555 748.697l-3.935 41.789-36.735-2.306 2.951-46.368 37.719 6.885z" class="F"></path><use xlink:href="#J" class="B"></use><use xlink:href="#J" opacity=".16" class="E"></use><path d="M215.935 774.273l87.853-.611s-4.987-49.15-8.039-55.594-10.482-7.768-17.741-9.871-7.326-5.563-7.326-5.563l6.58-.644c5.767-.611 8.073-7.802 5.563-12.652-1.187-2.273-3.121-5.835-6.614-4.885l-8.752 2.375s0-7.768 2.782-10.957 4.884-2.238 10.685-4.24c4.341-1.526 13.16-4.206 20.351-1.289s12.551 16.316 14.349 25.746c1.856 10.935 4.857 21.645 8.954 31.952 6.377 17.537 15.705 53.492 16.553 67.84.407 6.784-.203 10.583-7.598 12.38s-93.483 10.176-93.483 10.176c-18.452-2.374-29.035-20.318-24.117-44.163z" class="F"></path><path d="M220.754 696.765s13.873-16.553 3.019-32.665c-12.822-18.961-35.413-25.406-63.329-16.96-13.805 4.105-34.089 23.201-35.107 49.964-.814 20.623 57.054 34.293 56.138 48.438l39.279-48.777z" class="D"></path><path d="M228.928 702.805s8.141 12.279 7.09 13.568a19.61 19.61 0 0 1-6.242 2.679l-.848-16.247z" class="K"></path><path d="M203.964 663.795c7.903 4.104 21.573 11.634 25.067 40.703 3.629 29.884-3.053 40.297-7.124 44.096-2.747 2.646-16.96 3.596-24.354 1.323-9.26-2.883-29.341-12.822-38.737-28.255-11.057-18.147-13.364-42.332-.576-51.83 17.977-13.127 39.008-9.429 45.724-6.037z" class="F"></path><g class="D"><path d="M206.302 665.086s6.784 27.136-1.391 44.503c0 0-4.817-10.617-13.975-7.564s-8.378 15.332-1.119 21.607c1.852 1.8 4.175 3.041 6.701 3.581a13.74 13.74 0 0 0 7.579-.528s-.238 15.094-13.161 21.064c0 0-26.966 12.89-51.321-13.161-22.115-23.744-19.266-65.974 13.331-76.828s53.356 7.326 53.356 7.326z"></path><path d="M96.643 780.108a39.01 39.01 0 0 0 27.582-11.425c7.316-7.316 11.425-17.237 11.425-27.583v-50.167c-10.345 0-20.267 4.109-27.582 11.425a39.01 39.01 0 0 0-11.425 27.582v50.168zm130.623-127.269c12.143 12.347 12.822 47.997-22.353 56.748l-22.998-63.125c13.398-8.717 34.53-4.647 45.351 6.377z"></path><path d="M208.573 719.391c1.733-.635 3.144-1.929 3.925-3.6a6.99 6.99 0 0 0 .248-5.321 6.81 6.81 0 0 0-1.367-2.358c-.61-.685-1.353-1.24-2.184-1.63s-1.732-.608-2.649-.639a6.77 6.77 0 0 0-2.687.455l4.714 13.093z"></path></g><path d="M132.356 849.811c-15.414-7.761-23.4-26.416-25.44-34.7l6.665-14.615 4.118-9.228 2.784-5.467c11.65-21.565 31.488-18.909 34.412-18.909l-.349 2.119-15.016 70.832-7.174 9.968zm120.632-75.828l-38.195.294-2.082 44.473h25.809l20.159-2.113c5.806-21.286-1.375-37.305-5.691-42.654z" fill="#fed050"></path><path d="M127.011 815.469l9.062 29.125-.807 1.152-10.707-31.256.005-9.524 2.447 10.503z" fill="#f1c64f"></path><defs><path id="B" d="M1269.62 1274.66s-5.05-49.76 17.84-82.49c22.9-32.74 54.54-29.95 66.18-25.34 11.63 4.61 20.52 20.08 2.54 33.41-17.97 13.33-56.37 40.23-61.05 61.5l-25.51 12.92z"></path><path id="C" d="M641.691 282.154c0 2.205-1.628 3.053-3.663 1.866l-33.92-19.606a8.01 8.01 0 0 1-3.697-6.105c0-2.171 1.628-3.019 3.663-1.832l33.92 19.606c1.053.647 1.938 1.534 2.581 2.59a7.81 7.81 0 0 1 1.116 3.481z"></path><path id="D" d="M550.076 266.043c0 2.205-1.662 3.019-3.697 1.866l-33.92-19.64c-1.046-.655-1.924-1.544-2.566-2.598s-1.029-2.243-1.131-3.473c0-2.205 1.628-3.019 3.663-1.866l33.92 19.606c1.058.652 1.948 1.545 2.596 2.606a7.91 7.91 0 0 1 1.135 3.499z"></path><path id="E" d="M641.691 630.307c0 2.205-1.628 3.019-3.663 1.866l-33.92-19.64c-1.046-.655-1.924-1.545-2.566-2.599s-1.029-2.243-1.131-3.473c0-2.204 1.628-3.018 3.663-1.865l33.92 19.605a7.88 7.88 0 0 1 2.581 2.61 7.87 7.87 0 0 1 1.116 3.496z"></path><path id="F" d="M941.479 649.745c.034.081.052.167.052.255a.65.65 0 0 1-.052.254.65.65 0 0 0 .052-.254c0-.088-.018-.174-.052-.255l-.95-3.391.95 3.391z"></path><path id="G" d="M1039.1 781.151a1.35 1.35 0 0 1 0 .746.96.96 0 0 0 .08-.373c0-.129-.03-.255-.08-.373l-1.32-4.444 1.32 4.444z"></path><path id="H" d="M730.707 860.293l29.097 7.759c6.906 1.843 12.493-3.104 12.493-11.076v-11.213c0-12.764-8.962-25.508-20.019-28.476l-1.494-.388c-11.038-2.968-20 4.966-20 17.73v25.644l-.077.02z"></path><path id="I" d="M765.337 822.6c1.086-1.087 2.929-.679 4.112.892l-2.192 2.173c.522-.06 1.05.042 1.513.291.796.447 1.436 1.127 1.835 1.949a4.48 4.48 0 0 1 .396 2.648l-5.684-2.929a2.89 2.89 0 0 1 .117-.388c-.535-.65-.835-1.46-.853-2.301a3.74 3.74 0 0 1 .756-2.335z"></path><path id="J" d="M127.878 784.549c3.732-11.092 11.364-17.571 28.154-17.74l6.207.203c1.187 6.14 19.267 11.16 37.312 4.851 2.51.644 12.652 1.899 16.553 2.408l5.325 1.289c13.025 4.24 24.321 13.093 24.728 48.946.169 16.96-6.072 62.006-6.072 62.006s-58.715 11.872-90.362-6.004c-20.997-51.117-27.374-79.542-21.845-95.959z"></path></defs></svg>