<svg xmlns="http://www.w3.org/2000/svg" width="1845" height="1148" viewBox="0 0 1845 1148" fill="none"><path d="M1746.1 976.623C1746.1 976.623 1822.42 838.006 1819.6 611.693C1816.77 385.38 1681.09 173.212 1514.32 113.804C1347.55 54.3972 1132.23 193.977 925.344 156.096C727.478 164.583 695.141 -62.453 406.271 17.6213C225.44 67.7476 124.006 333.845 171.659 492.879C219.712 608.864 310.165 665.442 211.232 747.481C112.3 829.519 110.003 857.011 81.737 888.129C65.0268 906.165 85.2782 952.283 81.738 976.623H1746.1Z" fill="#FEC72F"></path><path opacity="0.7" d="M1746.1 976.622C1746.1 976.622 1844.36 852.143 1841.54 625.83C1841.54 435.836 1803.12 276.696 1636.35 217.289C1469.58 157.882 1455.19 166.663 1257.32 175.15C1059.46 183.637 878.72 -39.1419 590.239 27.8775C307.574 146.692 178.776 376.893 226.83 492.878C274.883 608.864 365.335 665.442 266.403 747.48C167.47 829.519 158.025 854.628 129.759 885.746C113.049 903.781 133.298 952.283 129.758 976.622H1746.1Z" fill="white"></path><g opacity="0.2"><path opacity="0.2" d="M1744.46 383.682C1734.44 383.682 1724.66 386.653 1716.33 392.22C1708.01 397.788 1701.52 405.701 1697.69 414.958C1693.85 424.216 1692.85 434.404 1694.8 444.232C1696.76 454.06 1701.58 463.088 1708.66 470.174C1715.74 477.259 1724.76 482.085 1734.58 484.04C1744.4 485.995 1754.58 484.991 1763.83 481.157C1773.08 477.322 1780.99 470.828 1786.55 462.496C1792.11 454.164 1795.08 444.368 1795.08 434.347C1795.07 420.915 1789.73 408.036 1780.24 398.538C1770.75 389.039 1757.88 383.697 1744.46 383.682ZM1749.6 465.324V470.19H1741.12V465.324C1733.6 463.796 1729.82 457.969 1729.82 448.888V444.305H1739.74V449.567C1739.74 454.32 1741.83 456.045 1745.16 456.045C1748.5 456.045 1750.59 454.32 1750.59 449.567C1750.59 435.79 1730.1 435.14 1730.1 416.044C1730.1 407.048 1733.8 401.334 1741.15 399.693V394.743H1749.63V399.693C1757.06 401.221 1760.94 406.964 1760.94 416.044V418.194H1751.02V415.365C1751.02 410.585 1749.12 408.774 1745.79 408.774C1742.45 408.774 1740.44 410.585 1740.44 415.365C1740.44 429.114 1760.97 429.793 1760.97 448.888C1760.97 457.969 1757.04 463.796 1749.6 465.324V465.324Z" stroke="black" stroke-width="3.39198" stroke-linecap="round" stroke-linejoin="round"></path><path opacity="0.2" d="M1744.46 363.343C1730.43 363.343 1716.71 367.507 1705.05 375.309C1693.38 383.112 1684.28 394.201 1678.91 407.176C1673.54 420.15 1672.14 434.427 1674.88 448.201C1677.61 461.975 1684.37 474.627 1694.29 484.557C1704.22 494.487 1716.86 501.25 1730.62 503.99C1744.38 506.73 1758.65 505.323 1771.61 499.949C1784.58 494.575 1795.66 485.474 1803.45 473.797C1811.25 462.12 1815.41 448.392 1815.41 434.348C1815.41 425.024 1813.58 415.791 1810.01 407.176C1806.45 398.561 1801.22 390.733 1794.63 384.14C1788.04 377.546 1780.22 372.316 1771.61 368.748C1763.01 365.179 1753.78 363.343 1744.46 363.343V363.343ZM1744.46 492.681C1732.93 492.703 1721.65 489.301 1712.05 482.905C1702.45 476.509 1694.96 467.407 1690.53 456.75C1686.1 446.093 1684.93 434.361 1687.17 423.038C1689.41 411.715 1694.95 401.311 1703.1 393.142C1711.24 384.972 1721.63 379.405 1732.94 377.146C1744.25 374.886 1755.97 376.034 1766.63 380.446C1777.29 384.858 1786.39 392.334 1792.8 401.929C1799.21 411.524 1802.63 422.807 1802.64 434.348C1802.62 449.795 1796.49 464.606 1785.59 475.539C1774.68 486.472 1759.9 492.636 1744.46 492.681V492.681Z" stroke="black" stroke-width="3.39198" stroke-linecap="round" stroke-linejoin="round"></path></g><path d="M75.0371 976.625L1788.5 978.068" stroke="#263238" stroke-width="3.39198" stroke-linecap="round" stroke-linejoin="round"></path><path d="M18.1455 729.376C26.6254 733.025 46.9491 732.544 46.9773 732.544C47.0056 732.544 42.5678 719.163 42.172 718.399C37.7059 709.007 23.5161 693.505 11.9551 695.061C10.0475 695.376 8.22748 696.089 6.61301 697.154C4.99853 698.218 3.62571 699.611 2.58358 701.24C1.54145 702.87 0.853296 704.701 0.56376 706.614C0.274225 708.527 0.389762 710.48 0.902901 712.346C2.82502 720.153 11.0223 726.094 18.1455 729.376Z" fill="#FEC72F"></path><path d="M25.2104 788.502C33.86 789.747 52.1202 784.457 53.477 784.033C56.4822 794.481 60.184 804.717 64.5574 814.67C67.0449 820.497 69.7585 826.268 72.5569 832.039C70.8891 829.606 69.391 827.428 69.1366 827.145C62.3244 819.281 44.573 808.05 33.8317 812.633C32.0737 813.437 30.5046 814.603 29.2266 816.055C27.9487 817.506 26.9905 819.211 26.4146 821.057C25.8386 822.904 25.6577 824.852 25.8837 826.773C26.1097 828.694 26.7374 830.547 27.7262 832.209C31.6835 839.423 41.181 842.987 48.8695 844.119C56.558 845.25 72.3024 841.063 76.4294 839.875L79.7083 846.495C84.9941 857.018 90.3082 867.485 95.1983 877.952C96.9226 881.63 98.5055 885.308 100.088 888.985C98.5903 886.835 97.2618 885.025 97.2618 884.77C90.4496 876.877 72.6699 865.675 61.9569 870.23C60.1908 871.029 58.6128 872.192 57.3258 873.642C56.0389 875.093 55.0718 876.799 54.4878 878.648C53.9037 880.498 53.7157 882.45 53.936 884.377C54.1564 886.305 54.7801 888.164 55.7665 889.834C59.7238 897.048 69.1931 900.612 76.8816 901.744C84.5701 902.875 98.8164 899.056 103.735 897.698C105.233 901.517 106.731 905.365 108.031 909.014C108.851 911.617 109.812 914.049 110.491 916.709C111.169 919.368 111.96 921.885 112.667 924.46C113.854 929.439 115.126 934.559 116.172 939.453C116.907 942.848 117.557 946.101 118.236 949.354C116.568 945.677 113.119 938.548 112.752 938.039C107.099 929.212 91.3541 915.407 80.0757 918.236C78.2146 918.766 76.4856 919.682 75.0013 920.924C73.5169 922.167 72.3103 923.708 71.4599 925.447C70.6095 927.187 70.1343 929.086 70.0652 931.021C69.996 932.957 70.3346 934.885 71.0587 936.681C73.8854 944.404 82.7328 949.383 90.1386 951.646C98.3359 954.163 116.426 951.872 118.688 951.646C119.79 957.077 120.78 962.339 121.514 967.346C122.165 971.052 122.758 974.588 123.295 978.011H130.56C129.881 974.192 129.118 970.232 128.298 966.073C127.224 960.557 125.952 954.757 124.596 948.704C130.051 946.517 135.374 944.014 140.538 941.207C146.502 947.685 161.766 955.351 163.745 956.2C161.681 961.321 159.589 966.271 157.554 970.911C156.508 973.372 155.463 975.691 154.417 978.011H162.105L163.914 973.598C166.062 968.421 168.239 962.82 170.416 957.077C172.592 957.53 190.541 961.179 198.88 959.284C206.455 957.586 215.642 953.286 219.034 945.79C219.886 944.053 220.364 942.157 220.438 940.224C220.512 938.29 220.18 936.363 219.464 934.566C218.747 932.769 217.662 931.143 216.278 929.792C214.894 928.441 213.243 927.395 211.43 926.723C200.378 923.017 183.531 935.549 177.51 943.923C177.143 944.432 173.779 950.231 171.716 953.937C172.592 951.561 173.468 949.298 174.345 946.865C176.125 942.056 177.737 937.19 179.489 931.985C180.252 929.439 181.015 926.864 181.807 924.29C182.598 921.716 183.164 918.915 183.87 916.199C185.369 909.891 186.697 903.413 187.658 896.878C191.87 898.405 206.908 903.639 214.681 903.101C222.454 902.564 232.15 899.707 236.644 892.804C237.758 891.219 238.525 889.417 238.895 887.515C239.265 885.613 239.23 883.655 238.793 881.767C238.355 879.88 237.525 878.106 236.356 876.561C235.187 875.017 233.705 873.736 232.008 872.804C221.663 867.457 203.092 877.33 195.742 884.657C195.262 885.11 190.57 890.994 188.054 894.247C188.676 890.315 189.298 886.383 189.806 882.394C191.248 870.824 192.322 859.084 193.481 847.372C193.82 843.779 194.216 840.215 194.583 836.65C196.082 837.188 213.805 843.807 222.539 843.185C230.284 842.648 240.008 839.79 244.474 832.888C245.587 831.305 246.354 829.505 246.724 827.605C247.094 825.705 247.059 823.749 246.621 821.864C246.184 819.978 245.353 818.207 244.184 816.665C243.015 815.123 241.534 813.845 239.838 812.916C229.493 807.569 210.95 817.414 203.572 824.741C203.007 825.306 196.251 833.765 194.64 836.056C195.488 828.192 196.392 820.356 197.467 812.661C199.033 802.265 201.281 791.984 204.194 781.883C204.872 782.137 223.359 789.125 232.291 788.502C240.036 787.936 249.76 785.108 254.254 778.205C255.363 776.618 256.127 774.816 256.494 772.915C256.862 771.014 256.826 769.057 256.389 767.171C255.952 765.285 255.123 763.512 253.957 761.967C252.79 760.422 251.312 759.14 249.618 758.205C239.245 752.858 220.702 762.702 213.324 770.058C212.759 770.623 205.494 779.733 204.307 781.373C204.477 780.779 204.59 780.157 204.759 779.591C207.946 769.535 212.023 759.784 216.942 750.453C219.599 745.276 222.426 740.467 225.422 735.828C228.729 737.497 243.908 744.88 252.021 745.191C260.133 745.503 269.744 743.749 274.973 737.384C276.252 735.929 277.21 734.222 277.786 732.372C278.362 730.523 278.542 728.573 278.315 726.649C278.089 724.726 277.46 722.871 276.47 721.207C275.481 719.542 274.152 718.104 272.571 716.987C262.847 710.537 243.343 718.289 235.202 724.795C234.75 725.135 230.651 729.236 227.712 732.235C229.04 730.17 230.341 728.02 231.641 726.068C236.531 718.741 241.449 712.291 245.774 706.662C248.318 703.465 250.664 700.608 252.869 697.977C256.968 697.977 273.447 697.411 280.655 694.016C287.863 690.622 295.721 684.568 297.445 676.505C297.907 674.626 297.968 672.67 297.626 670.765C297.283 668.86 296.544 667.048 295.457 665.448C294.369 663.847 292.957 662.493 291.313 661.474C289.669 660.455 287.829 659.793 285.913 659.532C274.323 658.259 260.473 674.157 256.346 683.663C255.978 684.483 251.71 698.005 251.936 698.005H252.191C249.986 700.523 247.668 703.21 245.18 706.209C240.658 711.867 235.598 718.119 230.538 725.361C225.026 733.139 219.958 741.224 215.359 749.576C210.172 758.92 205.83 768.709 202.385 778.827C202.397 778.95 202.397 779.073 202.385 779.195C202.385 775.772 202.385 766.21 202.215 765.475C200.859 755.178 192.237 735.998 180.761 733.876C178.849 733.576 176.895 733.682 175.027 734.189C173.159 734.695 171.418 735.59 169.919 736.816C168.42 738.041 167.196 739.569 166.327 741.3C165.458 743.031 164.963 744.925 164.875 746.861C164.197 755.064 170.133 763.268 175.927 768.445C182.457 774.301 200.604 779.959 202.046 780.383C198.803 790.766 196.245 801.35 194.386 812.067C193.283 818.291 192.35 824.627 191.559 830.964C191.559 827.994 191.559 825.306 191.418 824.995C190.061 814.67 181.411 795.518 169.963 793.396C168.051 793.096 166.097 793.202 164.229 793.709C162.361 794.216 160.62 795.111 159.121 796.336C157.622 797.561 156.398 799.089 155.529 800.82C154.66 802.551 154.165 804.446 154.077 806.381C153.399 814.556 159.335 822.789 165.13 827.966C170.924 833.142 186.386 838.348 190.57 839.649C190.287 842.082 189.948 844.515 189.665 846.948C188.252 858.659 186.838 870.343 185.255 881.743C184.662 885.788 183.955 889.721 183.22 893.653C183.22 891.05 183.22 888.815 183.22 888.504C181.892 878.179 173.242 858.999 161.794 856.877C159.883 856.581 157.93 856.691 156.064 857.2C154.198 857.708 152.459 858.603 150.961 859.828C149.463 861.052 148.239 862.578 147.369 864.307C146.498 866.036 146.001 867.928 145.908 869.862C145.23 878.066 151.166 886.269 156.961 891.446C162.755 896.623 176.747 901.348 181.553 902.903C180.705 906.921 179.857 910.966 178.726 914.813C177.963 917.416 177.426 919.99 176.549 922.593C175.673 925.195 174.882 927.713 174.062 930.259C172.309 935.068 170.557 940.047 168.72 944.686C167.476 947.94 166.232 951.023 164.988 954.107C165.61 950.118 166.684 942.254 166.713 941.575C166.561 932.422 164.091 923.457 159.533 915.52C159.566 914.498 159.499 913.475 159.335 912.465C159.096 910.533 158.451 908.673 157.441 907.009C156.432 905.344 155.081 903.913 153.479 902.809C151.876 901.705 150.058 900.954 148.144 900.604C146.23 900.255 144.264 900.315 142.375 900.782C131.069 903.78 123.974 923.413 123.437 933.937C123.437 934.559 123.804 941.235 124.115 945.479C123.55 943.017 123.041 940.641 122.419 938.123C121.232 933.145 119.932 928.194 118.518 922.876C117.755 920.33 116.964 917.755 116.172 915.181C115.381 912.607 114.363 909.947 113.345 907.288C111.112 901.206 108.568 895.124 105.855 889.07C110.236 888.023 125.641 884.091 131.832 879.339C138.022 874.586 144.523 866.863 144.467 858.631C144.525 856.694 144.174 854.767 143.437 852.976C142.701 851.184 141.595 849.568 140.191 848.233C138.788 846.898 137.12 845.875 135.294 845.229C133.469 844.583 131.528 844.33 129.599 844.486C118.009 845.759 107.947 864.289 105.855 874.416C105.855 875.039 105.035 882.535 104.752 886.637C103.085 883.016 101.445 879.395 99.6644 875.774C94.4917 865.335 88.9232 854.953 83.4112 844.656C81.7435 841.488 80.0757 838.291 78.4363 835.094C79.9909 834.755 98.4207 830.455 105.346 825.137C111.508 820.412 118.038 812.661 117.981 804.429C118.039 802.492 117.688 800.565 116.952 798.774C116.215 796.982 115.109 795.366 113.706 794.031C112.303 792.696 110.634 791.673 108.809 791.027C106.983 790.381 105.043 790.128 103.113 790.284C91.5237 791.529 81.4608 810.087 79.3691 820.186C79.1995 820.978 78.2384 831.728 78.1254 834.5C74.479 827.456 70.9174 820.356 67.6667 813.34C63.2706 803.806 59.4939 793.997 56.3601 783.976C57.0951 783.806 76.3446 779.421 83.4395 773.962C89.6016 769.237 96.1311 761.486 96.0746 753.254C96.133 751.315 95.7814 749.385 95.043 747.591C94.3046 745.798 93.196 744.18 91.7897 742.845C90.3835 741.509 88.7113 740.486 86.8826 739.843C85.0539 739.199 83.11 738.949 81.1781 739.109C69.6171 740.354 59.5542 758.912 57.4625 769.011C57.2929 769.831 56.2471 781.402 56.2188 783.523C56.0492 782.958 55.7948 782.363 55.6252 781.769C52.734 771.593 50.7569 761.179 49.7175 750.651C49.0674 744.852 48.7847 739.336 48.6151 733.848C52.2898 733.395 69.0235 731.188 75.9488 726.973C82.8741 722.758 89.9408 715.969 90.7888 707.793C91.0603 705.875 90.9238 703.922 90.3883 702.06C89.8528 700.199 88.9303 698.472 87.6813 696.992C86.4323 695.513 84.885 694.314 83.1408 693.474C81.3965 692.635 79.4947 692.174 77.56 692.121C65.9142 692.121 53.9009 709.321 50.6786 719.222C50.509 719.788 49.35 725.446 48.5586 729.576C48.5586 727.143 48.4172 724.597 48.5586 722.249C48.5586 713.451 49.1239 705.276 49.661 698.232C50.0284 694.158 50.3959 690.509 50.8199 687.086C54.1836 684.766 67.7798 675.232 71.7936 668.443C75.8075 661.654 79.1429 652.233 76.1184 644.567C75.4727 642.741 74.4497 641.072 73.1159 639.669C71.7821 638.265 70.1677 637.159 68.378 636.422C66.5882 635.686 64.6633 635.335 62.7289 635.393C60.7945 635.451 58.894 635.917 57.1516 636.759C46.806 642.106 44.0925 662.955 45.845 673.224C46.0146 674.129 49.9154 687.736 50.085 687.623H50.2828C49.8306 690.905 49.3783 694.441 48.9826 698.288C48.2759 705.445 47.541 713.536 47.3149 722.362C46.9902 731.901 47.2167 741.45 47.9932 750.963C48.8198 761.614 50.5983 772.171 53.3073 782.505V782.873C51.47 780.044 46.0711 772.094 45.5906 771.557C38.7784 763.664 21.027 752.462 10.2857 757.016C8.52677 757.824 6.95722 758.993 5.6791 760.447C4.40098 761.901 3.44288 763.608 2.86705 765.457C2.29122 767.306 2.11055 769.255 2.33677 771.179C2.563 773.102 3.19105 774.956 4.18014 776.621C8.02439 783.806 17.5219 787.371 25.2104 788.502Z" fill="#FEC72F"></path><path d="M224.938 733.733C225.108 733.733 228.641 720.126 228.782 719.221C230.224 708.924 226.917 688.103 216.43 683.096C214.666 682.302 212.754 681.889 210.82 681.884C208.886 681.879 206.972 682.282 205.204 683.066C203.436 683.851 201.853 685 200.558 686.438C199.263 687.876 198.286 689.571 197.689 691.413C194.863 699.136 198.424 708.613 202.664 715.147C207.611 722.814 224.91 733.705 224.938 733.733Z" fill="#FEC72F"></path><path d="M1432.35 644.199C1443.66 649.093 1470.99 648.47 1471.02 648.47C1471.05 648.47 1465.11 630.507 1464.6 629.432C1458.58 616.815 1439.56 596.022 1424.07 598.115C1421.51 598.53 1419.06 599.481 1416.89 600.907C1414.71 602.333 1412.87 604.202 1411.47 606.392C1410.07 608.581 1409.14 611.042 1408.76 613.613C1408.37 616.185 1408.53 618.808 1409.23 621.313C1411.8 632.034 1422.8 640.012 1432.35 644.199Z" fill="#FEC72F"></path><path d="M1441.82 723.721C1453.43 725.418 1477.91 718.318 1479.86 717.724C1483.9 731.75 1488.87 745.491 1494.73 758.856C1498.09 766.664 1501.71 774.415 1505.47 782.138C1503.24 778.857 1501.2 775.943 1500.89 775.575C1491.73 765.023 1467.91 749.973 1453.52 756.084C1451.16 757.167 1449.05 758.736 1447.34 760.687C1445.62 762.638 1444.33 764.929 1443.56 767.41C1442.79 769.891 1442.55 772.508 1442.85 775.089C1443.15 777.67 1443.99 780.159 1445.32 782.393C1450.63 792.068 1463.35 796.849 1473.59 798.348C1483.82 799.847 1505.05 794.246 1510.59 792.69C1512.06 795.66 1513.41 798.602 1514.97 801.545C1522.04 815.689 1529.1 829.834 1535.75 843.752C1538.09 848.703 1540.18 853.653 1542.3 858.575C1540.32 855.747 1538.63 853.257 1538.32 852.918C1529.19 842.338 1505.36 827.316 1490.97 833.426C1488.61 834.503 1486.5 836.067 1484.78 838.015C1483.06 839.964 1481.78 842.253 1481 844.733C1480.23 847.213 1479.99 849.829 1480.29 852.409C1480.6 854.989 1481.44 857.476 1482.77 859.707C1488.09 869.382 1500.81 874.163 1511.04 875.69C1521.27 877.218 1540.44 872.098 1547.02 870.287C1549.06 875.407 1551.09 880.528 1552.68 885.592C1553.78 889.071 1555.08 892.353 1555.98 895.917C1556.89 899.482 1557.93 902.876 1558.81 906.327C1560.39 913.004 1562.09 919.878 1563.5 926.441C1564.49 930.996 1565.37 935.352 1566.33 939.737C1564.07 934.786 1559.46 925.225 1558.98 924.461C1551.57 912.636 1530.26 894.163 1515.14 898.01C1512.64 898.722 1510.32 899.952 1508.33 901.619C1506.34 903.287 1504.72 905.355 1503.58 907.689C1502.44 910.024 1501.8 912.572 1501.71 915.169C1501.62 917.766 1502.07 920.354 1503.04 922.763C1506.83 933.146 1518.67 939.737 1528.65 942.849C1539.62 946.215 1563.93 943.132 1566.95 942.849C1568.42 950.119 1569.78 957.191 1570.94 963.896C1571.79 968.847 1572.6 973.627 1573.34 978.21H1583.06C1582.13 973.118 1581.14 967.771 1580.04 962.199C1578.57 954.815 1576.87 946.951 1575.06 938.888C1582.38 935.968 1589.52 932.614 1596.43 928.846C1604.43 937.502 1624.93 947.658 1627.53 948.931C1624.7 955.805 1621.87 962.453 1619.24 968.733C1617.8 972.043 1616.42 975.155 1615 978.267H1625.32C1626.11 976.315 1626.93 974.391 1627.75 972.354C1630.58 965.395 1633.55 957.899 1636.46 950.176C1639.29 950.798 1663.45 955.692 1674.68 953.005C1684.85 950.713 1697.29 944.942 1701.7 934.9C1702.83 932.577 1703.47 930.042 1703.57 927.458C1703.66 924.874 1703.21 922.299 1702.25 919.899C1701.29 917.499 1699.84 915.328 1697.98 913.526C1696.13 911.724 1693.92 910.332 1691.49 909.439C1676.68 904.432 1654.07 921.292 1645.79 932.523C1645.31 933.174 1640.81 941.01 1638.04 945.932C1639.23 942.764 1640.39 939.709 1641.58 936.455C1643.95 930.006 1646.1 923.499 1648.47 916.483L1651.55 906.158C1652.66 902.706 1653.39 898.944 1654.38 895.323C1656.39 886.836 1658.03 878.18 1659.47 869.382C1665.12 871.447 1685.28 878.463 1695.71 877.727C1706.14 876.992 1719.17 873.173 1725.19 863.922C1726.68 861.795 1727.7 859.378 1728.19 856.829C1728.69 854.28 1728.64 851.655 1728.05 849.125C1727.47 846.595 1726.36 844.218 1724.79 842.147C1723.22 840.076 1721.24 838.357 1718.97 837.104C1705.06 829.918 1680.19 843.13 1670.29 853.003C1669.67 853.597 1663.37 861.489 1659.98 865.874C1660.82 860.584 1661.67 855.322 1662.32 849.947C1664.24 834.416 1665.71 818.688 1667.24 802.959C1667.72 798.15 1668.23 793.369 1668.74 788.56C1670.75 789.324 1694.52 798.178 1706.22 797.358C1716.62 796.622 1729.68 792.803 1735.7 783.553C1737.19 781.423 1738.22 779.004 1738.71 776.453C1739.21 773.901 1739.16 771.274 1738.57 768.743C1737.98 766.211 1736.87 763.831 1735.31 761.757C1733.74 759.683 1731.76 757.963 1729.48 756.706C1715.58 749.549 1690.67 762.76 1680.81 772.605C1680.05 773.369 1671 784.684 1668.82 787.683C1669.95 777.131 1671.17 766.607 1672.78 756.282C1674.89 742.335 1677.89 728.539 1681.77 714.98C1682.7 715.319 1707.49 724.683 1719.48 723.863C1729.88 723.127 1742.91 719.308 1748.93 710.029C1750.42 707.902 1751.44 705.485 1751.94 702.936C1752.43 700.387 1752.38 697.762 1751.8 695.232C1751.21 692.703 1750.1 690.325 1748.53 688.254C1746.97 686.183 1744.99 684.464 1742.71 683.211C1728.83 676.026 1703.93 689.265 1694.04 699.11C1693.27 699.873 1683.52 712.066 1681.91 714.414C1682.17 713.622 1682.31 712.801 1682.56 712.009C1686.95 698.465 1692.54 685.343 1699.27 672.801C1702.83 665.842 1706.62 659.363 1710.57 653.168C1715.01 655.403 1735.39 665.304 1746.27 665.728C1756.68 666.153 1770.07 663.776 1777.06 655.261C1778.77 653.312 1780.06 651.022 1780.83 648.541C1781.61 646.061 1781.85 643.445 1781.55 640.864C1781.24 638.283 1780.4 635.795 1779.07 633.563C1777.74 631.33 1775.96 629.403 1773.83 627.906C1760.8 619.249 1734.6 629.66 1723.69 638.345C1723.1 638.825 1717.61 644.313 1713.65 648.359C1715.44 645.53 1717.19 642.701 1718.94 640.07C1725.5 630.225 1732.08 621.597 1737.99 614.016C1741.36 609.716 1744.52 605.925 1747.52 602.389C1753 602.389 1775.11 601.625 1784.77 597.071C1794.44 592.516 1804.98 584.369 1807.39 573.562C1808.01 571.041 1808.09 568.417 1807.64 565.861C1807.18 563.304 1806.19 560.873 1804.73 558.725C1803.27 556.577 1801.38 554.76 1799.17 553.393C1796.97 552.026 1794.5 551.139 1791.92 550.79C1776.38 549.092 1758 570.422 1752.35 583.181C1751.87 584.284 1746.19 602.417 1746.47 602.389H1746.78C1743.96 605.727 1740.73 609.348 1737.43 613.365C1731.35 620.862 1724.54 629.349 1717.64 639.108C1710.22 649.53 1703.42 660.373 1697.26 671.584C1690.31 684.107 1684.49 697.229 1679.88 710.793C1679.82 710.959 1679.77 711.129 1679.73 711.302C1679.73 706.719 1679.73 693.904 1679.48 692.914C1677.67 679.081 1666.08 653.309 1650.71 650.48C1648.14 650.085 1645.52 650.234 1643.02 650.916C1640.51 651.599 1638.18 652.801 1636.17 654.444C1634.16 656.087 1632.52 658.135 1631.35 660.454C1630.18 662.774 1629.52 665.312 1629.39 667.907C1628.49 678.911 1636.46 689.916 1644.23 696.875C1652.99 704.711 1677.33 712.292 1679.25 712.886C1674.91 726.79 1671.48 740.965 1668.99 755.32C1667.5 763.807 1666.17 772.152 1665.12 780.78C1665.12 776.82 1665.12 773.284 1664.92 772.803C1663.11 758.941 1651.52 733.198 1636.15 730.369C1633.58 729.965 1630.96 730.106 1628.45 730.783C1625.95 731.461 1623.61 732.659 1621.6 734.301C1619.58 735.942 1617.94 737.989 1616.77 740.31C1615.6 742.63 1614.93 745.171 1614.81 747.767C1613.93 758.771 1621.9 769.776 1629.67 776.735C1637.45 783.694 1658.17 790.682 1663.59 792.435C1663.2 795.689 1662.75 798.97 1662.35 802.223C1660.49 817.924 1658.68 833.596 1656.44 848.901C1655.65 854.304 1654.69 859.594 1653.62 864.884C1653.62 861.376 1653.62 858.406 1653.42 857.953C1651.64 844.091 1640.05 818.348 1624.67 815.519C1622.1 815.12 1619.48 815.265 1616.98 815.946C1614.47 816.626 1612.13 817.828 1610.12 819.471C1608.11 821.115 1606.46 823.164 1605.29 825.485C1604.12 827.807 1603.45 830.349 1603.33 832.945C1602.43 843.95 1610.43 854.954 1618.2 861.914C1625.97 868.873 1644.68 875.153 1651.19 877.275C1650.06 882.649 1648.92 888.053 1647.57 893.23C1646.58 896.738 1645.84 900.189 1644.74 903.668C1643.64 907.148 1642.51 910.571 1641.41 913.966C1639.06 920.416 1636.68 927.092 1634.23 933.344C1632.56 937.672 1630.89 941.83 1629.22 945.961C1630.07 940.586 1631.51 930.062 1631.51 929.157C1631.36 916.87 1628.05 904.829 1621.9 894.192C1621.93 892.829 1621.84 891.466 1621.65 890.118C1621.32 887.539 1620.46 885.058 1619.12 882.835C1617.77 880.612 1615.98 878.698 1613.84 877.217C1611.71 875.736 1609.29 874.721 1606.74 874.239C1604.18 873.756 1601.56 873.817 1599.03 874.417C1583.91 878.434 1574.36 904.97 1573.59 918.916C1573.59 919.737 1574.1 928.704 1574.53 934.362C1573.76 931.08 1573.06 927.884 1572.24 924.517C1570.65 917.813 1568.87 911.193 1567.01 904.064C1565.97 900.651 1564.93 897.2 1563.87 893.711C1562.91 890.259 1561.44 886.695 1560.22 883.159C1557.23 874.983 1553.81 866.836 1550.19 858.717C1556.04 857.302 1576.7 852.041 1585.01 845.647C1593.32 839.254 1601.97 828.928 1601.97 817.867C1602.05 815.271 1601.57 812.689 1600.58 810.288C1599.59 807.888 1598.1 805.724 1596.22 803.936C1594.34 802.148 1592.1 800.777 1589.65 799.911C1587.21 799.046 1584.6 798.706 1582.02 798.914C1566.47 800.611 1552.99 825.392 1550.16 839.056C1549.99 839.905 1549.06 849.947 1548.66 855.492C1546.46 850.626 1544.25 845.76 1541.85 840.895C1534.9 826.92 1527.44 812.973 1520.06 798.998C1517.8 794.727 1515.59 790.512 1513.36 786.183C1515.45 785.703 1540.18 779.96 1549.48 772.803C1557.74 766.466 1566.44 756.084 1566.44 745.023C1566.51 742.426 1566.03 739.845 1565.04 737.445C1564.04 735.046 1562.55 732.884 1560.67 731.099C1558.78 729.313 1556.54 727.945 1554.1 727.084C1551.65 726.222 1549.05 725.886 1546.46 726.097C1530.94 727.766 1517.46 752.548 1514.63 766.211C1514.4 767.258 1513.1 781.714 1512.96 785.391C1508.07 775.971 1503.27 766.523 1498.83 757.102C1492.89 744.311 1487.8 731.148 1483.57 717.696C1484.55 717.469 1510.36 711.585 1519.89 704.286C1528.17 697.921 1536.85 687.539 1536.85 676.507C1536.92 673.909 1536.45 671.325 1535.46 668.922C1534.47 666.52 1532.99 664.353 1531.1 662.565C1529.22 660.776 1526.98 659.405 1524.53 658.541C1522.08 657.678 1519.48 657.341 1516.89 657.553C1501.34 659.222 1487.86 684.003 1485.04 697.695C1484.84 698.77 1483.42 714.301 1483.37 717.13C1483.14 716.366 1482.8 715.574 1482.58 714.81C1478.74 701.16 1476.12 687.197 1474.75 673.084C1473.87 665.304 1473.47 657.836 1473.25 650.452C1478.17 649.858 1500.64 646.86 1509.99 641.23C1519.35 635.6 1528.79 626.463 1529.92 615.459C1530.27 612.886 1530.08 610.268 1529.35 607.775C1528.63 605.282 1527.38 602.97 1525.71 600.988C1524.03 599.006 1521.96 597.399 1519.62 596.271C1517.28 595.143 1514.74 594.519 1512.14 594.44C1496.51 594.44 1480.4 617.552 1476.1 630.848C1475.85 631.555 1474.29 639.165 1473.28 644.71C1473.28 641.428 1473.11 638.033 1473.28 634.893C1473.28 623.068 1474.04 612.262 1474.77 602.644C1475.26 597.212 1475.76 592.29 1476.33 587.707C1480.85 584.595 1498.94 571.808 1504.6 562.699C1510.25 553.59 1514.46 540.917 1510.39 530.648C1509.52 528.201 1508.15 525.966 1506.36 524.086C1504.57 522.206 1502.4 520.725 1500 519.737C1497.6 518.75 1495.02 518.279 1492.43 518.356C1489.84 518.432 1487.29 519.054 1484.95 520.181C1471.04 527.366 1467.4 555.344 1469.69 569.121C1469.91 570.309 1475.14 588.556 1475.34 588.414L1475.59 588.216C1474.97 592.629 1474.38 597.382 1473.84 602.559C1472.88 612.149 1471.89 622.983 1471.61 634.865C1471.16 647.649 1471.47 660.449 1472.54 673.197C1473.63 687.526 1476 701.728 1479.64 715.63C1479.64 715.772 1479.64 715.942 1479.64 716.111C1477.18 712.236 1469.94 701.656 1469.29 700.92C1460.16 690.34 1436.33 675.318 1421.94 681.429C1419.58 682.512 1417.48 684.081 1415.76 686.032C1414.05 687.983 1412.76 690.274 1411.99 692.755C1411.21 695.236 1410.97 697.853 1411.27 700.434C1411.58 703.015 1412.42 705.504 1413.75 707.738C1418.78 717.441 1431.5 722.222 1441.82 723.721Z" fill="#FEC72F"></path><path d="M1709.81 650.168C1710.03 650.338 1714.78 631.921 1714.95 630.733C1716.87 616.9 1712.47 589.035 1698.39 582.246C1696.02 581.181 1693.46 580.627 1690.86 580.619C1688.27 580.612 1685.7 581.151 1683.33 582.203C1680.95 583.254 1678.83 584.794 1677.09 586.722C1675.35 588.649 1674.03 590.922 1673.23 593.392C1669.47 603.774 1674.25 616.504 1679.9 625.245C1686.54 635.599 1709.78 650.168 1709.81 650.168Z" fill="#FEC72F"></path><g opacity="0.3"><path opacity="0.3" d="M182.346 442.555C200.719 448.439 243.656 442.979 243.684 442.979C244.136 442.979 231.501 415.765 230.512 414.124C219.036 395.34 185.794 365.807 161.853 371.691C144.582 375.849 136.667 394.322 142.32 410.475C147.974 426.628 166.686 437.576 182.346 442.555Z" stroke="black" stroke-width="3.39198" stroke-linecap="round" stroke-linejoin="round"></path><path opacity="0.3" d="M458.399 729.633C468.857 718.317 478.185 702.73 476.433 687.397C474.539 670.423 459.473 657.184 442.032 660.918C417.921 666.095 400.791 707.143 398.587 729.067C398.587 730.425 398.587 746.323 398.926 755.064C394.658 747.794 390.446 740.524 385.867 733.31C372.695 712.461 358.731 691.81 344.88 671.074C340.612 664.737 336.4 658.372 332.273 652.035C334.196 651.385 348.385 646.378 362.405 639.956" stroke="black" stroke-width="3.39198" stroke-linecap="round" stroke-linejoin="round"></path><path opacity="0.3" d="M428.357 810.962C426.321 806.21 423.777 801.401 421.544 796.563C415.524 784.229 408.853 772.008 401.758 759.787C415.573 755.019 428.994 749.173 441.896 742.305" stroke="black" stroke-width="3.39198" stroke-linecap="round" stroke-linejoin="round"></path><path opacity="0.3" d="M609.793 587.931C603.79 592.37 598.317 597.487 593.483 603.179C592.437 604.452 580.085 623.717 577.173 628.639C577.173 611.892 577.399 595.201 578.247 578.765C579.297 556.545 581.771 534.415 585.653 512.512C587.18 512.908 627.573 523.545 646.228 520.292C662.425 517.463 682.268 509.316 690.211 493.813C698.154 478.311 692.642 459.216 676.078 452.737C653.125 443.77 616.238 468.551 602.331 485.609C601.228 486.939 587.943 507.675 585.795 511.607C586.049 510.334 586.134 509.004 586.388 507.731C590.914 485.883 597.365 464.478 605.666 443.77C610.132 432.256 615.022 421.534 619.997 411.181C627.318 414.01 660.927 426.174 678.028 425.071C694.451 424.024 715.057 418.14 724.64 403.627C734.222 389.115 730.83 369.482 715.114 361.194C693.292 349.878 653.889 370.303 638.201 385.749C637.324 386.569 629.721 396.074 624.067 403.062C626.385 398.422 628.703 393.613 631.021 389.2C639.671 372.679 648.603 358.082 656.631 345.239C661.238 337.968 665.563 331.462 669.69 325.436C678.17 324.39 712.853 319.778 727.268 311.037C741.684 302.296 756.779 288.066 758.729 270.697C760.679 253.327 748.525 237.542 730.773 237.485C706.125 237.485 680.629 273.809 673.788 294.771C673.195 296.581 667.23 325.889 667.654 325.889H668.192C664.121 331.547 659.712 337.799 655.274 344.645C646.935 357.375 637.664 371.802 628.618 388.182C618.683 405.746 609.774 423.872 601.935 442.468C593.06 463.257 586.051 484.794 580.989 506.826C580.989 507.081 580.989 507.364 580.989 507.618C580.367 500.433 577.965 480.348 577.597 478.82C572.538 457.405 550.151 418.96 525.587 417.008C507.892 415.594 494.494 430.728 494.974 447.787C495.455 464.845 509.645 481.168 522.958 490.815C537.996 501.678 577.399 509.599 580.537 510.249C575.938 532.781 572.85 555.595 571.294 578.539C570.333 591.92 569.768 605.414 569.344 618.964C568.609 612.741 567.902 607.196 567.732 606.432C562.673 584.989 540.286 546.572 515.722 544.62C498.027 543.206 484.629 558.341 485.109 575.399C485.59 592.457 499.78 608.78 513.093 618.398C526.407 628.017 560.072 635.627 568.948 637.494C568.948 642.671 568.693 647.876 568.609 653.053C568.213 677.975 567.93 702.87 566.913 727.255C566.573 735.742 565.895 744.229 565.273 752.715C564.595 747.057 564.001 742.56 563.832 741.881C558.772 720.437 536.413 682.021 511.85 680.041C494.126 678.654 480.756 693.789 481.209 710.819C481.661 727.849 495.879 744.229 509.192 753.847C522.506 763.465 552.921 770.339 563.464 772.574C562.56 781.231 561.655 789.887 560.383 798.204C559.394 803.862 558.828 809.52 557.556 815.178C556.284 820.835 555.182 826.324 554.023 831.84C551.394 842.335 548.737 853.198 545.911 863.411C544.017 870.511 542.038 877.244 540.257 884.005C540.71 875.518 541.247 858.715 541.134 857.3C538.859 838.057 531.696 819.718 520.329 804.032C520.169 801.881 519.81 799.751 519.255 797.667C514.846 781.202 497.829 770.396 481.237 776.704C458.2 785.474 447.487 828.643 448.646 850.652C448.646 851.925 451.02 865.928 452.603 874.726C450.879 869.719 449.267 864.797 447.43 859.648C443.869 849.407 439.996 839.308 435.869 828.53" stroke="black" stroke-width="3.39198" stroke-linecap="round" stroke-linejoin="round"></path><path opacity="0.3" d="M317.686 787.653C326.018 790.731 334.787 792.459 343.662 792.774C359.548 793.424 389.2 782.363 399.234 778.431C403.248 786.154 407.262 793.849 410.795 801.515C413.085 806.805 415.657 811.727 417.664 817.159C419.671 822.59 421.848 827.767 423.911 833.001C427.501 843.213 431.289 853.737 434.539 863.808C436.857 870.795 438.949 877.471 441.069 884.204C436.744 876.821 427.953 862.563 427.077 861.431C413.509 844.118 377.102 818.602 353.98 827.117C337.302 833.255 331.564 852.577 339.055 867.91C346.546 883.242 366.332 892.068 382.472 895.237C400.224 898.688 437.847 889.947 442.539 888.815C445.987 899.961 449.266 910.852 452.178 921.178C454.345 928.816 456.38 936.171 458.283 943.243L473.547 941.659C471.258 933.795 468.827 925.591 466.17 917.019C462.693 905.704 458.764 893.624 454.609 881.29C465.604 875.498 476.251 869.066 486.493 862.025C500.457 874.331 534.235 886.892 538.617 888.504C535.366 899.82 532.087 910.598 528.808 920.81C527.112 926.242 525.416 931.362 523.748 936.426L539.889 934.757C540.85 931.56 541.811 928.42 542.715 925.082C546.051 913.766 549.414 901.489 552.75 888.9C557.47 889.381 595.998 893.115 613.155 887.344C628.73 882.082 647.075 871.021 652.729 854.529C658.382 838.036 649.902 819.931 632.546 816.056C608.52 810.652 575.787 840.752 564.707 859.734C564.028 860.837 558.262 873.879 554.729 882.026C556.057 876.877 557.414 871.87 558.714 866.552C561.399 856.056 563.717 845.505 566.29 834.161C567.335 828.503 568.41 823.043 569.455 817.413C570.501 811.784 571.18 805.815 572.084 799.959C573.865 786.352 574.911 772.49 575.844 758.487C585.03 760.779 617.791 768.501 634.073 765.673C650.354 762.844 670.084 754.696 678.027 739.222C685.97 723.748 680.458 704.596 663.894 698.118C640.941 689.151 604.025 713.932 590.118 730.99C589.242 732.065 580.649 745.418 575.985 752.858C576.409 744.371 576.89 736.026 577.059 727.397C577.568 702.758 577.285 677.807 577.059 652.912C577.059 645.274 577.059 637.664 577.059 630.055C580.338 630.932 619.063 640.946 637.295 637.749C653.492 634.92 673.307 626.801 681.249 611.299C689.192 595.796 683.68 576.701 667.116 570.223C656.318 566.008 642.44 569.261 629.324 575.655" stroke="black" stroke-width="3.39198" stroke-linecap="round" stroke-linejoin="round"></path><path opacity="0.3" d="M291.656 760.977C292.542 765.038 294.224 768.884 296.603 772.292C298.792 775.452 301.463 778.249 304.518 780.581" stroke="black" stroke-width="3.39198" stroke-linecap="round" stroke-linejoin="round"></path><path opacity="0.3" d="M216.887 565.469C236.475 563.376 266.297 551.325 268.954 550.165C277.528 571.498 287.519 592.233 298.86 612.231C305.417 623.943 312.371 635.513 319.494 647.027C315.452 642.246 311.834 638.003 311.24 637.465C295.213 622.387 255.357 602.698 233.79 614.608C218.243 623.094 215.502 643.18 225.31 657.211C235.119 671.243 255.951 677.014 272.346 677.636C288.74 678.258 321.021 666.066 329.472 662.699C332.299 667.084 334.956 671.497 337.754 675.882C351.181 696.873 364.664 717.778 377.327 738.684C381.765 746.039 385.807 753.451 390.019 760.863C386.429 756.648 383.377 753.111 382.839 752.602C366.812 737.524 326.957 717.835 305.389 729.745C300.493 732.439 296.545 736.578 294.083 741.598" stroke="black" stroke-width="3.39198" stroke-linecap="round" stroke-linejoin="round"></path><path opacity="0.3" d="M329.526 389.908C330.132 387.292 330.445 384.616 330.459 381.931C330.459 364.957 316.834 350.049 299.168 351.831C274.633 354.349 253.122 393.274 248.543 414.803C248.288 415.962 247.044 428.155 246.309 437.038C245.688 431.889 244.953 426.599 244.472 421.648C242.578 403.091 241.985 386.004 241.645 370.728C241.476 362.1 241.504 354.32 241.645 347.022C248.232 341.364 274.519 318.421 281.756 303.202C288.992 287.982 293.684 267.473 285.656 252.027C277.629 236.581 258.86 229.99 244.02 239.749C223.414 253.272 222.226 297.742 228.078 318.959C228.586 320.798 239.78 348.578 240.119 348.295L240.515 347.955C240.26 354.971 240.091 362.524 240.063 370.728C240.063 385.919 240.345 403.091 241.843 421.648C243.225 441.781 245.783 461.816 249.504 481.65C253.576 503.885 259.611 525.716 267.538 546.884C267.538 547.139 267.764 547.394 267.849 547.62C263.382 541.962 250.295 526.545 249.164 525.47C233.137 510.392 193.281 490.702 171.714 502.64C156.168 511.127 153.426 531.184 163.234 545.215C170.668 555.937 184.208 561.68 197.408 564.169" stroke="black" stroke-width="3.39198" stroke-linecap="round" stroke-linejoin="round"></path><path opacity="0.3" d="M373.034 634.665C377.973 632.099 382.577 628.936 386.743 625.245C398.7 613.929 410.77 596.22 408.848 578.907C406.926 561.594 391.888 548.723 374.448 552.457C350.336 557.634 333.207 598.681 331.03 620.577C330.861 622.246 331.172 645.104 331.511 650.931C322.324 636.928 313.279 622.897 304.912 608.724C293.526 589.6 283.394 569.756 274.582 549.317C276.052 548.807 315.625 535.37 329.391 522.357C341.319 511.041 353.389 493.332 351.467 476.02C349.545 458.707 334.507 445.807 317.067 449.541C292.955 454.718 275.854 495.765 273.649 517.689C273.48 519.415 273.819 544.027 274.186 548.468C273.677 547.308 273.027 546.12 272.547 544.932C264.266 524.206 257.853 502.782 253.382 480.914C250.753 468.891 248.916 457.236 247.361 445.835C254.993 444.109 289.761 435.736 303.414 425.382C310.043 420.43 315.91 414.53 320.826 407.871" stroke="black" stroke-width="3.39198" stroke-linecap="round" stroke-linejoin="round"></path><path opacity="0.3" d="M618.495 406.881C618.919 407.079 623.356 377.46 623.441 375.565C624.204 353.556 612.757 310.5 589.521 302.183C572.844 296.157 556.026 307.247 551.87 323.767C547.715 340.288 557.213 359.864 567.53 372.651C579.685 387.673 618.466 406.881 618.495 406.881Z" stroke="black" stroke-width="3.39198" stroke-linecap="round" stroke-linejoin="round"></path></g><g opacity="0.3"><path opacity="0.3" d="M1629.2 279.354C1632.14 280.692 1635.2 281.762 1638.33 282.551C1654.36 286.2 1675.79 286.455 1689.21 275.252C1702.64 264.05 1704.87 244.304 1692.04 231.913C1674.37 214.713 1630.73 223.2 1611.28 233.526C1609.75 234.318 1589.49 248.264 1585.98 251.037C1586.69 249.962 1587.31 248.774 1588.02 247.699C1600.68 229.331 1614.95 212.12 1630.64 196.269C1639.12 187.386 1647.86 179.295 1656.48 171.799C1662.13 177.202 1688.36 201.502 1704.53 207.16C1720.05 212.592 1741.28 215.166 1755.81 205.52C1761.13 202.086 1765.24 197.066 1767.56 191.167C1769.88 185.269 1770.29 178.79 1768.73 172.648" stroke="black" stroke-width="3.39198" stroke-linecap="round" stroke-linejoin="round"></path><path opacity="0.3" d="M1761.06 160.144C1743.62 144.076 1702.58 147.753 1683.1 155.476C1682 155.929 1671.18 161.672 1663.32 165.943C1667.25 162.577 1671.26 159.041 1675.1 155.901C1689.49 144.047 1703.37 134.061 1715.75 125.32C1722.85 120.426 1729.35 116.126 1735.54 112.166C1743.85 114.542 1777.51 123.679 1794.19 121.275C1810.87 118.87 1830.51 111.402 1838.94 96.154C1847.36 80.9062 1842.39 61.6413 1826.05 54.6821C1803.43 45.0073 1765.75 68.8267 1751.34 85.3193C1750.1 86.762 1733.16 111.487 1733.62 111.6H1734.12C1728.13 115.306 1721.77 119.323 1714.93 123.877C1702.32 132.364 1688.16 142.039 1673.46 153.638C1657.49 165.942 1642.25 179.166 1627.81 193.242C1611.57 208.955 1596.76 226.08 1583.55 244.417L1583.13 245.096C1585.36 238.222 1590.93 218.787 1591.18 217.26C1594.83 195.534 1589.12 151.431 1567.24 140.059C1551.49 131.883 1533.32 140.681 1527.07 156.523C1520.83 172.365 1527.64 192.988 1536.17 207.047C1545.81 222.889 1579.05 245.521 1581.68 247.331C1568.71 266.33 1557.02 286.176 1546.69 306.738C1540.58 318.705 1534.82 330.897 1529.19 343.231C1530.94 337.206 1532.44 331.916 1532.56 331.067C1536.2 309.341 1530.52 265.238 1508.64 253.866C1492.87 245.69 1474.72 254.488 1468.48 270.33C1462.23 286.172 1469.04 306.795 1477.58 320.855C1486.11 334.914 1514.32 354.971 1521.65 360.148C1519.53 364.901 1517.38 369.597 1515.29 374.293C1505.25 397.122 1495.33 419.923 1484.93 442.017C1481.28 449.796 1477.38 457.321 1473.62 464.875C1475.15 459.528 1476.45 455.03 1476.45 454.323C1480.09 432.597 1474.38 388.494 1452.51 377.15C1436.73 368.974 1418.59 377.744 1412.34 393.586C1406.09 409.428 1412.9 430.051 1421.44 444.11C1429.69 457.717 1455.36 476.303 1464.18 482.47C1459.97 490.08 1455.7 497.718 1451.37 504.904C1448.27 509.741 1445.58 514.607 1442.19 519.303L1432.35 533.447C1425.85 542.104 1419.21 551.1 1412.56 559.389C1408.04 565.046 1403.6 570.704 1399.19 576.136C1402.93 568.413 1409.94 553.193 1410.36 551.835C1415.75 533.223 1416.28 513.537 1411.89 494.663C1412.57 492.618 1413.07 490.517 1413.38 488.383C1415.7 471.409 1404.23 454.917 1386.47 454.294C1361.85 453.417 1335.23 489.062 1327.74 509.769C1327.28 510.986 1323.98 524.763 1322.08 533.504C1322.42 528.214 1322.85 523.065 1323.16 517.577C1323.84 506.771 1324.18 495.964 1324.63 484.337C1324.63 478.68 1324.63 473.022 1324.63 467.364C1324.63 461.706 1324.18 455.652 1323.98 449.74C1323.21 436.048 1321.77 422.186 1320.02 408.268C1329.49 408.862 1363.13 410.39 1378.59 404.59C1394.05 398.791 1412.14 387.079 1417.09 370.389M1329.21 378.536C1328.53 379.753 1322.54 394.463 1319.4 402.638C1318.3 394.152 1317.22 385.92 1315.81 377.489" stroke="black" stroke-width="3.39198" stroke-linecap="round" stroke-linejoin="round"></path><path opacity="0.3" d="M1656.87 167.131C1657.18 167.47 1672.78 141.897 1673.58 140.171C1682.82 120.199 1688.98 76.1247 1670.75 59.4058C1657.72 47.3546 1637.9 50.9191 1627.67 64.6676C1617.44 78.4161 1618.6 99.9724 1623.12 115.786C1628.55 134.372 1656.87 167.103 1656.87 167.131Z" stroke="black" stroke-width="3.39198" stroke-linecap="round" stroke-linejoin="round"></path></g><path d="M632.862 331.791H1532.7L1416.24 977.915H516.404L632.862 331.791Z" fill="white" stroke="#263238" stroke-width="3.39198" stroke-linecap="round" stroke-linejoin="round"></path><path d="M1514.69 331.791L1458.69 642.519L1406.99 929.399L1398.23 977.943H498.424L585.372 495.529L614.882 331.791H1514.69Z" fill="#263238" stroke="#263238" stroke-width="3.39198" stroke-linecap="round" stroke-linejoin="round"></path><path d="M639.443 352.047H1482.83L1373.67 957.661H530.277L639.443 352.047Z" fill="#FEC72F" stroke="#263238" stroke-width="3.39198" stroke-linecap="round" stroke-linejoin="round"></path><path d="M538.814 910.303L530.277 957.659H1373.67L1382.2 910.303H538.814Z" fill="#BFBFBF" stroke="#263238" stroke-width="3.39198" stroke-linecap="round" stroke-linejoin="round"></path><path d="M1457.85 352.047L1348.69 957.661H1373.67L1482.84 352.047H1457.85Z" fill="#BFBFBF" stroke="#263238" stroke-width="3.39198" stroke-linecap="round" stroke-linejoin="round"></path><path d="M1443.15 572.134L1464.38 454.31H1439.42L1418.16 572.134H1443.15Z" fill="#A1A1A1" stroke="#263238" stroke-width="3.39198" stroke-linecap="round" stroke-linejoin="round"></path><path d="M1402.47 935.144H297.932V977.917H1402.47V935.144Z" fill="white" stroke="#263238" stroke-width="3.39198" stroke-linecap="round" stroke-linejoin="round"></path><path d="M455.432 935.144H75.0352V977.917H455.432V935.144Z" fill="#263238" stroke="#263238" stroke-width="3.39198" stroke-linecap="round" stroke-linejoin="round"></path><path d="M631.732 394.82H1475.12L1482.84 352.047H639.449L631.732 394.82Z" fill="#BFBFBF" stroke="#263238" stroke-width="3.39198" stroke-linecap="round" stroke-linejoin="round"></path><path d="M684.816 381.496H1086.54L1090.21 361.1H688.491L684.816 381.496Z" fill="white" stroke="#263238" stroke-width="3.39198" stroke-linecap="round" stroke-linejoin="round"></path><path opacity="0.2" d="M665.144 588.204H976.669L936.361 811.915H624.836L665.144 588.204Z" fill="black"></path><path d="M645.919 567.523H957.473L917.165 791.206H605.611L645.919 567.523Z" fill="white" stroke="#263238" stroke-width="3.39198" stroke-linecap="round" stroke-linejoin="round"></path><path d="M952.756 593.578L957.476 567.523H645.923L641.23 593.578H952.756Z" fill="#263238" stroke="#263238" stroke-width="3.39198" stroke-linecap="round" stroke-linejoin="round"></path><path d="M940.207 581.131C940.213 582.661 939.764 584.158 938.918 585.432C938.072 586.707 936.868 587.701 935.456 588.289C934.045 588.877 932.491 589.032 930.992 588.735C929.492 588.438 928.115 587.702 927.034 586.62C925.953 585.539 925.217 584.16 924.92 582.659C924.623 581.158 924.779 579.603 925.366 578.191C925.954 576.779 926.947 575.573 928.221 574.726C929.494 573.88 930.99 573.431 932.518 573.437C934.558 573.437 936.513 574.247 937.955 575.69C939.397 577.133 940.207 579.09 940.207 581.131V581.131Z" fill="white" stroke="#263238" stroke-width="3.39198" stroke-linecap="round" stroke-linejoin="round"></path><path d="M766.733 618.416C781.884 620.623 786.661 632.759 783.241 650.015L782.563 653.495H769.164L770.041 649.082C772.274 637.766 769.079 630.722 758.734 630.722C748.388 630.722 742.678 637.71 740.445 649.082C734.792 677.908 777.842 678.106 770.719 714.147C767.327 731.403 757.547 743.709 741.52 745.915L739.597 755.647H727.867L729.789 745.915C714.271 743.709 709.494 731.573 712.829 714.147L714.384 706.254H727.782L726.058 715.052C723.768 726.622 727.245 733.242 737.534 733.242C747.823 733.242 753.872 726.622 756.133 715.052C761.787 686.423 718.935 686.056 726.058 649.987C729.506 632.363 738.947 620.793 754.833 618.388L756.868 608.119H768.599L766.733 618.416Z" fill="#263238"></path><path d="M795.843 728.604L792.338 746.426H778.572L782.077 728.604H795.843ZM791.801 678.334L803.701 617.937H818.004L806.104 678.334L796.465 717.939H785.95L791.801 678.334Z" fill="#263238"></path><path d="M824.824 728.604L821.319 746.426H807.553L811.058 728.604H824.824ZM820.81 678.334L832.682 617.937H847.013L835.113 678.334L825.53 717.939H814.874L820.81 678.334Z" fill="#263238"></path><path opacity="0.2" d="M1458.7 642.519L1407 929.399H1084.34L1136.06 642.519H1458.7Z" fill="black"></path><path d="M1112.4 623.283H1511.92L1460.22 910.163H1060.71L1112.4 623.283Z" fill="white" stroke="#263238" stroke-width="3.39198" stroke-linecap="round" stroke-linejoin="round"></path><path d="M1505.9 656.721L1511.92 623.283H1112.4L1106.38 656.721H1505.9Z" fill="#263238" stroke="#263238" stroke-width="3.39198" stroke-linecap="round" stroke-linejoin="round"></path><path d="M1489.79 640.766C1489.79 642.726 1489.21 644.641 1488.13 646.27C1487.04 647.899 1485.49 649.168 1483.68 649.917C1481.87 650.665 1479.88 650.86 1477.96 650.475C1476.04 650.091 1474.28 649.145 1472.9 647.758C1471.51 646.37 1470.57 644.603 1470.19 642.681C1469.82 640.758 1470.02 638.766 1470.77 636.958C1471.52 635.149 1472.79 633.605 1474.43 632.52C1476.06 631.436 1477.97 630.86 1479.93 630.865C1481.23 630.865 1482.51 631.122 1483.71 631.619C1484.91 632.117 1486 632.847 1486.92 633.767C1487.83 634.687 1488.56 635.779 1489.05 636.98C1489.55 638.181 1489.8 639.468 1489.79 640.766Z" fill="white" stroke="#263238" stroke-width="3.39198" stroke-linecap="round" stroke-linejoin="round"></path><path d="M1153.56 764.474C1156.7 760.147 1160.83 756.635 1165.6 754.234C1170.38 751.832 1175.66 750.61 1181 750.669C1202.4 750.669 1208.82 766.369 1204.12 790.274L1197.71 822.891C1192.7 848.351 1177.3 864.985 1151.86 864.985C1126.42 864.985 1117.94 848.351 1122.83 822.891L1125.03 811.575H1142.39L1139.96 823.966C1137.13 838.959 1141.4 847.983 1154.71 847.983C1168.03 847.983 1176 838.959 1178.94 823.966L1185.3 791.49C1188.27 776.497 1183.86 767.444 1170.54 767.444C1160.34 767.444 1152.31 773.102 1148.24 785.295L1147.51 789.114H1130.15L1152.91 696.552H1218.43L1215.15 713.214H1166.25L1153.56 764.474Z" fill="#263238"></path><path d="M1231.04 736.862C1236.04 711.402 1251.9 694.994 1277.31 694.994C1302.72 694.994 1312.36 711.43 1307.36 736.862L1290.4 822.776C1285.39 848.236 1269.51 864.87 1243.84 864.87C1218.18 864.87 1209.07 848.236 1214.11 822.776L1231.04 736.862ZM1232.2 823.964C1229.37 838.957 1233.89 847.982 1247.21 847.982C1260.52 847.982 1268.72 838.957 1271.66 823.964L1289.1 735.928C1292.09 720.681 1287.68 711.656 1274.12 711.656C1260.55 711.656 1252.6 720.681 1249.61 735.928L1232.2 823.964Z" fill="#263238"></path><path d="M1344.22 711.065L1339.98 733.272C1338.65 740.118 1334.52 744.587 1327.71 744.587C1320.9 744.587 1318.55 740.061 1319.91 733.272L1324.29 711.065C1325.62 704.332 1329.72 699.749 1336.56 699.749C1343.4 699.749 1345.63 704.332 1344.22 711.065ZM1369.66 700.117L1328.08 770.472H1323.36L1364.85 700.117H1369.66ZM1329.29 710.753L1324.8 733.668C1324.04 737.487 1324.8 740.004 1328.56 740.004C1332.32 740.004 1334.21 737.487 1334.83 733.668L1339.36 710.753C1340.09 706.934 1339.1 704.332 1335.6 704.332C1332.09 704.332 1329.97 706.934 1329.21 710.753H1329.29ZM1373.67 737.289L1369.32 759.411C1367.99 766.228 1363.98 770.726 1357.05 770.726C1350.13 770.726 1347.89 766.2 1349.25 759.411L1353.6 737.289C1354.93 730.556 1359.03 725.973 1365.84 725.973C1372.65 725.973 1374.92 730.556 1373.59 737.289H1373.67ZM1358.66 737.006L1354.11 759.807C1353.35 763.626 1354.34 766.228 1357.84 766.228C1361.35 766.228 1363.5 763.626 1364.15 759.807L1368.64 737.006C1369.38 733.187 1368.39 730.669 1364.85 730.669C1361.32 730.669 1359.34 733.187 1358.58 737.006H1358.66Z" fill="#263238"></path><path d="M1302.52 796.61C1305.35 782.89 1313.83 773.979 1327.48 773.979C1341.13 773.979 1346.36 782.805 1343.65 796.61L1334.52 843.032C1331.69 856.639 1323.21 865.664 1309.45 865.664C1295.68 865.664 1290.71 856.696 1293.39 843.032L1302.52 796.61ZM1303.14 843.57C1301.53 851.774 1304.05 856.498 1311.23 856.498C1318.41 856.498 1322.79 851.774 1324.43 843.57L1333.76 796.101C1335.37 788.038 1332.99 783.144 1325.67 783.144C1318.35 783.144 1314.08 788.038 1312.5 796.101L1303.14 843.57Z" fill="#263238"></path><path d="M1379.8 816.754L1378.02 825.863H1357.39L1349.73 864.732H1339.72L1357.42 774.942H1393.03L1391.25 784.051H1365.61L1359.17 816.754H1379.8Z" fill="#263238"></path><path d="M1423.36 816.754L1421.58 825.863H1400.94L1393.28 864.732H1383.31L1400.97 774.942H1436.59L1434.81 784.051H1409.17L1402.75 816.754H1423.36Z" fill="#263238"></path><path opacity="0.2" d="M836.121 331.791L806.611 495.529H585.369L614.879 331.791H836.121Z" fill="black"></path><path d="M418.516 164.885H843.927L788.892 470.379H363.453L418.516 164.885Z" fill="white" stroke="#263238" stroke-width="3.39198" stroke-linecap="round" stroke-linejoin="round"></path><path d="M662.342 164.885L637.722 194.758L635.969 164.885H627.178L612.706 190.911L605.752 164.885H596.085L586.983 192.099L573.189 164.885H566.038L561.6 198.294L534.634 165.083L537.46 209.186L504.077 182.424L515.554 224.405L476.998 205.14L496.7 243.387L454.47 232.326L481.634 265.368L437.34 262.935L470.893 289.498L426.26 295.807L464.928 314.874L421.652 329.669L463.996 340.504L423.716 363.22L468.066 365.398L432.365 395.158L476.998 388.624L447.262 424.296L490.481 409.275L467.84 449.473L508.007 426.559L493.308 469.757L528.839 439.799L524.599 470.379H534.181L552.215 448.512L553.516 470.379H567.197L577.26 452.331L582.065 470.379H596.537L602.954 451.143L612.734 470.379H624.973L628.365 444.975L649 470.379H654.823L652.477 434.056L685.888 460.817L674.383 418.836L712.967 438.13L693.237 399.854L735.495 410.944L708.331 377.902L752.625 380.335L719.044 353.743L763.705 347.463L725.009 328.396L768.285 313.601L725.97 302.766L766.221 280.05L721.899 277.843L757.572 248.083L712.939 254.618L742.675 218.945L699.456 233.995L722.097 193.768L681.959 216.71L696.657 173.485L661.126 203.443L666.469 164.885H662.342Z" fill="white" stroke="#263238" stroke-width="3.39198" stroke-linecap="round" stroke-linejoin="round"></path><path d="M837.513 200.501L843.929 164.885H418.518L412.102 200.501H837.513Z" fill="#263238" stroke="#263238" stroke-width="3.39198" stroke-linecap="round" stroke-linejoin="round"></path><path d="M820.384 183.498C820.389 185.588 819.775 187.632 818.618 189.371C817.462 191.111 815.816 192.468 813.888 193.27C811.96 194.072 809.838 194.283 807.79 193.877C805.742 193.471 803.861 192.465 802.385 190.988C800.909 189.51 799.904 187.628 799.498 185.578C799.092 183.529 799.303 181.405 800.105 179.475C800.906 177.546 802.262 175.898 804 174.741C805.738 173.584 807.781 172.969 809.868 172.975C812.657 172.975 815.332 174.083 817.304 176.057C819.276 178.031 820.384 180.707 820.384 183.498V183.498Z" fill="white" stroke="#263238" stroke-width="3.39198" stroke-linecap="round" stroke-linejoin="round"></path><path d="M535.54 275.098C550.408 275.098 554.874 282.198 552.104 296.258L551.227 300.756C549.221 310.855 545.122 317.135 536.303 319.738C545.065 322.341 547.157 329.696 545.094 340.219L543.482 348.253C540.656 362.596 532.176 370.658 517.28 370.658H495.316L514.114 275.098H535.54ZM519.173 360.955C526.947 360.955 531.3 356.853 533.052 347.999L534.72 339.512C536.812 328.875 533.278 325.367 524.148 325.367H514.877L507.867 360.983L519.173 360.955ZM524.968 315.693C533.448 315.693 538.31 312.864 540.288 302.991L541.391 297.333C543.059 288.846 540.995 284.773 533.363 284.773H522.848L516.771 315.608L524.968 315.693Z" fill="#263238"></path><path d="M563.297 348.112C561.601 356.599 564.004 361.917 571.777 361.917C579.55 361.917 583.847 356.712 585.543 348.112L599.902 275.098H609.88L595.577 347.574C592.751 362.058 584.271 371.733 569.431 371.733C554.591 371.733 550.068 362.058 552.895 347.574L567.17 275.098H577.685L563.297 348.112Z" fill="#263238"></path><path d="M625.202 336.4L617.09 275.098H628.142L633.795 322.058L658.048 275.098H668.139L635.746 336.4L628.99 370.658H618.503L625.202 336.4Z" fill="#263238"></path><path d="M669.886 357.419L667.285 370.658H657.053L659.653 357.419H669.886ZM666.89 320.021L675.709 275.098H686.337L677.489 320.021L670.338 349.498H662.423L666.89 320.021Z" fill="#263238"></path><path opacity="0.2" d="M1369.55 331.791L1339.81 496.745H1028.26L1057.99 331.791H1369.55Z" fill="black"></path><path d="M1050.84 252.355H1362.39L1322.05 476.038H1010.53L1050.84 252.355Z" fill="white" stroke="#263238" stroke-width="3.39198" stroke-linecap="round" stroke-linejoin="round"></path><path d="M1357.67 278.41L1362.39 252.355H1050.84L1046.15 278.41H1357.67Z" fill="#263238" stroke="#263238" stroke-width="3.39198" stroke-linecap="round" stroke-linejoin="round"></path><path d="M1337.43 273.687C1341.7 273.687 1345.15 270.229 1345.15 265.964C1345.15 261.699 1341.7 258.241 1337.43 258.241C1333.17 258.241 1329.72 261.699 1329.72 265.964C1329.72 270.229 1333.17 273.687 1337.43 273.687Z" fill="white" stroke="#263238" stroke-width="3.39198" stroke-linecap="round" stroke-linejoin="round"></path><path d="M1123.26 355.837L1122.92 357.676H1115.79L1116.22 355.441C1117.41 349.387 1115.79 345.822 1110.42 345.822C1105.05 345.822 1101.94 349.387 1100.81 355.356C1097.85 370.491 1120.2 371.933 1116.44 390.915C1114.44 401.128 1108.22 407.889 1097.93 407.889C1087.64 407.889 1084.11 401.213 1086.11 390.915L1086.88 387.068H1093.92L1093.07 391.311C1091.88 397.393 1093.69 400.958 1099.06 400.958C1104.43 400.958 1107.68 397.393 1108.87 391.311C1111.84 376.261 1089.56 374.819 1093.32 355.837C1095.36 345.426 1101.46 338.863 1111.55 338.863C1121.65 338.863 1125.41 345.624 1123.26 355.837Z" fill="#263238"></path><path d="M1270.24 355.837L1269.9 357.676H1262.78L1263.2 355.441C1264.39 349.387 1262.78 345.822 1257.41 345.822C1252.04 345.822 1248.93 349.387 1247.8 355.356C1244.83 370.491 1267.19 371.933 1263.43 390.915C1261.42 401.128 1255.21 407.889 1244.92 407.889C1234.63 407.889 1231.09 401.213 1233.1 390.915L1233.86 387.068H1240.9L1240.05 391.311C1238.87 397.393 1240.68 400.958 1246.05 400.958C1251.42 400.958 1254.67 397.393 1255.86 391.311C1258.82 376.261 1236.55 374.819 1240.31 355.837C1242.34 345.426 1248.45 338.863 1258.54 338.863C1268.63 338.863 1272.39 345.624 1270.24 355.837Z" fill="#263238"></path><path d="M1130.1 393.519L1124.81 407.013H1117.88L1144.09 339.543H1154.97L1154.57 407.013H1147.08V393.406L1130.1 393.519ZM1132.33 387.069H1147.37V348.115L1132.33 387.069Z" fill="#263238"></path><path d="M1160.46 407.013L1173.74 339.543H1181.26L1169.33 400.167H1188.58L1187.23 407.013H1160.46Z" fill="#263238"></path><path d="M1224.34 369.53L1223.02 376.262H1206.54L1201.73 400.28H1221.94L1220.67 407.013H1192.91L1206.2 339.543H1233.96L1232.6 346.361H1212.39L1207.84 369.416L1224.34 369.53Z" fill="#263238"></path><path d="M588.844 1087.17C588.844 1087.17 593.027 1112.29 597.663 1122.08C602.299 1131.87 610.694 1143.92 605.097 1145.33C599.5 1146.75 591.642 1143.92 586.046 1137.89C579.682 1130.33 572.684 1123.33 565.128 1116.96C554.924 1108.47 553.511 1106.24 556.309 1100.21C559.879 1093.87 563.914 1087.8 568.379 1082.05L588.844 1087.17Z" fill="white" stroke="#263238" stroke-width="3.39198" stroke-linecap="round" stroke-linejoin="round"></path><path d="M604.818 1145.36C591.646 1139.84 582.204 1125.95 573.979 1117.41C568.399 1111.66 562.21 1106.54 555.521 1102.13C553.966 1106.86 556.086 1109.52 565.131 1116.96C572.687 1123.33 579.685 1130.33 586.049 1137.89C591.532 1143.83 599.391 1146.61 604.818 1145.36Z" fill="white" stroke="#263238" stroke-width="3.39198" stroke-linecap="round" stroke-linejoin="round"></path><path d="M477.847 869.482C477.847 869.482 462.046 889.935 456.93 904.363C451.814 918.79 454.103 934.123 463.431 938.791C472.759 943.459 599.619 938.791 599.619 938.791L568.526 1082.05L588.991 1087.17C588.991 1087.17 650.81 946.231 654.993 935.99C659.177 925.749 665.678 904.363 662.427 898.79C659.177 893.217 605.725 887.163 605.725 887.163L605.951 872.453L482.087 872.736L477.847 869.482Z" fill="#263238" stroke="#263238" stroke-width="3.39198" stroke-linecap="round" stroke-linejoin="round"></path><path d="M601.061 933.246L608.297 899.865" stroke="#7A7A7A" stroke-width="3.39198" stroke-linecap="round" stroke-linejoin="round"></path><path d="M566.66 603.142C566.66 603.142 562.194 587.47 551.566 585.801C540.937 584.132 530.903 585.801 532.034 590.27C533.164 594.74 533.701 596.409 533.701 596.409C533.701 596.409 510.24 597.541 497.944 609.281C485.648 621.021 498.509 646.056 505.209 655.675C511.908 665.293 519.737 674.148 520.303 676.92C520.868 679.692 524.204 689.226 517.476 694.261C510.749 699.297 452.661 726.68 453.792 732.847C454.922 739.014 475.133 872.454 475.133 872.454H605.781C605.781 872.454 627.659 726.143 624.832 723.342C622.006 720.542 565.077 694.261 565.077 694.261L567.904 678.617C567.904 678.617 586.362 676.382 585.796 671.913C585.231 667.443 580.765 646.735 580.765 646.735L585.231 640.597L573.953 626.622V617.654L566.66 603.142Z" fill="#FEC72F" stroke="#263238" stroke-width="3.39198" stroke-linecap="round" stroke-linejoin="round"></path><path d="M564.993 694.261L567.82 678.617C567.82 678.617 586.278 676.382 585.712 671.913C585.147 667.443 580.681 646.735 580.681 646.735L585.147 640.597L573.954 626.622V617.654L566.689 603.142C566.689 603.142 562.223 587.47 551.595 585.801C540.966 584.132 530.932 585.801 532.063 590.27C533.193 594.74 533.73 596.409 533.73 596.409C533.73 596.409 510.269 597.541 497.973 609.281C485.677 621.021 498.538 646.056 505.238 655.675C511.937 665.293 519.767 674.147 520.332 676.92C520.897 679.692 524.233 689.226 517.505 694.261C515.227 695.775 512.868 697.163 510.439 698.42C516.799 705.039 529.49 716.411 543.313 718.392C555.863 720.202 567.961 708.01 575.112 698.957L564.993 694.261Z" fill="white" stroke="#263238" stroke-width="3.39198" stroke-linecap="round" stroke-linejoin="round"></path><path d="M516.943 671.373C517.385 671.369 517.809 671.197 518.13 670.892C522.85 666.168 529.154 663.339 525.677 660.482C522.2 657.625 525.677 649.166 527.26 649.166C528.843 649.166 533.874 647.893 533.874 646.649C532.169 642.885 529.943 639.38 527.26 636.238C524.744 633.07 538.934 620.142 542.694 617.935C546.453 615.729 532.942 618.275 532.292 612.9C531.641 607.525 563.102 602.744 566.353 602.235C565.222 598.868 560.699 587.27 551.569 585.827C540.969 584.158 530.906 585.827 532.037 590.297C533.168 594.766 533.705 596.435 533.705 596.435C533.705 596.435 510.244 597.567 497.948 609.307C485.652 621.047 498.513 646.083 505.212 655.701C509.367 661.557 513.947 667.243 516.943 671.373Z" fill="#263238" stroke="#263238" stroke-width="3.39198" stroke-linecap="round" stroke-linejoin="round"></path><path d="M532.576 653.44C532.576 653.44 523.078 637.797 517.51 644.954C511.941 652.111 519.177 665.067 525.989 666.199C527.819 666.576 529.707 666.572 531.536 666.187C533.364 665.803 535.094 665.046 536.618 663.964L543.317 669" fill="white"></path><path d="M532.576 653.44C532.576 653.44 523.078 637.797 517.51 644.954C511.941 652.111 519.177 665.067 525.989 666.199C527.819 666.576 529.707 666.572 531.536 666.187C533.364 665.803 535.094 665.046 536.618 663.964L543.317 669" stroke="#263238" stroke-width="3.39198" stroke-linecap="round" stroke-linejoin="round"></path><path d="M567.594 628.884C567.792 630.893 567.085 632.59 565.954 632.731C564.824 632.873 563.721 631.345 563.523 629.337C563.326 627.328 564.032 625.631 565.135 625.518C566.237 625.405 567.368 626.904 567.594 628.884Z" fill="#263238"></path><path d="M565.695 652.873C569.666 654.136 573.876 654.455 577.991 653.806" stroke="#263238" stroke-width="3.39198" stroke-linecap="round" stroke-linejoin="round"></path><path d="M558.469 621.389C559.903 619.803 561.78 618.685 563.857 618.181C565.933 617.676 568.114 617.808 570.115 618.56" stroke="#263238" stroke-width="3.39198" stroke-linecap="round" stroke-linejoin="round"></path><path d="M612.566 793.922L620.706 816.554L603.379 847.53L615.647 858.987L661.58 831.377C662.705 830.681 663.55 829.611 663.968 828.355C664.387 827.099 664.352 825.736 663.869 824.503L624.466 722.153L620.056 720.852" fill="#FEC72F"></path><path d="M612.566 793.922L620.706 816.554L603.379 847.53L615.647 858.987L661.58 831.377C662.705 830.681 663.55 829.611 663.968 828.355C664.387 827.099 664.352 825.736 663.869 824.503L624.466 722.153L620.056 720.852" stroke="#263238" stroke-width="3.39198" stroke-linecap="round" stroke-linejoin="round"></path><path d="M620.709 816.527C624.724 814.914 629.078 814.327 633.377 814.821C637.676 815.315 641.783 816.874 645.329 819.356" stroke="#263238" stroke-width="3.39198" stroke-linecap="round" stroke-linejoin="round"></path><path d="M598.203 832.622C598.203 832.622 588.366 835.168 586.896 835.451C585.426 835.734 582.119 841.363 580.423 843.938C578.727 846.512 570.558 847.304 574.515 851.265C578.473 855.225 583.221 850.699 585.483 848.719C587.744 846.738 590.542 844.221 590.542 844.221L595.63 845.069C597.129 848.524 599.119 851.745 601.538 854.631C604.902 858.309 606.993 861.109 614.315 860.289C621.636 859.468 624.349 851.576 619.007 843.966C613.664 836.356 598.203 832.622 598.203 832.622Z" fill="white" stroke="#263238" stroke-width="3.39198" stroke-linecap="round" stroke-linejoin="round"></path><path d="M606.375 831.097C606.375 831.097 603.294 825.439 599.902 826.882C596.51 828.325 591.733 847.731 593.994 850.277C596.256 852.823 598.206 844.082 601.881 838.961C603.758 836.576 605.272 833.926 606.375 831.097V831.097Z" fill="white" stroke="#263238" stroke-width="3.39198" stroke-linecap="round" stroke-linejoin="round"></path><path d="M606.374 831.095C606.374 831.095 596.82 847.163 599.053 851.69C601.286 856.216 603.858 851.972 606.939 846.88C610.021 841.788 613.13 837.319 612.593 833.924C612.056 830.529 609.201 830.105 606.374 831.095Z" fill="white" stroke="#263238" stroke-width="3.39198" stroke-linecap="round" stroke-linejoin="round"></path><path d="M612.846 837.432C612.846 837.432 618.217 837.969 618.217 842.495C618.217 847.022 608.917 854.886 605.808 854.886C602.699 854.886 604.96 851.52 604.96 851.52L612.846 837.432Z" fill="white" stroke="#263238" stroke-width="3.39198" stroke-linecap="round" stroke-linejoin="round"></path><path d="M617.934 845.861C617.934 845.861 620.45 845.04 620.761 848.124C621.072 851.207 614.005 856.611 610.359 857.431C606.713 858.251 610.359 852.65 610.359 852.65L617.934 845.861Z" fill="white" stroke="#263238" stroke-width="3.39198" stroke-linecap="round" stroke-linejoin="round"></path><path d="M474.258 779.666L459.615 816.442L476.886 843.514L469.537 857.178L418.657 831.294C417.532 830.597 416.687 829.527 416.269 828.271C415.85 827.015 415.885 825.652 416.368 824.419L453.284 731.461L456.732 729.057" fill="#FEC72F"></path><path d="M474.258 779.666L459.615 816.442L476.886 843.514L469.537 857.178L418.657 831.294C417.532 830.597 416.687 829.527 416.269 828.271C415.85 827.015 415.885 825.652 416.368 824.419L453.284 731.461L456.732 729.057" stroke="#263238" stroke-width="3.39198" stroke-linecap="round" stroke-linejoin="round"></path><path d="M441.379 816.158C439.109 816.966 436.96 818.08 434.99 819.468" stroke="#263238" stroke-width="3.39198" stroke-linecap="round" stroke-linejoin="round"></path><path d="M459.617 816.527C456.032 815.082 452.166 814.472 448.311 814.745" stroke="#263238" stroke-width="3.39198" stroke-linecap="round" stroke-linejoin="round"></path><path d="M471.773 839.016C471.773 839.016 463.886 851.972 467.843 857.347C471.801 862.722 484.803 855.65 484.803 855.65C484.803 855.65 486.188 856.216 490.994 853.953C495.799 851.69 499.474 844.646 497.467 839.808C495.46 834.971 471.773 839.016 471.773 839.016Z" fill="white" stroke="#263238" stroke-width="3.39198" stroke-linecap="round" stroke-linejoin="round"></path><path d="M498.428 831.095C500.182 832.75 502.366 833.878 504.731 834.348C507.954 834.659 516.575 832.792 518.271 834.348C519.967 835.904 518.723 840.657 515.19 841.732C511.656 842.807 509.028 841.562 505.042 841.279C501.057 840.996 499.813 840.968 499.813 840.968L498.428 831.095Z" fill="white" stroke="#263238" stroke-width="3.39198" stroke-linecap="round" stroke-linejoin="round"></path><path d="M490.795 831.943C490.795 831.943 494.922 829.312 497.946 830.811C500.971 832.311 502.837 842.127 502.837 845.861C502.837 849.595 501.31 852.99 500.208 852.99C499.372 852.867 498.584 852.525 497.924 851.999C497.263 851.472 496.754 850.779 496.448 849.991C495.685 848.124 492.293 837.573 491.926 835.705C491.657 834.421 491.278 833.163 490.795 831.943V831.943Z" fill="white" stroke="#263238" stroke-width="3.39198" stroke-linecap="round" stroke-linejoin="round"></path><path d="M484.404 833.923C486.951 832.58 489.809 831.936 492.686 832.056C495.682 832.792 497.18 848.605 497.547 851.604C497.915 854.603 496.812 856.498 493.816 854.631C490.82 852.764 488.926 844.079 487.428 841.844C485.93 839.609 482.538 836.441 484.404 833.923Z" fill="white" stroke="#263238" stroke-width="3.39198" stroke-linecap="round" stroke-linejoin="round"></path><path d="M477.65 837.209C478.361 836.081 479.366 835.169 480.557 834.571C481.747 833.973 483.078 833.711 484.406 833.814C488.533 834.578 492.293 849.995 493.056 852.258C493.819 854.522 490.059 856.389 488.533 855.257C484.902 850.767 481.641 845.989 478.781 840.971C478.385 839.839 477.65 837.209 477.65 837.209Z" fill="white" stroke="#263238" stroke-width="3.39198" stroke-linecap="round" stroke-linejoin="round"></path><path d="M479.455 837.915C479.105 837.358 478.572 836.94 477.948 836.734C477.324 836.527 476.647 836.545 476.035 836.784C475.22 837.018 474.465 837.421 473.817 837.967C473.169 838.513 472.644 839.189 472.275 839.952C471.031 843.008 475.102 848.439 477.928 851.947C480.755 855.455 484.373 855.172 484.684 853.022C484.01 847.677 482.229 842.532 479.455 837.915V837.915Z" fill="white" stroke="#263238" stroke-width="3.39198" stroke-linecap="round" stroke-linejoin="round"></path><path d="M615.932 807.504H484.408V890.759H615.932V807.504Z" fill="white" stroke="#263238" stroke-width="3.39198" stroke-linecap="round" stroke-linejoin="round"></path><path d="M549.332 846.26C554.593 846.26 558.858 841.992 558.858 836.727C558.858 831.462 554.593 827.193 549.332 827.193C544.071 827.193 539.807 831.462 539.807 836.727C539.807 841.992 544.071 846.26 549.332 846.26Z" fill="white" stroke="#263238" stroke-width="3.39198" stroke-linecap="round" stroke-linejoin="round"></path><path d="M490.309 1085.7C490.309 1085.7 488.924 1120.12 494.945 1132.2C500.966 1144.28 510.294 1152.2 516.343 1140.13C522.392 1128.05 513.092 1096.87 513.092 1091.75C513.035 1088.17 512.724 1084.6 512.159 1081.06L490.309 1083.38V1085.7Z" fill="white" stroke="#263238" stroke-width="3.39198" stroke-linecap="round" stroke-linejoin="round"></path><path d="M468.012 906.686C468.012 906.686 469.849 981.115 476.831 1023.46C483.813 1065.81 490.314 1085.7 490.314 1085.7C495.242 1086.44 500.254 1086.44 505.182 1085.7C508.418 1084.79 511.348 1083.02 513.662 1080.58C513.662 1080.58 522.142 934.975 522.481 922.415C522.821 909.854 522.029 897.775 518.779 894.126C515.528 890.476 487.685 888.1 477.877 893.673" fill="#263238"></path><path d="M468.012 906.686C468.012 906.686 469.849 981.115 476.831 1023.46C483.813 1065.81 490.314 1085.7 490.314 1085.7C495.242 1086.44 500.254 1086.44 505.182 1085.7C508.418 1084.79 511.348 1083.02 513.662 1080.58C513.662 1080.58 522.142 934.975 522.481 922.415C522.821 909.854 522.029 897.775 518.779 894.126C515.528 890.476 487.685 888.1 477.877 893.673" stroke="#263238" stroke-width="3.39198" stroke-linecap="round" stroke-linejoin="round"></path></svg>